<svg width="130" height="32" viewBox="0 0 130 32" fill="none" xmlns="http://www.w3.org/2000/svg">
<rect width="31.3725" height="31.3725" rx="15.6863" fill="url(#paint0_linear_510_2132)"/>
<path fill-rule="evenodd" clip-rule="evenodd" d="M31.3719 16.8933C30.9918 16.9624 24.0819 16.91 23.7078 16.8135C23.3337 16.7171 22.985 16.5406 22.6857 16.2964C22.3864 16.0521 22.1436 15.7459 21.9741 15.3987C21.8046 15.0516 21.7124 14.6718 21.7039 14.2856V11.5272C21.6969 10.8482 21.4222 10.1994 20.9395 9.72171C20.4569 9.24405 19.8053 8.97612 19.1263 8.97612C18.4472 8.97612 17.7956 9.24405 17.313 9.72171C16.8303 10.1994 16.5557 10.8482 16.5486 11.5272V20.4699C16.3528 26.1473 8.16313 26.1554 7.96736 20.4699V17.7197C7.96798 17.606 7.94604 17.4932 7.90281 17.3881C7.85958 17.2829 7.79591 17.1873 7.7155 17.1069C7.63508 17.0265 7.53951 16.9628 7.43433 16.9196C7.32914 16.8764 7.21643 16.8544 7.10271 16.855H0.00488281L0.00484452 15.142H7.10271C7.7859 15.1435 8.44069 15.4155 8.92378 15.8986C9.40687 16.3817 9.6789 17.0365 9.68034 17.7197V20.4699C9.68739 21.1489 9.96206 21.7977 10.4447 22.2754C10.9273 22.753 11.5789 23.021 12.258 23.021C12.937 23.021 13.5886 22.753 14.0713 22.2754C14.5539 21.7977 14.8286 21.1489 14.8356 20.4699V11.5272C15.0314 5.84983 23.2211 5.84983 23.4169 11.5272V14.2856C23.4171 14.3987 23.4397 14.5106 23.4833 14.6149C23.527 14.7193 23.5908 14.814 23.6711 14.8936C23.7515 14.9732 23.8468 15.0361 23.9515 15.0787C24.0563 15.1214 24.1684 15.1429 24.2815 15.142H31.3719V16.8933Z" fill="#131515"/>
<path d="M37.647 7.88727H41.387V14.1573H47.173V7.88727H50.935V23.6173H47.173V17.2153H41.387V23.6173H37.647V7.88727Z" fill="#131515"/>
<path d="M55.8561 20.0093C55.8561 20.4346 56.0028 20.7573 56.2961 20.9773C56.6041 21.1826 57.0368 21.2853 57.5941 21.2853C58.4594 21.2853 59.1488 21.0359 59.6621 20.5373C60.1901 20.0239 60.4541 19.3273 60.4541 18.4473V18.0073L57.5281 18.6013C56.9414 18.7186 56.5161 18.8873 56.2521 19.1073C55.9881 19.3273 55.8561 19.6279 55.8561 20.0093ZM52.1381 20.5813C52.1381 19.5399 52.4901 18.7406 53.1941 18.1833C53.9128 17.6113 54.9688 17.1933 56.3621 16.9293L60.4541 16.1593V16.0713C60.4541 15.3673 60.2634 14.8393 59.8821 14.4873C59.5008 14.1353 58.9654 13.9593 58.2761 13.9593C57.5428 13.9593 57.0001 14.1499 56.6481 14.5313C56.2961 14.8979 56.0834 15.4113 56.0101 16.0713H52.3141C52.3874 15.2499 52.5781 14.5459 52.8861 13.9593C53.2088 13.3579 53.6268 12.8593 54.1401 12.4633C54.6681 12.0673 55.2768 11.7739 55.9661 11.5833C56.6701 11.3926 57.4401 11.2973 58.2761 11.2973C60.1094 11.2973 61.5174 11.7299 62.5001 12.5953C63.4974 13.4459 63.9961 14.6999 63.9961 16.3573V23.6173H60.6081L60.5421 21.9233C60.1608 22.4953 59.5888 22.9719 58.8261 23.3533C58.0781 23.7346 57.1981 23.9253 56.1861 23.9253C55.6581 23.9253 55.1521 23.8593 54.6681 23.7273C54.1841 23.6099 53.7514 23.4193 53.3701 23.1553C53.0034 22.8913 52.7028 22.5466 52.4681 22.1213C52.2481 21.6959 52.1381 21.1826 52.1381 20.5813Z" fill="#131515"/>
<path d="M69.0527 17.5893C69.0527 18.6599 69.2873 19.4959 69.7567 20.0973C70.226 20.6986 70.8787 20.9993 71.7147 20.9993C72.5507 20.9993 73.196 20.7059 73.6507 20.1193C74.12 19.5179 74.3547 18.6746 74.3547 17.5893C74.3547 16.5186 74.1273 15.6899 73.6727 15.1033C73.218 14.5166 72.5727 14.2233 71.7367 14.2233C70.886 14.2233 70.226 14.5239 69.7567 15.1253C69.2873 15.7119 69.0527 16.5333 69.0527 17.5893ZM65.4447 7.46927H68.9867V13.4973C69.368 12.7933 69.8887 12.2506 70.5487 11.8693C71.2233 11.4879 72.0007 11.2973 72.8807 11.2973C73.658 11.2973 74.362 11.4513 74.9927 11.7593C75.638 12.0526 76.1807 12.4779 76.6207 13.0353C77.0753 13.5779 77.4273 14.2379 77.6767 15.0153C77.926 15.7926 78.0507 16.6579 78.0507 17.6113C78.0507 18.5646 77.926 19.4299 77.6767 20.2073C77.4273 20.9846 77.0753 21.6519 76.6207 22.2093C76.1807 22.7519 75.638 23.1773 74.9927 23.4853C74.362 23.7786 73.658 23.9253 72.8807 23.9253C72.0007 23.9253 71.2087 23.7346 70.5047 23.3533C69.8007 22.9719 69.2653 22.4073 68.8987 21.6593L68.8327 23.6173H65.4447V7.46927Z" fill="#131515"/>
<path d="M79.3461 11.6053H82.9761V23.6173H79.3461V11.6053ZM79.3021 7.51326H83.0201V10.5273H79.3021V7.51326Z" fill="#131515"/>
<path d="M85.8648 14.5313H84.1488V11.6053H85.8648V8.70127H89.5388V11.6053H93.3008V14.5313H89.5388V18.9313C89.5388 19.6939 89.7221 20.2073 90.0888 20.4713C90.4555 20.7206 90.9761 20.8453 91.6508 20.8453C91.9001 20.8453 92.1641 20.8379 92.4428 20.8233C92.7215 20.7939 93.0075 20.7499 93.3008 20.6913V23.6173C92.7581 23.7199 92.2521 23.7933 91.7828 23.8373C91.3135 23.8959 90.8661 23.9253 90.4408 23.9253C88.9008 23.9253 87.7495 23.5513 86.9868 22.8033C86.2388 22.0406 85.8648 20.8086 85.8648 19.1073V14.5313Z" fill="#131515"/>
<path d="M94.4056 7.44727H98.0576V23.6173H94.4056V7.44727Z" fill="#131515"/>
<path d="M99.6058 11.6053H103.236V23.6173H99.6058V11.6053ZM99.5618 7.51326H103.28V10.5273H99.5618V7.51326Z" fill="#131515"/>
<path d="M104.783 11.6053H108.193L108.237 13.7613C108.545 12.8959 109.021 12.2726 109.667 11.8913C110.327 11.4953 111.097 11.2973 111.977 11.2973C113.253 11.2973 114.265 11.7006 115.013 12.5073C115.775 13.2993 116.157 14.4213 116.157 15.8733V23.6173H112.483V17.0173C112.483 16.0933 112.336 15.4186 112.043 14.9933C111.764 14.5679 111.295 14.3553 110.635 14.3553C109.945 14.3553 109.403 14.5826 109.007 15.0373C108.625 15.4773 108.435 16.1373 108.435 17.0173V23.6173H104.783V11.6053Z" fill="#131515"/>
<path d="M126.343 16.6433C126.226 15.8513 125.947 15.2279 125.507 14.7733C125.082 14.3186 124.503 14.0913 123.769 14.0913C123.021 14.0913 122.42 14.3186 121.965 14.7733C121.525 15.2279 121.247 15.8513 121.129 16.6433H126.343ZM117.345 17.5893C117.345 16.6506 117.499 15.7926 117.807 15.0153C118.115 14.2379 118.548 13.5779 119.105 13.0353C119.663 12.4779 120.33 12.0526 121.107 11.7593C121.899 11.4513 122.779 11.2973 123.747 11.2973C124.715 11.2973 125.581 11.4513 126.343 11.7593C127.121 12.0526 127.781 12.4779 128.323 13.0353C128.866 13.5779 129.277 14.2379 129.555 15.0153C129.849 15.7779 129.995 16.6286 129.995 17.5673V18.4693H121.107C121.225 19.3053 121.511 19.9579 121.965 20.4273C122.42 20.8966 123.021 21.1313 123.769 21.1313C124.327 21.1313 124.796 20.9993 125.177 20.7353C125.559 20.4713 125.852 20.0973 126.057 19.6133H129.907C129.541 20.9479 128.822 22.0039 127.751 22.7813C126.681 23.5439 125.353 23.9253 123.769 23.9253C122.801 23.9253 121.921 23.7713 121.129 23.4633C120.337 23.1553 119.663 22.7299 119.105 22.1873C118.548 21.6299 118.115 20.9626 117.807 20.1853C117.499 19.3933 117.345 18.5279 117.345 17.5893Z" fill="#131515"/>
<defs>
<linearGradient id="paint0_linear_510_2132" x1="4.47249e-07" y1="2.946" x2="29.5264" y2="28.4056" gradientUnits="userSpaceOnUse">
<stop stop-color="#F5DC4E"/>
<stop offset="1" stop-color="#FF7676"/>
</linearGradient>
</defs>
</svg>
