<svg width="108" height="22" viewBox="0 0 108 22" fill="none" xmlns="http://www.w3.org/2000/svg">
<path d="M43.1751 17.9408C42.8776 17.6858 42.7069 17.4186 42.6911 17.1378L43.1751 17.9408ZM43.1751 17.9408L43.1766 17.9421C43.5001 18.2068 43.9559 18.3331 44.5319 18.3331H45.7924H45.8766V18.2488V18.0836V17.9993H45.7924H45.1594L44.9396 17.9593L44.9356 17.9586L44.9314 17.9583C44.8004 17.9473 44.6546 17.8586 44.4961 17.6613C44.3591 17.4603 44.2854 17.1706 44.2854 16.7816V10.3134C44.2854 9.62362 44.1091 9.0525 43.7501 8.60722L43.7491 8.60585C43.5141 8.32682 43.1456 8.12052 42.6551 7.9802C42.1754 7.8252 41.5529 7.74922 40.7914 7.74922C40.0124 7.74922 39.2981 8.01885 38.6509 8.5535C38.1334 8.96987 37.7441 9.41605 37.4866 9.89262V7.91617V7.83189H37.4021H35.9556H35.8714V7.91617V18.2488V18.3331H35.9556H37.4021H37.4866V18.2488V10.9127C37.4866 10.3966 37.8171 9.79742 38.5151 9.11297L38.5159 9.11237C39.2049 8.42337 39.9761 8.08312 40.8326 8.08312C41.2504 8.08312 41.5946 8.1504 41.8691 8.28072C42.3901 8.5614 42.6704 9.214 42.6704 10.2927V16.7816V16.7841V16.7866L42.6911 17.1378L43.1751 17.9408ZM34.5686 4.7297L34.6464 4.75955L34.6771 4.68232L34.7599 4.47567L34.7931 4.39267L34.7084 4.36442C33.2951 3.89337 31.9016 3.65747 30.5279 3.65747C29.1661 3.65747 28.1294 3.97687 27.4326 4.6306C26.7386 5.26812 26.3931 6.10429 26.3931 7.13089C26.3931 8.42617 26.9304 9.43087 28.0011 10.1355C28.4736 10.455 28.9941 10.7464 29.5624 11.0098L29.5641 11.0105C30.1291 11.2586 30.6874 11.4999 31.2389 11.7342L31.2396 11.7345C31.8011 11.9674 32.3144 12.2206 32.7789 12.4939C33.8036 13.1006 34.3081 13.9357 34.3081 15.0043C34.3081 15.9833 33.9214 16.7206 33.1476 17.2276C32.3786 17.7268 31.4446 17.9786 30.3419 17.9786C29.5929 17.9786 28.8574 17.8698 28.1354 17.6518C27.4261 17.4198 26.8504 17.1278 26.4056 16.7773L26.3319 16.7193L26.2819 16.7991L26.1786 16.9643L26.1364 17.0321L26.2016 17.0781C27.4166 17.9298 28.8809 18.3538 30.5899 18.3538C31.5051 18.3538 32.3061 18.2498 32.9911 18.0401L32.9921 18.0398C33.6979 17.8141 34.2971 17.3903 34.7889 16.7721C35.2841 16.1496 35.5306 15.4003 35.5306 14.5291C35.5306 13.6528 35.3846 12.9287 35.0871 12.3617C34.7921 11.786 34.4044 11.3339 33.9229 11.0082C33.4499 10.6882 32.9289 10.4034 32.3596 10.1535C31.7931 9.9048 31.2264 9.68365 30.6596 9.49007C30.1116 9.28455 29.6054 9.06555 29.1404 8.83312C28.1156 8.29355 27.6156 7.54095 27.6156 6.57292C27.6156 5.77077 27.9149 5.14895 28.5121 4.69762C29.1124 4.24402 29.9531 4.01202 31.0446 4.01202C32.1481 4.01202 33.3229 4.25047 34.5686 4.7297ZM46.3181 9.19982L46.3179 9.20027C45.3614 10.1708 44.8884 11.531 44.8884 13.2685C44.8884 15.0046 45.3469 16.3058 46.2799 17.1541C47.2074 17.9971 48.4066 18.4158 49.8704 18.4158C51.3506 18.4158 52.5716 17.9331 53.5259 16.9651C54.4964 15.9946 54.9764 14.6343 54.9764 12.8966C54.9764 11.1605 54.5179 9.85925 53.5849 9.01107C52.6571 8.16777 51.4509 7.74922 49.9736 7.74922C48.5066 7.74922 47.2859 8.23212 46.3181 9.19982ZM47.4786 9.4545L47.4791 9.45402C48.1541 8.53602 48.9979 8.08312 50.0149 8.08312C51.0371 8.08312 51.8529 8.47152 52.4701 9.24982C53.0866 10.0271 53.4024 11.2374 53.4024 12.8966C53.4024 14.5389 53.0601 15.8141 52.3859 16.7313C51.7111 17.6356 50.8671 18.0821 49.8496 18.0821C48.8276 18.0821 48.0116 17.6936 47.3944 16.9153C46.7779 16.1378 46.4621 14.9344 46.4621 13.2892C46.4621 11.6325 46.8046 10.3578 47.4786 9.4545ZM69.0564 7.98057L68.9949 8.04212L69.0584 8.10167C69.2569 8.2877 69.3624 8.56534 69.3624 8.94944C69.3624 9.33724 69.2821 9.66665 69.1254 9.9409L69.1236 9.94407L69.1221 9.9474L66.2108 16.2518L63.1194 7.88697L63.0991 7.83189H63.0404H61.5939H61.4731L61.5146 7.94517L62.2674 9.99975L59.3911 16.2516L56.2999 7.88697L56.2794 7.83189H56.2206H54.7741H54.6529L54.6951 7.94557L58.5389 18.2783L58.5594 18.3331H58.6179H58.8246H58.8789L58.9014 18.2838L62.4539 10.4721L65.3586 18.2783L65.3789 18.3331H65.4376H65.6441H65.6984L65.7209 18.2838L69.4821 10.0176L69.4829 10.0159C69.6521 9.62102 69.7376 9.23089 69.7376 8.84612C69.7376 8.74314 69.7231 8.6345 69.6949 8.5205C69.6779 8.39367 69.6156 8.25919 69.5174 8.11827C69.4754 8.04842 69.4354 7.9902 69.3976 7.94487C69.3606 7.9003 69.3206 7.86229 69.2776 7.84079L69.2234 7.81362L69.1804 7.85657L69.0564 7.98057Z" fill="#060612"/>
<path d="M43.1751 17.9408C42.8776 17.6858 42.7069 17.4186 42.6911 17.1378M43.1751 17.9408L42.6911 17.1378M43.1751 17.9408L43.1766 17.9421C43.5001 18.2068 43.9559 18.3331 44.5319 18.3331H45.7924H45.8766V18.2488V18.0836V17.9993H45.7924H45.1594L44.9396 17.9593L44.9356 17.9586L44.9314 17.9583C44.8004 17.9473 44.6546 17.8586 44.4961 17.6613C44.3591 17.4603 44.2854 17.1706 44.2854 16.7816V10.3134C44.2854 9.62362 44.1091 9.0525 43.7501 8.60722L43.7491 8.60585C43.5141 8.32682 43.1456 8.12052 42.6551 7.9802C42.1754 7.8252 41.5529 7.74922 40.7914 7.74922C40.0124 7.74922 39.2981 8.01885 38.6509 8.5535C38.1334 8.96987 37.7441 9.41605 37.4866 9.89262V7.91617V7.83189H37.4021H35.9556H35.8714V7.91617V18.2488V18.3331H35.9556H37.4021H37.4866V18.2488V10.9127C37.4866 10.3966 37.8171 9.79742 38.5151 9.11297L38.5159 9.11237C39.2049 8.42337 39.9761 8.08312 40.8326 8.08312C41.2504 8.08312 41.5946 8.1504 41.8691 8.28072C42.3901 8.5614 42.6704 9.214 42.6704 10.2927V16.7816V16.7841V16.7866L42.6911 17.1378M34.5686 4.7297L34.6464 4.75955L34.6771 4.68232L34.7599 4.47567L34.7931 4.39267L34.7084 4.36442C33.2951 3.89337 31.9016 3.65747 30.5279 3.65747C29.1661 3.65747 28.1294 3.97687 27.4326 4.6306C26.7386 5.26812 26.3931 6.10429 26.3931 7.13089C26.3931 8.42617 26.9304 9.43087 28.0011 10.1355C28.4736 10.455 28.9941 10.7464 29.5624 11.0098L29.5641 11.0105C30.1291 11.2586 30.6874 11.4999 31.2389 11.7342L31.2396 11.7345C31.8011 11.9674 32.3144 12.2206 32.7789 12.4939C33.8036 13.1006 34.3081 13.9357 34.3081 15.0043C34.3081 15.9833 33.9214 16.7206 33.1476 17.2276C32.3786 17.7268 31.4446 17.9786 30.3419 17.9786C29.5929 17.9786 28.8574 17.8698 28.1354 17.6518C27.4261 17.4198 26.8504 17.1278 26.4056 16.7773L26.3319 16.7193L26.2819 16.7991L26.1786 16.9643L26.1364 17.0321L26.2016 17.0781C27.4166 17.9298 28.8809 18.3538 30.5899 18.3538C31.5051 18.3538 32.3061 18.2498 32.9911 18.0401L32.9921 18.0398C33.6979 17.8141 34.2971 17.3903 34.7889 16.7721C35.2841 16.1496 35.5306 15.4003 35.5306 14.5291C35.5306 13.6528 35.3846 12.9287 35.0871 12.3617C34.7921 11.786 34.4044 11.3339 33.9229 11.0082C33.4499 10.6882 32.9289 10.4034 32.3596 10.1535C31.7931 9.9048 31.2264 9.68365 30.6596 9.49007C30.1116 9.28455 29.6054 9.06555 29.1404 8.83312C28.1156 8.29355 27.6156 7.54095 27.6156 6.57292C27.6156 5.77077 27.9149 5.14895 28.5121 4.69762C29.1124 4.24402 29.9531 4.01202 31.0446 4.01202C32.1481 4.01202 33.3229 4.25047 34.5686 4.7297ZM46.3181 9.19982L46.3179 9.20027C45.3614 10.1708 44.8884 11.531 44.8884 13.2685C44.8884 15.0046 45.3469 16.3058 46.2799 17.1541C47.2074 17.9971 48.4066 18.4158 49.8704 18.4158C51.3506 18.4158 52.5716 17.9331 53.5259 16.9651C54.4964 15.9946 54.9764 14.6343 54.9764 12.8966C54.9764 11.1605 54.5179 9.85925 53.5849 9.01107C52.6571 8.16777 51.4509 7.74922 49.9736 7.74922C48.5066 7.74922 47.2859 8.23212 46.3181 9.19982ZM47.4786 9.4545L47.4791 9.45402C48.1541 8.53602 48.9979 8.08312 50.0149 8.08312C51.0371 8.08312 51.8529 8.47152 52.4701 9.24982C53.0866 10.0271 53.4024 11.2374 53.4024 12.8966C53.4024 14.5389 53.0601 15.8141 52.3859 16.7313C51.7111 17.6356 50.8671 18.0821 49.8496 18.0821C48.8276 18.0821 48.0116 17.6936 47.3944 16.9153C46.7779 16.1378 46.4621 14.9344 46.4621 13.2892C46.4621 11.6325 46.8046 10.3578 47.4786 9.4545ZM69.0564 7.98057L68.9949 8.04212L69.0584 8.10167C69.2569 8.2877 69.3624 8.56534 69.3624 8.94944C69.3624 9.33724 69.2821 9.66665 69.1254 9.9409L69.1236 9.94407L69.1221 9.9474L66.2108 16.2518L63.1194 7.88697L63.0991 7.83189H63.0404H61.5939H61.4731L61.5146 7.94517L62.2674 9.99975L59.3911 16.2516L56.2999 7.88697L56.2794 7.83189H56.2206H54.7741H54.6529L54.6951 7.94557L58.5389 18.2783L58.5594 18.3331H58.6179H58.8246H58.8789L58.9014 18.2838L62.4539 10.4721L65.3586 18.2783L65.3789 18.3331H65.4376H65.6441H65.6984L65.7209 18.2838L69.4821 10.0176L69.4829 10.0159C69.6521 9.62102 69.7376 9.23089 69.7376 8.84612C69.7376 8.74314 69.7231 8.6345 69.6949 8.5205C69.6779 8.39367 69.6156 8.25919 69.5174 8.11827C69.4754 8.04842 69.4354 7.9902 69.3976 7.94487C69.3606 7.9003 69.3206 7.86229 69.2776 7.84079L69.2234 7.81362L69.1804 7.85657L69.0564 7.98057Z" stroke="#060612" stroke-width="0.168574"/>
<path d="M72.9387 3.93236C73.3264 3.33789 73.9554 2.87736 74.8287 2.83664L74.6462 16.9253V16.9263C74.6462 17.0538 74.6859 17.1908 74.7584 17.336C75.0977 18.0148 75.9072 18.333 77.1277 18.333H77.7682H77.8527V18.2488V18.0835V17.9993H77.7682H77.1352L76.9155 17.9593L76.9114 17.9585L76.9074 17.9583C76.7762 17.9473 76.6307 17.8585 76.4722 17.6613C76.3349 17.4603 76.2615 17.1705 76.2615 16.7815V2.77039V2.68746L76.1785 2.68611L74.9155 2.66544L74.8309 2.66406L74.8307 2.66656C73.4167 2.69204 72.3709 3.02456 71.7137 3.68174C71.0422 4.33911 70.7172 5.43486 70.7172 6.94481V7.83181H70.3677H70.2834V7.91609V8.24999V8.33429H70.3677H70.7172V18.2488V18.333H70.8017H72.2482H72.3325V18.2488V8.33429H73.8807H73.965V8.24999V7.91609V7.83181H73.8807H72.3325V6.94481C72.3325 5.52969 72.5395 4.53146 72.9382 3.93309L72.9387 3.93236ZM83.9429 13.1973C83.6609 13.1747 83.3515 13.1635 83.0147 13.1635C82.64 13.1635 82.2312 13.1843 81.7887 13.2257C80.8977 13.2811 80.1602 13.3849 79.5782 13.5383C78.9972 13.6913 78.563 13.8958 78.2862 14.1579C78.02 14.4101 77.8484 14.6505 77.7874 14.8793C77.7307 15.0918 77.702 15.292 77.702 15.4798C77.702 15.6495 77.716 15.8193 77.7442 15.9888C77.8637 16.789 78.1764 17.3995 78.6894 17.8085C79.2017 18.2168 79.9027 18.4158 80.7827 18.4158C81.5384 18.4158 82.1957 18.26 82.7514 17.945C83.2257 17.676 83.6229 17.293 83.9429 16.798V16.9263C83.9429 17.1838 84.1247 17.4665 84.4429 17.7713C84.8129 18.1548 85.4839 18.333 86.4244 18.333H87.0649H87.1492V18.2488V18.0835V17.9993H87.0649H86.4319L86.2122 17.9593L86.2082 17.9585L86.2039 17.9583C86.0729 17.9473 85.9275 17.8585 85.769 17.6613C85.6317 17.4603 85.5579 17.1705 85.5579 16.7815V9.85866C85.5579 9.39279 85.3682 8.95339 84.9995 8.54196C84.7575 8.27079 84.3927 8.07326 83.9149 7.94326C83.4369 7.81319 82.8399 7.74914 82.1259 7.74914C80.8454 7.74914 79.5867 8.03456 78.3502 8.60416L78.2667 8.64266L78.3124 8.72254L78.395 8.86719L78.4367 8.94004L78.5097 8.89876C78.8169 8.72509 79.3044 8.54816 79.9777 8.36954L79.9787 8.36924C80.6629 8.17766 81.2542 8.08304 81.754 8.08304C82.2572 8.08304 82.6579 8.15121 82.9602 8.28271L82.9632 8.28391C83.2724 8.40496 83.4754 8.54846 83.5859 8.70804C83.7059 8.88144 83.7989 9.06086 83.8652 9.24636L83.8664 9.24991L83.868 9.25334C83.9467 9.42381 83.9667 9.55504 83.9452 9.65336C83.9309 9.71014 83.9222 9.76071 83.9222 9.80181C83.9222 9.82244 83.9244 9.84579 83.9324 9.86809C83.9352 9.87526 83.9384 9.88276 83.9429 9.89019V13.1973ZM79.3582 15.9685L79.3579 15.9673C79.3444 15.8315 79.3377 15.7105 79.3377 15.6038C79.3377 15.0123 79.4922 14.5595 79.7907 14.2348C79.9359 14.077 80.1709 13.9383 80.5052 13.8235C80.8387 13.709 81.2644 13.6204 81.7842 13.5589C82.1529 13.5179 82.522 13.4974 82.8907 13.4974C83.2475 13.4974 83.5982 13.5092 83.9429 13.5329V15.9513C83.9032 16.386 83.6062 16.8553 83.0217 17.3583C82.4577 17.8418 81.8224 18.082 81.1134 18.082C80.5829 18.082 80.1794 17.9073 79.8914 17.5643C79.6007 17.218 79.4195 16.69 79.3582 15.9685ZM88.9064 2.74971V2.66544H88.8219H87.3755H87.2912V2.74971V18.2488V18.333H87.3755H88.8219H88.9064V18.2488V13.3L89.3717 12.7656L93.1334 18.2963L93.1584 18.333H93.2032H94.6497H94.8089L94.7195 18.2015L90.3132 11.7253L93.6382 7.97199L93.7625 7.83181H93.5752H93.3684H93.3307L93.3055 7.86016L88.9064 12.8191V2.74971ZM102.755 17.513L102.723 17.4385L102.648 17.4675C101.584 17.8765 100.369 18.082 98.9995 18.082C98.0487 18.082 97.2812 17.6955 96.6904 16.917C96.1142 16.1395 95.8187 14.9081 95.8187 13.2065C95.8187 12.8366 95.8365 12.479 95.8722 12.1335H103.174H103.258V12.0492V12.0488V12.0484V12.048V12.0476V12.0472V12.0468V12.0464V12.046V12.0456V12.0452V12.0448V12.0443V12.0439V12.0435V12.0431V12.0427V12.0423V12.0419V12.0415V12.0411V12.0407V12.0403V12.0399V12.0395V12.0391V12.0387V12.0383V12.0379V12.0375V12.0371V12.0367V12.0363V12.0359V12.0355V12.0351V12.0347V12.0343V12.0339V12.0335V12.033V12.0326V12.0322V12.0318V12.0314V12.031V12.0306V12.0302V12.0298V12.0294V12.029V12.0286V12.0282V12.0278V12.0274V12.027V12.0266V12.0262V12.0258V12.0254V12.025V12.0246V12.0242V12.0238V12.0234V12.023V12.0226V12.0221V12.0217V12.0213V12.0209V12.0205V12.0201V12.0197V12.0193V12.0189V12.0185V12.0181V12.0177V12.0173V12.0169V12.0165V12.0161V12.0157V12.0153V12.0149V12.0145V12.0141V12.0137V12.0133V12.0129V12.0125V12.0121V12.0117V12.0113V12.0108V12.0104V12.01V12.0096V12.0092V12.0088V12.0084V12.008V12.0076V12.0072V12.0068V12.0064V12.006V12.0056V12.0052V12.0048V12.0044V12.004V12.0036V12.0032V12.0028V12.0024V12.002V12.0016V12.0012V12.0008V12.0004V12V11.9995V11.9991V11.9987V11.9983V11.9979V11.9975V11.9971V11.9967V11.9963V11.9959V11.9955V11.9951V11.9947V11.9943V11.9939V11.9935V11.9931V11.9927V11.9923V11.9919V11.9915V11.9911V11.9907V11.9903V11.9899V11.9895V11.9891V11.9886V11.9882V11.9878V11.9874V11.987V11.9866V11.9862V11.9858V11.9854V11.985V11.9846V11.9842V11.9838V11.9834V11.983V11.9826V11.9822V11.9818V11.9814V11.981V11.9806V11.9802V11.9798V11.9794V11.979V11.9786V11.9782V11.9778V11.9773V11.9769V11.9765V11.9761V11.9757V11.9753V11.9749V11.9745V11.9741V11.9737V11.9733V11.9729V11.9725V11.9721V11.9717V11.9713V11.9709V11.9705V11.9701V11.9697V11.9693V11.9689V11.9685V11.9681V11.9677V11.9673V11.9669V11.9664V11.966V11.9656V11.9652V11.9648V11.9644V11.964V11.9636V11.9632V11.9628V11.9624V11.962V11.9616V11.9612V11.9608V11.9604V11.96V11.9596V11.9592V11.9588V11.9584V11.958V11.9576V11.9572V11.9568V11.9564V11.956V11.9556V11.9551V11.9547V11.9543V11.9539V11.9535V11.9531V11.9527V11.9523V11.9519V11.9515V11.9511V11.9507V11.9503V11.9499V11.9495V11.9491V11.9487V11.9483V11.9479V11.9475V11.9471V11.9467V11.9463V11.9459V11.9455V11.9451V11.9447V11.9443V11.9438V11.9434V11.943V11.9426V11.9422V11.9418V11.9414V11.941V11.9406V11.9402V11.9398V11.9394V11.939V11.9386V11.9382V11.9378V11.9374V11.937V11.9366V11.9362V11.9358V11.9354V11.935V11.9346V11.9342V11.9338V11.9334V11.9329V11.9325V11.9321V11.9317V11.9313V11.9309V11.9305V11.9301V11.9297V11.9293V11.9289V11.9285V11.9281V11.9277V11.9273V11.9269V11.9265V11.9261V11.9257V11.9253V11.9249V11.9245V11.9241V11.9237V11.9233V11.9229V11.9225V11.9221V11.9216V11.9212V11.9208V11.9204V11.92V11.9196V11.9192V11.9188V11.9184V11.918V11.9176V11.9172V11.9168V11.9164V11.916V11.9156V11.9152V11.9148V11.9144V11.914V11.9136V11.9132V11.9128V11.9124V11.912V11.9116V11.9112V11.9108V11.9103V11.9099V11.9095V11.9091V11.9087V11.9083V11.9079V11.9075V11.9071V11.9067V11.9063V11.9059V11.9055V11.9051V11.9047V11.9043V11.9039V11.9035V11.9031V11.9027V11.9023V11.9019V11.9015V11.9011V11.9007V11.9003V11.8999V11.8994V11.899V11.8986V11.8982V11.8978V11.8974V11.897V11.8966V11.8962V11.8958V11.8954V11.895V11.8946V11.8942V11.8938V11.8934V11.893V11.8926V11.8922V11.8918V11.8914V11.891V11.8906V11.8902V11.8898V11.8894V11.889V11.8886V11.8881V11.8877V11.8873V11.8869V11.8865V11.8861V11.8857V11.8853V11.8849V11.8845V11.8841V11.8837V11.8833V11.8829V11.8825V11.8821V11.8817V11.8813V11.8809V11.8805V11.8801V11.8797V11.8793V11.8789V11.8785V11.8781V11.8777V11.8772V11.8768V11.8764V11.876V11.8756V11.8752V11.8748V11.8744V11.874V11.8736V11.8732V11.8728V11.8724V11.872V11.8716V11.8712V11.8708V11.8704V11.87V11.8696V11.8692V11.8688V11.8684V11.868V11.8676V11.8672V11.8668V11.8664V11.8659V11.8655V11.8651V11.8647V11.8643V11.8639V11.8635V11.8631V11.8627V11.8623V11.8619V11.8615V11.8611V11.8607V11.8603V11.8599V11.8595V11.8591V11.8587V11.8583V11.8579V11.8575V11.8571V11.8567V11.8563V11.8559V11.8555V11.8551V11.8546V11.8542V11.8538V11.8534V11.853V11.8526V11.8522V11.8518V11.8514V11.851V11.8506V11.8502V11.8498V11.8494V11.849V11.8486V11.8482V11.8478V11.8474V11.847V11.8466V11.8462V11.8458V11.8454V11.845V11.8446V11.8442V11.8437V11.8433V11.8429V11.8425C103.258 10.5032 102.867 9.47806 102.072 8.78261C101.284 8.09269 100.313 7.74914 99.1649 7.74914C97.7382 7.74914 96.5585 8.23264 95.6322 9.20109C94.7037 10.1718 94.2447 11.5316 94.2447 13.2685C94.2447 15.0035 94.6819 16.3043 95.5729 17.1525C96.4589 17.9965 97.6037 18.4158 98.9995 18.4158C100.4 18.4158 101.657 18.201 102.77 17.7695L102.852 17.738L102.817 17.6578L102.755 17.513ZM100.938 9.00131C101.406 9.60041 101.659 10.5284 101.683 11.7996H95.9142C96.0847 10.6445 96.4612 9.74291 97.0372 9.08804C97.6442 8.41371 98.3252 8.08304 99.0822 8.08304C99.8407 8.08304 100.457 8.38739 100.938 9.00131Z" fill="#060612" stroke="#060612" stroke-width="0.168574"/>
<path d="M105.081 2.53296V3.07891H104.46V4.73993H103.871V3.07891H103.25V2.53296H105.081Z" fill="#060612"/>
<path d="M107.5 2.5V4.75H106.911V3.6581L106.479 4.17097H106.303L105.871 3.6581V4.75H105.282V2.5H105.49L106.391 3.45957L107.292 2.5H107.5Z" fill="#060612"/>
<path fill-rule="evenodd" clip-rule="evenodd" d="M10.1203 14.6542L10.1113 21.7499L11.6113 21.7519L11.6204 14.6231L14.3567 21.2059L15.7417 20.6302L13.0243 14.0925L18.024 19.1052L19.086 18.0457L14.0648 13.0117L20.632 15.7372L21.2067 14.3517L14.6389 11.6259H21.75V10.1259H14.656L21.213 7.41792L20.6402 6.0315L14.1114 8.72795L19.1317 3.75887L18.0767 2.69277L12.9939 7.7235L15.733 1.11737L14.3473 0.542874L11.6299 7.09685L11.6389 0.00189972L10.1389 0L10.1299 7.12947L7.3933 0.5461L6.0082 1.12185L8.72547 7.6588L3.72607 2.64668L2.66407 3.706L7.68542 8.74012L1.11817 6.0146L0.5432 7.40002L7.1114 10.1259H0V11.6259H7.09452L0.537325 14.3341L1.1099 15.7204L7.6385 13.0242L2.61822 17.9932L3.67342 19.0592L8.7559 14.0287L6.01707 20.6344L7.40268 21.2089L10.1203 14.6542Z" fill="#060612"/>
</svg>
