<svg width="99" height="25" viewBox="0 0 99 25" fill="none" xmlns="http://www.w3.org/2000/svg">
<path fill-rule="evenodd" clip-rule="evenodd" d="M24.6275 11.2949C25.1102 13.5969 24.8867 15.738 24.1069 17.5235L24.1482 17.5227C23.4798 19.3526 21.2559 23.1809 16.0201 24.2786C15.8209 24.3204 15.6222 24.3536 15.4237 24.3783C14.9242 24.4518 14.4059 24.4898 13.8712 24.4898C7.67048 24.4898 1.57387 19.3857 0.253922 13.0893C-0.374803 10.0903 0.193641 7.36163 1.63155 5.32627C2.29943 4.04064 5.80341 0.922653 8.63109 0.316785C8.70765 0.300382 8.78124 0.287525 8.85201 0.278087C9.59935 0.0960713 10.3965 0 11.2357 0C17.324 0 23.3199 5.05689 24.6275 11.2949ZM22.4962 10.7671C23.5227 15.6643 20.4786 19.6339 15.6967 19.6339C10.915 19.6339 6.20629 15.6643 5.17969 10.7671C4.15305 5.86995 7.19721 1.90005 11.979 1.90005C16.7607 1.90005 21.4694 5.86995 22.4962 10.7671ZM15.4051 16.8895C18.9444 16.8895 21.2122 14.0212 20.4704 10.4827C19.7288 6.94434 16.2582 4.07589 12.7188 4.07589C9.17948 4.07589 6.91163 6.94434 7.65341 10.4827C8.3952 14.0212 11.8657 16.8895 15.4051 16.8895ZM18.5579 10.2172C19.0232 12.4369 17.562 14.2362 15.2939 14.2362C13.026 14.2362 10.8102 12.4369 10.3449 10.2172C9.87953 7.99747 11.3408 6.19806 13.6089 6.19806C15.8768 6.19806 18.0926 7.99747 18.5579 10.2172ZM16.4783 10.2172C16.7079 11.3128 15.9867 12.2008 14.8673 12.2008C13.748 12.2008 12.6545 11.3128 12.4248 10.2172C12.1951 9.12173 12.9163 8.23365 14.0357 8.23365C15.1551 8.23365 16.2487 9.12173 16.4783 10.2172Z" fill="#060612"/>
<path d="M41.0342 17.8573C41.0342 17.9981 41.1485 18.1124 41.2893 18.1124H43.2286C43.3694 18.1124 43.4837 17.9981 43.4837 17.8573V8.5437H41.2893C41.1485 8.5437 41.0342 8.65791 41.0342 8.7988V17.8573Z" fill="#060612"/>
<path d="M41.1128 7.02839C41.3477 7.2751 41.7059 7.39844 42.1875 7.39844C42.6692 7.39844 43.0217 7.2751 43.2449 7.02839C43.4681 6.76995 43.5796 6.45275 43.5796 6.07681C43.5796 5.6774 43.4681 5.35431 43.2449 5.10763C43.0217 4.86092 42.6692 4.73755 42.1875 4.73755C41.7059 4.73755 41.3477 4.86092 41.1128 5.10763C40.8896 5.35431 40.7778 5.6774 40.7778 6.07681C40.7778 6.45275 40.8896 6.76995 41.1128 7.02839Z" fill="#060612"/>
<path fill-rule="evenodd" clip-rule="evenodd" d="M37.1731 13.6367C36.421 13.9893 35.5047 14.1653 34.4241 14.1653H32.4856V17.8577C32.4856 17.9985 32.3713 18.1128 32.2305 18.1128H30.2384C30.0976 18.1128 29.9833 17.9985 29.9833 17.8577V5.41575C29.9833 5.27485 30.0976 5.16064 30.2384 5.16064H32.2305C32.258 5.16064 32.2846 5.16501 32.3093 5.17307C32.3343 5.16501 32.3608 5.16064 32.3884 5.16064H34.4241C35.5047 5.16064 36.421 5.33687 37.1731 5.68929C37.9366 6.04174 38.5182 6.54689 38.9175 7.20478C39.317 7.8509 39.5167 8.62039 39.5167 9.51322V9.79519C39.5167 10.688 39.317 11.4634 38.9175 12.1213C38.5182 12.7674 37.9366 13.2725 37.1731 13.6367ZM35.9042 7.62769C35.5636 7.42799 35.1407 7.32812 34.6356 7.32812H32.4856V11.9979H34.6356C35.1407 11.9979 35.5636 11.898 35.9042 11.6983C36.2567 11.4986 36.521 11.2225 36.6973 10.8701C36.8853 10.5177 36.9792 10.1124 36.9792 9.65419C36.9792 9.19603 36.8853 8.79072 36.6973 8.4383C36.521 8.08585 36.2567 7.81567 35.9042 7.62769Z" fill="#060612"/>
<path d="M45.6803 18.1132C45.5395 18.1132 45.4252 17.9989 45.4252 17.8581V8.79957C45.4252 8.65867 45.5395 8.54446 45.6803 8.54446H47.1086C47.2494 8.54446 47.3637 8.65867 47.3637 8.79957V10.9024C47.4203 10.657 47.4907 10.429 47.5752 10.2185C47.8336 9.56064 48.2152 9.06724 48.7206 8.73829C49.2374 8.40936 49.8777 8.24487 50.6412 8.24487H50.7469C51.8866 8.24487 52.7499 8.61495 53.3374 9.35505C53.9247 10.0834 54.2185 11.176 54.2185 12.6327V17.8581C54.2185 17.9989 54.1042 18.1132 53.9634 18.1132H52.0241C51.8833 18.1132 51.769 17.9989 51.769 17.8581V12.4213C51.769 11.8339 51.5986 11.3581 51.2581 10.9939C50.929 10.6297 50.4708 10.4476 49.8836 10.4476C49.2844 10.4476 48.7969 10.6356 48.4208 11.0115C48.0568 11.3757 47.8747 11.8691 47.8747 12.4917V17.8581C47.8747 17.9989 47.7604 18.1132 47.6196 18.1132H45.6803Z" fill="#060612"/>
<path fill-rule="evenodd" clip-rule="evenodd" d="M63.3543 13.6367C62.6026 13.9893 61.6862 14.1653 60.6054 14.1653H58.6671V17.8577C58.6671 17.9985 58.5528 18.1128 58.412 18.1128H56.4197C56.2788 18.1128 56.1646 17.9985 56.1646 17.8577V5.41575C56.1646 5.27485 56.2788 5.16064 56.4197 5.16064H58.412C58.4393 5.16064 58.4658 5.16501 58.4908 5.17307C58.5156 5.16501 58.5421 5.16064 58.5696 5.16064H60.6054C61.6862 5.16064 62.6026 5.33687 63.3543 5.68929C64.1179 6.04174 64.6995 6.54689 65.099 7.20478C65.4985 7.8509 65.698 8.62039 65.698 9.51322V9.79519C65.698 10.688 65.4985 11.4634 65.099 12.1213C64.6995 12.7674 64.1179 13.2725 63.3543 13.6367ZM62.0857 7.62769C61.7449 7.42799 61.3219 7.32812 60.8168 7.32812H58.6671V11.9979H60.8168C61.3219 11.9979 61.7449 11.898 62.0857 11.6983C62.438 11.4986 62.7023 11.2225 62.8786 10.8701C63.0666 10.5177 63.1605 10.1124 63.1605 9.65419C63.1605 9.19603 63.0666 8.79072 62.8786 8.4383C62.7023 8.08585 62.438 7.81567 62.0857 7.62769Z" fill="#060612"/>
<path fill-rule="evenodd" clip-rule="evenodd" d="M71.1498 18.4472C70.3041 18.4472 69.558 18.3123 68.9118 18.0419C68.2659 17.7717 67.7195 17.4077 67.273 16.9495C66.8266 16.4794 66.486 15.9508 66.2511 15.3636C66.0279 14.7761 65.9161 14.1651 65.9161 13.5306V13.1607C65.9161 12.5028 66.0337 11.8802 66.2687 11.2928C66.5154 10.6937 66.8618 10.165 67.3082 9.70684C67.7664 9.23692 68.3187 8.87273 68.9649 8.61429C69.611 8.34409 70.3393 8.20898 71.1498 8.20898C71.9605 8.20898 72.6888 8.34409 73.335 8.61429C73.9812 8.87273 74.5274 9.23692 74.9738 9.70684C75.432 10.165 75.7786 10.6937 76.0136 11.2928C76.2485 11.8802 76.3659 12.5028 76.3659 13.1607V13.5306C76.3659 14.1651 76.2485 14.7761 76.0136 15.3636C75.7904 15.9508 75.4554 16.4794 75.009 16.9495C74.5626 17.4077 74.0164 17.7717 73.3702 18.0419C72.724 18.3123 71.984 18.4472 71.1498 18.4472ZM71.1498 16.3503C71.749 16.3503 72.2541 16.2209 72.6654 15.9625C73.0766 15.6924 73.3878 15.334 73.5993 14.8875C73.8108 14.4294 73.9164 13.9125 73.9164 13.337C73.9164 12.7495 73.8049 12.2326 73.5817 11.7862C73.3702 11.328 73.0531 10.9697 72.6302 10.7113C72.2189 10.4411 71.7256 10.306 71.1498 10.306C70.5743 10.306 70.0751 10.4411 69.6521 10.7113C69.2409 10.9697 68.9238 11.328 68.7006 11.7862C68.4774 12.2326 68.3656 12.7495 68.3656 13.337C68.3656 13.9125 68.4715 14.4294 68.6827 14.8875C68.9059 15.334 69.2233 15.6924 69.6345 15.9625C70.0455 16.2209 70.5508 16.3503 71.1498 16.3503Z" fill="#060612"/>
<path d="M78.0878 17.8573C78.0878 17.9981 78.2021 18.1124 78.3429 18.1124H80.2822C80.423 18.1124 80.5373 17.9981 80.5373 17.8573V8.5437H78.3429C78.2021 8.5437 78.0878 8.65791 78.0878 8.7988V17.8573Z" fill="#060612"/>
<path d="M78.1667 7.02839C78.4017 7.2751 78.7601 7.39844 79.2417 7.39844C79.7234 7.39844 80.0757 7.2751 80.2989 7.02839C80.5221 6.76995 80.6338 6.45275 80.6338 6.07681C80.6338 5.6774 80.5221 5.35431 80.2989 5.10763C80.0757 4.86092 79.7234 4.73755 79.2417 4.73755C78.7601 4.73755 78.4017 4.86092 78.1667 5.10763C77.9435 5.35431 77.832 5.6774 77.832 6.07681C77.832 6.45275 77.9435 6.76995 78.1667 7.02839Z" fill="#060612"/>
<path d="M82.7345 18.1132C82.5934 18.1132 82.4794 17.9989 82.4794 17.8581V8.79957C82.4794 8.65867 82.5934 8.54446 82.7345 8.54446H84.1625C84.3033 8.54446 84.4176 8.65867 84.4176 8.79957V10.9024C84.4745 10.657 84.5449 10.429 84.6291 10.2185C84.8875 9.56064 85.2694 9.06724 85.7745 8.73829C86.2914 8.40936 86.9317 8.24487 87.6954 8.24487H87.8011C88.9406 8.24487 89.8041 8.61495 90.3914 9.35505C90.9789 10.0834 91.2725 11.176 91.2725 12.6327V17.8581C91.2725 17.9989 91.1585 18.1132 91.0174 18.1132H89.0784C88.9373 18.1132 88.8233 17.9989 88.8233 17.8581V12.4213C88.8233 11.8339 88.6528 11.3581 88.312 10.9939C87.9832 10.6297 87.525 10.4476 86.9375 10.4476C86.3386 10.4476 85.8508 10.6356 85.475 11.0115C85.1108 11.3757 84.9286 11.8691 84.9286 12.4917V17.8581C84.9286 17.9989 84.8146 18.1132 84.6735 18.1132H82.7345Z" fill="#060612"/>
<path d="M94.9982 17.901C95.5737 18.1243 96.3022 18.2357 97.1834 18.2357H98.3028C98.4436 18.2357 98.5579 18.1215 98.5579 17.9806V16.3939C98.5579 16.2531 98.4436 16.1388 98.3028 16.1388H97.0599C96.59 16.1388 96.2257 16.0153 95.9673 15.7687C95.7206 15.5102 95.5974 15.1462 95.5974 14.6763L95.6058 10.3412H98.3028C98.4436 10.3412 98.5579 10.227 98.5579 10.0861V8.79891C98.5579 8.65801 98.4436 8.5438 98.3028 8.5438H95.6094L95.6145 6.10327C95.6147 5.96217 95.5005 5.84766 95.3594 5.84766H93.5788C93.438 5.84766 93.3239 5.96156 93.3237 6.10225L93.3186 8.5438H92.0461C91.9053 8.5438 91.791 8.65801 91.791 8.79891V10.0861C91.791 10.227 91.9053 10.3412 92.0461 10.3412H93.315L93.3063 14.5176C93.3063 15.4457 93.4474 16.1857 93.7293 16.738C94.0114 17.2783 94.4341 17.6661 94.9982 17.901Z" fill="#060612"/>
</svg>
