<svg width="68" height="22" viewBox="0 0 68 22" fill="none" xmlns="http://www.w3.org/2000/svg">
<path d="M12.8707 16.2635C12.9756 17.517 12.5514 18.8071 11.5964 19.7705C10.6413 20.7342 9.35509 21.1697 8.10057 21.0757C7.99562 19.8222 8.41983 18.5321 9.37488 17.5687C10.3299 16.6052 11.6162 16.1696 12.8707 16.2635Z" fill="#060612"/>
<path d="M10.5983 14.5211C9.34625 15.86 7.53756 16.6627 5.56289 16.5725C3.58842 16.4823 1.86058 15.5183 0.73584 14.0712C1.98784 12.7323 3.79653 11.9296 5.7712 12.0198C7.74567 12.11 9.47351 13.074 10.5983 14.5211Z" fill="#060612"/>
<path d="M0 10.2122C0.261536 7.0771 1.84326 4.07186 4.59841 2.09228C7.35346 0.11281 10.7062 -0.427428 13.7608 0.324863C13.4993 3.45996 11.9175 6.46524 9.16236 8.44478C6.40731 10.4243 3.0546 10.9645 0 10.2122Z" fill="#060612"/>
<path d="M50.7864 6.36749V8.2766H51.9318V18.2572H53.9681V8.2766H56.6409V6.36749H53.9681V4.41398C53.9681 3.85393 54.019 3.40429 54.1209 3.06484C54.2227 2.72545 54.3586 2.48791 54.5281 2.3521C54.7148 2.19941 54.9355 2.12307 55.1901 2.12307C55.3935 2.12307 55.6057 2.16548 55.8264 2.25027C56.064 2.31819 56.2674 2.49634 56.4372 2.78484L57.5572 1.10487C57.4386 0.93512 57.2688 0.773928 57.0481 0.621239C56.8447 0.468471 56.5986 0.34116 56.3101 0.239359C56.0216 0.137531 55.6905 0.0866699 55.3172 0.0866699C54.6044 0.0866699 53.9935 0.239359 53.4844 0.544816C52.9925 0.833319 52.6105 1.27451 52.339 1.86847C52.0674 2.46243 51.9318 3.22603 51.9318 4.15939V6.36749H50.7864Z" fill="#060612"/>
<path d="M18.8081 2.47534V18.2572H27.9718V16.2209H20.9718V2.47534H18.8081Z" fill="#060612"/>
<path fill-rule="evenodd" clip-rule="evenodd" d="M33.3983 18.5119C34.6542 18.5119 35.7402 18.2658 36.6565 17.7737C37.5898 17.2648 38.362 16.518 38.9728 15.5338L37.3183 14.4901C36.8942 15.2028 36.3765 15.7374 35.7657 16.0937C35.1548 16.4331 34.4504 16.6028 33.6528 16.6028C32.8552 16.6028 32.1765 16.4331 31.6165 16.0937C31.0565 15.7544 30.6322 15.2622 30.3437 14.6174C30.1246 14.1273 29.9885 13.5588 29.936 12.9119H39.1511V12.6828C39.1681 12.5471 39.1765 12.4198 39.1765 12.301C39.1765 11.0622 38.9559 9.99315 38.5148 9.0937C38.0735 8.19429 37.4372 7.50703 36.6057 7.03185C35.7911 6.53977 34.8067 6.2937 33.6528 6.2937C32.4989 6.2937 31.4806 6.54822 30.5983 7.0573C29.7328 7.56642 29.0542 8.27916 28.562 9.19553C28.0867 10.1119 27.8491 11.181 27.8491 12.4028C27.8491 13.6077 28.0783 14.6683 28.5365 15.5846C29.0115 16.501 29.665 17.2224 30.4965 17.7482C31.345 18.2574 32.3122 18.5119 33.3983 18.5119ZM30.3691 10.0101C30.2065 10.3545 30.087 10.7449 30.0107 11.181H36.9506C36.9114 10.6233 36.771 10.1313 36.5291 9.70464C36.2576 9.19553 35.8759 8.79677 35.3837 8.50827C34.8918 8.21977 34.3146 8.0755 33.6528 8.0755C32.8722 8.0755 32.202 8.24522 31.642 8.58461C31.0989 8.90703 30.6746 9.3822 30.3691 10.0101Z" fill="#060612"/>
<path fill-rule="evenodd" clip-rule="evenodd" d="M47.4659 11.8376C47.1459 11.6277 46.7384 11.4428 46.2441 11.2828C45.6841 11.0792 44.9798 10.9773 44.1313 10.9773C42.6889 10.9773 41.5604 11.3252 40.7459 12.021C39.9482 12.6998 39.5496 13.6077 39.5496 14.7447C39.5496 15.5422 39.7361 16.221 40.1093 16.781C40.4828 17.3411 40.975 17.7737 41.5859 18.0791C42.2137 18.3678 42.8841 18.5119 43.5967 18.5119C44.2415 18.5119 44.8865 18.3933 45.5313 18.1556C46.1933 17.918 46.7448 17.5533 47.1859 17.0611C47.2913 16.9478 47.3845 16.8277 47.4659 16.7009V18.2574H49.5021V9.85733C49.5021 9.0937 49.3072 8.44888 48.9167 7.92281C48.5435 7.39677 48.0089 6.99791 47.3133 6.72644C46.6343 6.43794 45.8367 6.2937 44.9204 6.2937C43.8343 6.2937 42.9011 6.45492 42.1204 6.77733C41.3567 7.09974 40.7543 7.42215 40.313 7.74459L41.3059 9.24642C41.4923 9.11068 41.7472 8.94946 42.0696 8.76279C42.3919 8.57608 42.7821 8.41489 43.2404 8.27916C43.7157 8.14342 44.2415 8.0755 44.8187 8.0755C45.175 8.0755 45.5143 8.10944 45.8367 8.17733C46.1591 8.24522 46.4391 8.3555 46.6767 8.50827C46.9313 8.66096 47.1265 8.87312 47.2621 9.14459C47.398 9.39919 47.4659 9.7301 47.4659 10.1374V11.8376ZM41.9167 13.5483C41.713 13.8538 41.6113 14.2186 41.6113 14.6429C41.6113 15.0841 41.713 15.4659 41.9167 15.7883C42.1374 16.1107 42.4343 16.3568 42.8076 16.5265C43.198 16.6792 43.6391 16.7556 44.1313 16.7556C44.7591 16.7556 45.3191 16.6283 45.8113 16.3737C46.3204 16.1192 46.7191 15.7628 47.0076 15.3046C47.3133 14.8295 47.4659 14.2864 47.4659 13.6755V13.2352C47.1398 13.0765 46.8089 12.9517 46.473 12.861C45.8452 12.6744 45.175 12.581 44.4621 12.581C43.8004 12.581 43.2574 12.6659 42.833 12.8356C42.4259 13.0052 42.1204 13.2429 41.9167 13.5483Z" fill="#060612"/>
<path fill-rule="evenodd" clip-rule="evenodd" d="M65.4771 17.7737C64.5608 18.2658 63.4747 18.5119 62.2191 18.5119C61.133 18.5119 60.1655 18.2574 59.3171 17.7482C58.4855 17.2224 57.8323 16.501 57.3571 15.5846C56.8988 14.6683 56.6699 13.6077 56.6699 12.4028C56.6699 11.181 56.9075 10.1119 57.3825 9.19553C57.8747 8.27916 58.5534 7.56642 59.4188 7.0573C60.3014 6.54822 61.3195 6.2937 62.4736 6.2937C63.6275 6.2937 64.6116 6.53977 65.4262 7.03185C66.2577 7.50703 66.894 8.19429 67.3354 9.0937C67.7767 9.99315 67.9971 11.0622 67.9971 12.301C67.9971 12.4198 67.9886 12.5471 67.9716 12.6828V12.9119H58.7565C58.8093 13.5588 58.9452 14.1273 59.1645 14.6174C59.453 15.2622 59.8771 15.7544 60.4371 16.0937C60.9971 16.4331 61.676 16.6028 62.4736 16.6028C63.271 16.6028 63.9754 16.4331 64.5862 16.0937C65.1971 15.7374 65.7147 15.2028 66.1391 14.4901L67.7936 15.5338C67.1825 16.518 66.4106 17.2648 65.4771 17.7737ZM58.8315 11.181C58.9078 10.7449 59.0273 10.3545 59.1899 10.0101C59.4954 9.3822 59.9195 8.90703 60.4625 8.58461C61.0225 8.24522 61.693 8.0755 62.4736 8.0755C63.1354 8.0755 63.7123 8.21977 64.2045 8.50827C64.6964 8.79677 65.0784 9.19553 65.3499 9.70464C65.5915 10.1313 65.7322 10.6233 65.7714 11.181H58.8315Z" fill="#060612"/>
</svg>
