<svg width="67" height="18" viewBox="0 0 67 18" fill="none" xmlns="http://www.w3.org/2000/svg">
<path d="M27.116 16.4153C25.9297 16.4153 24.9184 16.1996 24.0826 15.7682C23.2601 15.3368 22.5525 14.7571 21.9594 14.0291L23.5366 12.5529C24.0355 13.1596 24.5815 13.6179 25.1746 13.928C25.7814 14.2381 26.4688 14.3931 27.2371 14.3931C28.1406 14.3931 28.8214 14.1909 29.2797 13.7865C29.7381 13.382 29.9672 12.836 29.9672 12.1485C29.9672 11.5957 29.8055 11.1576 29.4819 10.834C29.1583 10.5105 28.5854 10.2678 27.7629 10.106L26.5093 9.88359C25.1341 9.62742 24.1029 9.17582 23.4151 8.52869C22.7277 7.88158 22.3839 6.99182 22.3839 5.85936C22.3839 5.23921 22.4984 4.67973 22.7277 4.18093C22.9704 3.66862 23.3006 3.24397 23.7185 2.90694C24.15 2.55641 24.6691 2.28679 25.2758 2.09803C25.8823 1.9093 26.5633 1.81494 27.3181 1.81494C28.3832 1.81494 29.3066 2.00367 30.0886 2.38116C30.8706 2.74517 31.5378 3.27766 32.0907 3.9787L30.4929 5.39425C30.1291 4.9224 29.684 4.54494 29.1583 4.26182C28.6325 3.9787 27.9786 3.83717 27.197 3.83717C26.3881 3.83717 25.7611 3.99894 25.316 4.32249C24.8713 4.64604 24.6489 5.11789 24.6489 5.73804C24.6489 6.33121 24.8308 6.77611 25.1949 7.07271C25.559 7.3558 26.1249 7.57151 26.8936 7.71981L28.1472 7.98269C29.5629 8.25233 30.5941 8.71071 31.2414 9.35781C31.9019 10.0049 32.2321 10.8947 32.2321 12.0271C32.2321 12.6877 32.1176 13.2876 31.8883 13.8269C31.6592 14.3662 31.322 14.8313 30.8772 15.2222C30.4458 15.5997 29.9134 15.8963 29.2797 16.112C28.6461 16.3142 27.9249 16.4153 27.116 16.4153Z" fill="#060612"/>
<path d="M37.8673 16.4149C37.1125 16.4149 36.4383 16.2868 35.8452 16.0307C35.2521 15.7746 34.7532 15.4105 34.3486 14.9387C33.9443 14.4534 33.6343 13.8737 33.4186 13.1996C33.2028 12.512 33.095 11.7503 33.095 10.9145C33.095 10.0786 33.2028 9.32369 33.4186 8.6496C33.6343 7.96204 33.9443 7.38235 34.3486 6.9105C34.7532 6.42517 35.2521 6.05443 35.8452 5.79829C36.4383 5.54212 37.1125 5.41406 37.8673 5.41406C38.9188 5.41406 39.7817 5.64999 40.4558 6.12184C41.13 6.59369 41.6219 7.22058 41.9319 8.0025L40.112 8.85184C39.9636 8.36648 39.7008 7.98226 39.3234 7.69916C38.9593 7.40257 38.474 7.25427 37.8673 7.25427C37.0584 7.25427 36.445 7.51041 36.0271 8.02272C35.6228 8.52152 35.4204 9.17539 35.4204 9.98427V11.8649C35.4204 12.6738 35.6228 13.3344 36.0271 13.8467C36.445 14.3455 37.0584 14.5949 37.8673 14.5949C38.5145 14.5949 39.0266 14.4399 39.4043 14.1298C39.7953 13.8063 40.1053 13.3816 40.3344 12.8558L42.0129 13.7456C41.6624 14.6084 41.1366 15.269 40.4356 15.7274C39.7346 16.1857 38.8786 16.4149 37.8673 16.4149Z" fill="#060612"/>
<path d="M50.8054 16.1723C50.2259 16.1723 49.7808 16.0105 49.4708 15.6869C49.1608 15.3499 48.9719 14.9252 48.9045 14.4129H48.8036C48.6012 15.0735 48.2304 15.5723 47.6914 15.9094C47.152 16.2464 46.4981 16.4149 45.7297 16.4149C44.6377 16.4149 43.795 16.1318 43.2019 15.5656C42.6223 14.9994 42.3323 14.2377 42.3323 13.2805C42.3323 12.2289 42.71 11.4403 43.4648 10.9145C44.2332 10.3887 45.3523 10.1258 46.8217 10.1258H48.7226V9.23603C48.7226 8.58893 48.5474 8.09013 48.1969 7.73959C47.8464 7.38909 47.3004 7.21384 46.5589 7.21384C45.9385 7.21384 45.433 7.34863 45.042 7.61828C44.651 7.88789 44.3208 8.23169 44.0513 8.6496L42.7369 7.4565C43.0874 6.8633 43.5793 6.37798 44.2129 6.00049C44.8465 5.60953 45.6757 5.41406 46.7003 5.41406C48.0621 5.41406 49.1067 5.73088 49.8349 6.3645C50.5628 6.99813 50.9269 7.90811 50.9269 9.0945V14.3725H52.0391V16.1723H50.8054ZM46.3567 14.7365C47.0441 14.7365 47.6104 14.5882 48.0552 14.2916C48.5002 13.9815 48.7226 13.5703 48.7226 13.058V11.5414H46.8622C45.3388 11.5414 44.577 12.0132 44.577 12.9569V13.3209C44.577 13.7928 44.732 14.15 45.042 14.3927C45.3656 14.6219 45.8038 14.7365 46.3567 14.7365Z" fill="#060612"/>
<path d="M55.4331 16.1719C54.678 16.1719 54.1118 15.9832 53.7344 15.6057C53.3703 15.2148 53.1884 14.6755 53.1884 13.9879V1.20752H55.3926V14.3722H56.8484V16.1719H55.4331Z" fill="#060612"/>
<path d="M62.0689 16.4149C61.3138 16.4149 60.6397 16.2868 60.0465 16.0307C59.4534 15.7746 58.9479 15.4105 58.53 14.9387C58.1121 14.4534 57.7885 13.8737 57.5592 13.1996C57.3434 12.512 57.2358 11.7503 57.2358 10.9145C57.2358 10.0786 57.3434 9.32369 57.5592 8.6496C57.7885 7.96204 58.1121 7.38235 58.53 6.9105C58.9479 6.42517 59.4534 6.05443 60.0465 5.79829C60.6397 5.54212 61.3138 5.41406 62.0689 5.41406C62.8373 5.41406 63.5114 5.54886 64.0909 5.8185C64.6843 6.08812 65.1763 6.4656 65.5673 6.95093C65.9582 7.42278 66.248 7.97552 66.4369 8.60914C66.639 9.24277 66.7402 9.92359 66.7402 10.6516V11.4807H59.5208V11.8245C59.5208 12.6334 59.7568 13.3007 60.2287 13.8265C60.714 14.3388 61.4014 14.5949 62.2913 14.5949C62.9385 14.5949 63.4845 14.4534 63.9292 14.1702C64.374 13.8872 64.7517 13.5029 65.0617 13.0176L66.3559 14.2916C65.9649 14.9387 65.3987 15.4577 64.6572 15.8487C63.9157 16.2262 63.053 16.4149 62.0689 16.4149ZM62.0689 7.13295C61.6915 7.13295 61.3407 7.20033 61.0174 7.33516C60.707 7.46998 60.4375 7.6587 60.2085 7.90137C59.9927 8.14403 59.8241 8.43389 59.7027 8.77092C59.5815 9.10798 59.5208 9.47872 59.5208 9.88316V10.0247H64.4145V9.82249C64.4145 9.01361 64.2057 8.36648 63.7875 7.88116C63.3697 7.38235 62.7968 7.13295 62.0689 7.13295Z" fill="#060612"/>
<path d="M8.76259 0H0V17.8273H17.2232V8.46043H15.4102V16.0144H1.81295V1.81295H8.76259V0Z" fill="#060612"/>
<path d="M10.8772 1.81295H14.1278L6.04269 9.89804V6.64748H4.22974V12.9928H10.5751V11.1799H7.32477L15.4097 3.09504V6.34532H17.2227V0H10.8772V1.81295Z" fill="#060612"/>
</svg>
