<svg width="117" height="20" viewBox="0 0 117 20" fill="none" xmlns="http://www.w3.org/2000/svg">
<g clip-path="url(#clip0_594_764)">
<path d="M37.5175 2.69409V19.2871H35.5062V12.0716H26.5057V19.2871H24.4946V2.69409H26.5057V10.1107H35.5062V2.69409H37.5175Z" fill="#060612"/>
<path d="M45.3869 6.46509C48.2529 6.46509 50.5911 7.82271 50.5911 10.739V16.9237V19.4881L48.5798 19.5132V17.6528C47.6496 18.8344 45.7138 19.5384 44.1047 19.5384C41.49 19.5384 39.5793 18.4322 39.5793 16.1695C39.5793 14.4096 40.8365 13.0772 42.7973 12.4738C44.2556 12.0212 45.8393 11.8201 48.5798 11.7698V10.9905C48.5798 9.33115 47.2725 8.22495 45.3869 8.22495C43.4762 8.22495 41.9678 9.02947 41.2889 10.6133L39.8056 9.53229C40.4593 7.67187 42.4453 6.46509 45.3869 6.46509ZM41.5907 16.1695C41.5907 17.2254 42.7722 17.8539 44.2053 17.8539C46.2165 17.8539 48.5798 16.7226 48.5798 15.0633V13.3788C46.0153 13.4794 44.6076 13.6805 43.4258 14.0074C42.37 14.3091 41.5907 15.0633 41.5907 16.1695Z" fill="#060612"/>
<path d="M67.6552 6.46509C70.0688 6.46509 72.457 7.92327 72.457 11.2419V19.287H70.4459V11.443C70.4459 9.15518 69.1386 8.22496 67.4792 8.22496C65.5181 8.22496 63.7583 9.70827 63.7583 12.3984V19.287H61.747V11.443C61.747 9.15518 60.4397 8.22496 58.7803 8.22496C57.1212 8.22496 55.0597 9.45687 55.0597 12.5743V19.287H53.0483V6.71651H54.8081L54.9339 8.67749C55.839 7.14389 57.3977 6.46509 58.9563 6.46509C60.7163 6.46509 62.451 7.24447 63.2806 8.92891C64.0601 7.21931 66.0712 6.46509 67.6552 6.46509Z" fill="#060612"/>
<path d="M75.8406 4.40363C75.0108 4.40363 74.3322 3.72483 74.3322 2.89518C74.3322 2.06552 75.0108 1.38672 75.8406 1.38672C76.6702 1.38672 77.349 2.06552 77.349 2.89518C77.349 3.72483 76.6702 4.40363 75.8406 4.40363ZM74.8348 19.287V6.7166H76.8462V19.287H74.8348Z" fill="#060612"/>
<path d="M79.3606 0.934326H81.3466V19.2872H79.3606V0.934326Z" fill="#060612"/>
<path d="M86.5001 15.8173C86.5001 17.0492 87.2041 17.7028 88.3103 17.7028C89.2152 17.7028 89.9192 17.2252 90.573 16.848L91.2265 18.4068C90.4472 19.1107 89.3661 19.5381 87.9834 19.5381C86.123 19.5381 84.4887 18.6079 84.4887 16.1692V8.45097H81.9747V6.71626H84.4887V3.14624H86.5001V6.71626H91.1512V8.45097H86.5001V15.8173Z" fill="#060612"/>
<path d="M91.2195 13.052C91.2195 9.38143 94.161 6.43994 97.7562 6.43994C101.351 6.43994 104.293 9.38143 104.293 13.052C104.293 16.6974 101.351 19.4881 97.7562 19.4881C94.161 19.4881 91.2195 16.6974 91.2195 13.052ZM93.2308 13.0017C93.2308 15.5912 95.2168 17.5522 97.7562 17.5522C100.295 17.5522 102.281 15.5912 102.281 13.0017C102.281 10.4122 100.295 8.30036 97.7562 8.30036C95.2168 8.30036 93.2308 10.4122 93.2308 13.0017Z" fill="#060612"/>
<path d="M111.284 6.46509C113.974 6.46509 116.186 7.99869 116.186 11.2419V19.287H114.175V11.9458C114.175 9.15518 112.818 8.22496 111.083 8.22496C109.248 8.22496 107.186 9.38144 107.186 12.5995V19.287H105.175V6.71651H106.935L107.06 8.67749C107.94 7.09362 109.549 6.46509 111.284 6.46509Z" fill="#060612"/>
<path d="M8.91614 6.55751V0H11.2305V6.55751H8.91614Z" fill="#060612"/>
<path d="M8.25166 10.9324L0.00012207 7.6318L0.859675 5.48291L10.0733 9.16838L19.2869 5.48291L20.1465 7.6318L11.9353 10.9163L17.9279 18.5734L16.1052 19.9998L10.0996 12.326L4.44639 19.9745L2.58519 18.5988L8.25166 10.9324Z" fill="#060612"/>
</g>
<defs>
<clipPath id="clip0_594_764">
<rect width="116.222" height="20" fill="white"/>
</clipPath>
</defs>
</svg>
