<svg width="83" height="20" viewBox="0 0 83 20" fill="none" xmlns="http://www.w3.org/2000/svg">
<g clip-path="url(#clip0_594_754)">
<path d="M42.1362 3.11142C40.6516 3.97964 39.2562 5.01251 37.9498 6.21002C36.6433 7.37762 35.3664 8.57513 34.1196 9.8026C33.4069 10.4912 32.7091 11.1947 32.0262 11.9132C31.3433 12.6318 30.6604 13.3503 29.9776 14.0688C29.6211 14.4879 29.2351 14.9071 28.8196 15.3262C28.4336 15.7154 28.0476 16.1345 27.6616 16.5836C28.2851 16.4339 28.8938 16.2543 29.4876 16.0447C30.1111 15.8351 30.6753 15.6555 31.18 15.5058C31.6253 15.416 32.1004 15.2963 32.6051 15.1466C33.11 14.9969 33.6147 14.8771 34.1196 14.7873C34.6242 14.6676 35.1289 14.6077 35.6338 14.6077C36.1682 14.5777 36.658 14.6526 37.1036 14.8322C37.6676 15.0418 38.0091 15.401 38.1278 15.91C38.2169 16.2393 38.1871 16.5537 38.0387 16.853C38.5436 16.7034 39.0333 16.5387 39.5084 16.3591C40.0133 16.1794 40.4882 16.0148 40.9338 15.8651C41.7947 15.5956 42.6558 15.3262 43.5169 15.0568C44.378 14.7574 45.2538 14.5179 46.1447 14.3382C46.3822 14.2784 46.6642 14.2484 46.9909 14.2484C47.3471 14.2185 47.6589 14.2484 47.926 14.3382C48.1933 14.428 48.3862 14.5927 48.5051 14.8322C48.6536 15.0418 48.6684 15.3561 48.5496 15.7753C48.4604 16.0447 48.2824 16.2692 48.0151 16.4489C47.748 16.5986 47.4362 16.7183 47.0798 16.8081C46.7236 16.898 46.3673 16.9728 46.0109 17.0327C45.6547 17.0626 45.3727 17.1075 45.1647 17.1674C44.1553 17.4668 43.1607 17.7811 42.1807 18.1104C41.2009 18.4098 40.2211 18.7092 39.2413 19.0086C38.7364 19.1583 38.1871 19.308 37.5933 19.4577C36.9996 19.6373 36.4353 19.6672 35.9009 19.5475C35.6931 19.5175 35.4704 19.4277 35.2329 19.278C34.7282 18.8888 34.4907 18.5296 34.5202 18.2003C34.55 17.8709 34.6836 17.5416 34.9211 17.2123H34.3867C33.3178 17.3919 32.2489 17.6165 31.18 17.8859C30.3189 18.1254 29.4431 18.3948 28.5522 18.6942C27.6911 18.9936 26.8004 19.1882 25.88 19.278C25.5533 19.308 25.2269 19.2481 24.9002 19.0984C24.5736 18.9786 24.336 18.7242 24.1876 18.335C24.0689 18.0057 24.0689 17.6913 24.1876 17.3919C24.3064 17.0626 24.4696 16.7482 24.6776 16.4489C23.8164 16.9578 23 17.3919 22.228 17.7512C21.4856 18.0805 20.9215 18.32 20.5355 18.4697C19.7635 18.799 18.9322 19.1433 18.0414 19.5026C17.1507 19.8618 16.2599 20.0265 15.3692 19.9965C14.3893 19.9367 13.7955 19.6672 13.5877 19.1882C13.3798 18.7092 13.4244 18.1104 13.7213 17.3919C13.9885 16.6435 14.419 15.8501 15.0129 15.0118C15.6067 14.1436 16.2302 13.3203 16.8834 12.542C17.5664 11.7636 18.1899 11.09 18.754 10.5211C19.3182 9.92236 19.6893 9.53316 19.8674 9.35353L20.491 8.72482C19.6299 8.72482 18.7837 8.72482 17.9523 8.72482C17.121 8.72482 16.2748 8.7398 15.4137 8.76973C13.6916 8.82962 11.9843 8.91942 10.2919 9.03918C8.56976 9.129 6.84764 9.26371 5.12553 9.44336C4.502 9.53316 3.89333 9.62298 3.29949 9.7128C2.67596 9.77267 2.05244 9.87745 1.42891 10.0271C1.28045 10.0571 1.11715 10.102 0.939 10.1619C0.760849 10.2217 0.597544 10.2217 0.449087 10.1619C0.122478 10.0421 -0.0259807 9.83253 0.00371159 9.53316C0.00371159 9.20385 0.15217 8.99427 0.449087 8.90447C4.01209 7.97638 7.67902 7.39258 11.4499 7.15309C15.2207 6.88364 18.947 6.71898 22.6289 6.65909C23.4007 5.94058 24.1727 5.23704 24.9447 4.54847C25.7167 3.85989 26.5036 3.17131 27.3051 2.48273C27.6911 2.12347 28.1367 1.6744 28.6413 1.13551C29.1758 0.566687 29.7102 0.207429 30.2447 0.0577384C30.5416 -0.0320767 30.794 -0.0171077 31.0018 0.102645C31.2393 0.192459 31.4176 0.35712 31.5362 0.596624C31.6551 0.806191 31.6996 1.0457 31.67 1.31514C31.6402 1.58458 31.5213 1.82409 31.3136 2.03366C30.3931 2.81204 29.4876 3.59044 28.5969 4.36882C27.706 5.11729 26.8302 5.89567 25.9691 6.704C26.4144 6.704 26.8302 6.76389 27.2162 6.88365C27.5724 6.97345 27.8842 7.12313 28.1513 7.33271C28.4484 7.54227 28.6562 7.85662 28.7749 8.27576C28.864 8.63502 28.8196 8.94938 28.6413 9.21882C28.4631 9.45831 28.2404 9.63796 27.9733 9.75769C27.706 9.84751 27.424 9.86249 27.1271 9.8026C26.8598 9.7128 26.652 9.5182 26.5036 9.21882C26.1176 9.06911 25.6722 8.96433 25.1673 8.90447C24.6627 8.81464 24.1876 8.76973 23.7422 8.76973L23.2969 9.17391C22.0795 10.3415 20.7879 11.5989 19.4221 12.9461C18.086 14.2933 17.0319 15.7453 16.2599 17.3021C17.2991 17.0925 18.368 16.7932 19.4666 16.404C20.5652 16.0148 21.649 15.5807 22.7178 15.1017C23.7867 14.6226 24.8409 14.1137 25.88 13.5748C26.9193 13.006 27.8842 12.4222 28.7749 11.8234C29.9033 10.6558 31.0464 9.5182 32.2044 8.41049C33.392 7.27282 34.5944 6.18009 35.812 5.13224C36.5542 4.47362 37.3113 3.82996 38.0833 3.20124C38.8553 2.57253 39.6422 1.98875 40.4438 1.44986C40.7704 1.21036 41.1267 1.06067 41.5127 1.00079C41.9284 0.910976 42.2698 1.07564 42.5371 1.49477C42.6856 1.76421 42.7151 2.06359 42.6262 2.39291C42.5667 2.69229 42.4033 2.9318 42.1362 3.11142Z" fill="#060612"/>
<path d="M68.1869 16.6284C67.504 16.6883 66.8212 16.808 66.1383 16.9877C65.4849 17.1374 64.8169 17.287 64.134 17.4367C62.3525 17.8559 60.5858 18.26 58.834 18.6492C57.0823 19.0085 55.3007 19.2779 53.4896 19.4576C53.0145 19.5174 52.5096 19.5624 51.9752 19.5923C51.4705 19.6222 50.9509 19.6073 50.4165 19.5474C49.9116 19.4875 49.4218 19.3678 48.9467 19.1881C48.4716 19.0384 48.0412 18.7989 47.6552 18.4696C47.3285 18.2002 47.076 17.8858 46.898 17.5266C46.69 17.1673 46.5714 16.7931 46.5416 16.4039C46.4823 16.0147 46.512 15.6404 46.6307 15.2812C46.7496 14.892 46.9723 14.5477 47.2987 14.2483C47.5067 14.0388 47.8332 13.8741 48.2787 13.7544C48.7536 13.6047 49.2734 13.4999 49.8374 13.44C50.4016 13.3801 50.9658 13.3652 51.5298 13.3951C52.094 13.425 52.5838 13.5298 52.9996 13.7094C53.4154 13.8891 53.6974 14.1436 53.8458 14.4729C54.024 14.7722 54.0092 15.1614 53.8014 15.6404C53.6232 15.9997 53.3558 16.2542 52.9996 16.4039C52.6434 16.5536 52.2425 16.6584 51.7972 16.7182C51.3516 16.7482 50.8914 16.7482 50.4165 16.7182C49.9414 16.6584 49.5256 16.5985 49.1694 16.5386C49.288 16.6584 49.5256 16.7631 49.882 16.853C50.2383 16.9128 50.6094 16.9577 50.9954 16.9877C51.4112 17.0176 51.7823 17.0326 52.1089 17.0326C52.4652 17.0326 52.6878 17.0326 52.7769 17.0326C54.2318 16.9128 55.6718 16.7033 57.0972 16.4039C58.552 16.1045 59.992 15.7902 61.4172 15.4608C62.4565 15.2213 63.4807 14.9818 64.4903 14.7423C65.5294 14.4729 66.5687 14.2783 67.6078 14.1585C68.0534 14.1286 68.4245 14.2334 68.7214 14.4729C69.0183 14.7124 69.2112 14.9968 69.3003 15.3261C69.3894 15.6255 69.3449 15.9099 69.1667 16.1793C69.0183 16.4488 68.6916 16.5985 68.1869 16.6284Z" fill="#060612"/>
<path d="M81.629 16.6285C80.1148 16.6585 78.5708 16.7034 76.9973 16.7633C75.4235 16.7932 73.8795 16.6136 72.3653 16.2244C72.2466 16.2244 72.1277 16.1944 72.009 16.1346C71.8308 16.6435 71.5637 17.1375 71.2073 17.6165C70.8808 18.0656 70.5095 18.4548 70.0939 18.7841C69.6782 19.1134 69.2179 19.3529 68.7133 19.5026C68.2382 19.6523 67.763 19.6673 67.2879 19.5475C66.8426 19.4277 66.5159 19.2032 66.3082 18.8739C66.0706 18.5446 65.937 18.1703 65.9073 17.7512C65.8777 17.3321 65.937 16.9129 66.0855 16.4938C66.2044 16.0747 66.3824 15.7004 66.6199 15.3711C67.0059 14.8921 67.4959 14.5329 68.0897 14.2934C68.6835 14.0539 69.2773 14.0239 69.8713 14.2035C69.9306 13.7844 70.1682 13.4551 70.5837 13.2156C70.9995 12.9761 71.4448 13.006 71.9199 13.3054C72.3653 13.5748 72.8404 13.7844 73.3451 13.9341C73.8795 14.0539 74.4288 14.1287 74.993 14.1586C75.5573 14.1886 76.1064 14.2035 76.6408 14.2035C77.205 14.1736 77.7395 14.1586 78.2442 14.1586C78.8382 14.1586 79.4764 14.1287 80.1593 14.0688C80.8424 13.979 81.4657 14.0239 82.0299 14.2035C82.3566 14.3233 82.5793 14.5179 82.6979 14.7873C82.8464 15.0568 82.8911 15.3262 82.8317 15.5957C82.8019 15.8651 82.6833 16.1046 82.4753 16.3142C82.2675 16.5237 81.9855 16.6285 81.629 16.6285ZM68.3124 17.2123C68.4015 17.1225 68.5797 17.0776 68.8468 17.0776V16.6734C68.7875 16.7333 68.6984 16.8082 68.5797 16.898C68.4608 16.9579 68.3717 17.0626 68.3124 17.2123Z" fill="#060612"/>
</g>
<defs>
<clipPath id="clip0_594_754">
<rect width="82.8889" height="20" fill="white"/>
</clipPath>
</defs>
</svg>
