<svg width="213" height="83" viewBox="0 0 213 83" fill="none" xmlns="http://www.w3.org/2000/svg">
<rect width="213" height="83" rx="10" fill="white" fill-opacity="0.8"/>
<path d="M17.2349 29V19.009H20.9327C21.9095 19.009 22.6955 19.3067 23.2909 19.9021C23.8909 20.4974 24.1909 21.2951 24.1909 22.2951C24.1909 23.2998 23.884 24.0952 23.27 24.6813C22.656 25.2673 21.8374 25.5604 20.8141 25.5604H18.1349V24.151H20.7025C21.2792 24.151 21.7327 23.9905 22.063 23.6696C22.3979 23.344 22.5653 22.8975 22.5653 22.33C22.5653 21.7626 22.3979 21.3114 22.063 20.9765C21.7327 20.637 21.2932 20.4672 20.7443 20.4672H18.8396V29H17.2349ZM27.6374 29.2372C26.8421 29.2372 26.1932 29.0163 25.6909 28.5744C25.1885 28.1279 24.9374 27.5302 24.9374 26.7813C24.9374 26.0232 25.2188 25.4231 25.7816 24.9813C26.349 24.5394 27.0839 24.3185 27.9863 24.3185C28.4003 24.3185 28.7886 24.365 29.1514 24.458C29.5142 24.5464 29.8212 24.665 30.0724 24.8138V24.3603C30.0724 23.858 29.9003 23.4696 29.5561 23.1952C29.2166 22.9161 28.7747 22.7766 28.2305 22.7766C27.9328 22.7766 27.677 22.8091 27.463 22.8742C27.2491 22.9394 27.0584 23.0208 26.8909 23.1184C26.7235 23.2115 26.5583 23.3277 26.3955 23.4673C26.2328 23.6068 26.1514 23.6766 26.1514 23.6766L25.2444 22.7626C25.2444 22.7626 25.349 22.6696 25.5583 22.4835C25.7723 22.2975 26.0141 22.1277 26.2839 21.9742C26.5583 21.8207 26.8584 21.6998 27.1839 21.6114C27.5095 21.523 27.9002 21.4788 28.3561 21.4788C29.3515 21.4788 30.1422 21.7347 30.7282 22.2463C31.319 22.758 31.6143 23.465 31.6143 24.3673V29H30.1003V27.472L30.4631 28.0302H30.0584C29.8398 28.3697 29.5166 28.6558 29.0887 28.8884C28.6654 29.1209 28.1816 29.2372 27.6374 29.2372ZM28.0072 28.0302C28.5886 28.0302 29.0793 27.8279 29.4794 27.4232C29.884 27.0139 30.0864 26.5162 30.0864 25.9301V25.9022C29.8631 25.7301 29.591 25.5976 29.2701 25.5045C28.9538 25.4069 28.6258 25.358 28.2863 25.358C27.7374 25.358 27.3026 25.4766 26.9816 25.7139C26.6607 25.9464 26.5002 26.2813 26.5002 26.7185C26.5002 27.1232 26.6374 27.4441 26.9118 27.6814C27.1863 27.9139 27.5514 28.0302 28.0072 28.0302ZM33.5623 29V21.7161H35.1461V29H33.5623ZM34.3577 20.3416C34.0879 20.3416 33.8553 20.2463 33.66 20.0555C33.4646 19.8602 33.3669 19.6276 33.3669 19.3579C33.3669 19.0788 33.4646 18.8485 33.66 18.6671C33.8553 18.4857 34.0879 18.395 34.3577 18.395C34.6414 18.395 34.874 18.4857 35.0554 18.6671C35.2414 18.8485 35.3344 19.0788 35.3344 19.3579C35.3344 19.6276 35.2414 19.8602 35.0554 20.0555C34.874 20.2463 34.6414 20.3416 34.3577 20.3416ZM37.1857 29V21.7161H38.6858V23.0277L38.5044 22.8533H38.7276C38.8718 22.4533 39.1346 22.1254 39.516 21.8696C39.9021 21.6091 40.3137 21.4788 40.751 21.4788C40.8951 21.4788 41.0417 21.4928 41.1905 21.5207C41.3393 21.544 41.4766 21.5812 41.6021 21.6323C41.7277 21.6789 41.7905 21.7021 41.7905 21.7021L41.637 23.2022C41.637 23.2022 41.5673 23.1766 41.4277 23.1254C41.2928 23.0742 41.151 23.0347 41.0021 23.0068C40.8533 22.9742 40.7184 22.958 40.5975 22.958C40.0812 22.958 39.6463 23.1533 39.2928 23.544C38.9439 23.9347 38.7695 24.4603 38.7695 25.1208V29H37.1857ZM47.9039 29L45.5875 21.7161H47.1643L48.5039 26.3418L48.7202 27.1232H48.769L48.9923 26.3697L50.4295 21.7161H51.8668L53.304 26.3488L53.5343 27.1162H53.5761L53.7924 26.3557L55.139 21.7161H56.653L54.3227 29H52.8505L51.3365 24.2836L51.1272 23.544H51.0784L50.8691 24.2766L49.383 29H47.9039ZM57.8454 29V21.7161H59.4291V29H57.8454ZM58.6407 20.3416C58.371 20.3416 58.1384 20.2463 57.943 20.0555C57.7477 19.8602 57.65 19.6276 57.65 19.3579C57.65 19.0788 57.7477 18.8485 57.943 18.6671C58.1384 18.4857 58.371 18.395 58.6407 18.395C58.9245 18.395 59.157 18.4857 59.3384 18.6671C59.5245 18.8485 59.6175 19.0788 59.6175 19.3579C59.6175 19.6276 59.5245 19.8602 59.3384 20.0555C59.157 20.2463 58.9245 20.3416 58.6407 20.3416ZM64.1968 29.2372C63.5363 29.2372 63.013 29.0488 62.627 28.6721C62.2409 28.2953 62.0479 27.7604 62.0479 27.0674V19.7765H63.6316V26.8302C63.6316 27.1837 63.7061 27.4488 63.8549 27.6255C64.0038 27.7976 64.2317 27.8837 64.5387 27.8837C64.6317 27.8837 64.7317 27.8721 64.8387 27.8488C64.9456 27.8255 65.0736 27.786 65.2224 27.7302C65.3712 27.6697 65.4457 27.6395 65.4457 27.6395L65.641 28.8953C65.641 28.8953 65.5573 28.9302 65.3898 29C65.2224 29.0698 65.041 29.1256 64.8456 29.1674C64.6549 29.214 64.4386 29.2372 64.1968 29.2372ZM60.813 23.0417V21.7161H65.4736V23.0417H60.813ZM67.0967 29V18.8555H68.6735V22.7487H68.7153C68.9386 22.3812 69.2619 22.0789 69.6851 21.8416C70.1084 21.6044 70.5921 21.4858 71.1363 21.4858C71.9736 21.4858 72.6224 21.7254 73.0829 22.2044C73.548 22.6835 73.7806 23.3394 73.7806 24.1719V29H72.1968V24.5138C72.1968 23.9557 72.0596 23.5347 71.7852 23.251C71.5154 22.9673 71.1201 22.8254 70.5991 22.8254C70.0503 22.8254 69.5921 23.0254 69.2247 23.4254C68.8619 23.8254 68.6805 24.2975 68.6805 24.8417V29H67.0967ZM83.9931 19.2253L83.0791 20.53C83.2605 20.5858 83.414 20.6974 83.5396 20.8649C83.6699 21.0323 83.735 21.2323 83.735 21.4649C83.735 21.7579 83.6303 22.0091 83.421 22.2184C83.2164 22.4231 82.9582 22.5254 82.6466 22.5254C82.3396 22.5254 82.0814 22.4231 81.8721 22.2184C81.6675 22.0091 81.5651 21.7556 81.5651 21.4579C81.5651 21.2998 81.5954 21.1393 81.6558 20.9765C81.721 20.8091 81.8419 20.5974 82.0186 20.3416L83.1629 18.6602C83.1629 18.6602 83.4396 18.8485 83.9931 19.2253ZM81.3489 19.2253L80.4349 20.53C80.6163 20.5858 80.7698 20.6974 80.8954 20.8649C81.0256 21.0323 81.0907 21.2323 81.0907 21.4649C81.0907 21.7579 80.9861 22.0091 80.7767 22.2184C80.5674 22.4231 80.3093 22.5254 80.0023 22.5254C79.6953 22.5254 79.4372 22.4231 79.2279 22.2184C79.0186 22.0091 78.9139 21.7556 78.9139 21.4579C78.9139 21.2998 78.9465 21.1393 79.0116 20.9765C79.0767 20.8091 79.1953 20.5974 79.3674 20.3416L80.5186 18.6602C80.5186 18.6602 80.7953 18.8485 81.3489 19.2253ZM85.602 32.035V21.7161H87.1299V23.2091L86.7811 22.8045H87.1718C87.4043 22.4138 87.7439 22.0951 88.1904 21.8486C88.6369 21.6021 89.137 21.4788 89.6905 21.4788C90.6812 21.4788 91.5045 21.8347 92.1603 22.5463C92.8208 23.2533 93.151 24.1882 93.151 25.3511C93.151 26.5092 92.8138 27.4465 92.1394 28.1628C91.4696 28.8791 90.6556 29.2372 89.6974 29.2372C89.1253 29.2372 88.6207 29.1233 88.1834 28.8953C87.7509 28.6628 87.4323 28.3697 87.2276 28.0162H87.1857V32.035H85.602ZM89.3486 27.8837C90.0044 27.8837 90.537 27.6488 90.9463 27.179C91.3603 26.7046 91.5673 26.0929 91.5673 25.3441C91.5673 24.5906 91.3556 23.9836 90.9324 23.5231C90.5091 23.0626 89.9835 22.8324 89.3556 22.8324C88.7183 22.8324 88.1858 23.0696 87.7578 23.544C87.3346 24.0138 87.1229 24.6161 87.1229 25.3511C87.1229 26.0999 87.3299 26.7092 87.7439 27.179C88.1579 27.6488 88.6928 27.8837 89.3486 27.8837ZM94.6774 29V18.8555H96.2542V22.7487H96.2961C96.5194 22.3812 96.8426 22.0789 97.2659 21.8416C97.6892 21.6044 98.1729 21.4858 98.7171 21.4858C99.5543 21.4858 100.203 21.7254 100.664 22.2044C101.129 22.6835 101.361 23.3394 101.361 24.1719V29H99.7776V24.5138C99.7776 23.9557 99.6404 23.5347 99.366 23.251C99.0962 22.9673 98.7008 22.8254 98.1799 22.8254C97.631 22.8254 97.1729 23.0254 96.8054 23.4254C96.4426 23.8254 96.2612 24.2975 96.2612 24.8417V29H94.6774ZM106.709 29.2372C105.555 29.2372 104.616 28.8698 103.89 28.1349C103.165 27.4 102.802 26.4767 102.802 25.365C102.802 24.2347 103.167 23.3045 103.897 22.5742C104.632 21.844 105.569 21.4788 106.709 21.4788C107.849 21.4788 108.783 21.8486 109.514 22.5882C110.249 23.3231 110.616 24.2487 110.616 25.365C110.616 26.472 110.253 27.3953 109.528 28.1349C108.802 28.8698 107.863 29.2372 106.709 29.2372ZM106.709 27.8488C107.379 27.8488 107.932 27.6186 108.37 27.1581C108.811 26.693 109.032 26.0929 109.032 25.358C109.032 24.6278 108.811 24.0301 108.37 23.565C107.928 23.0998 107.374 22.8673 106.709 22.8673C106.035 22.8673 105.479 23.0998 105.041 23.565C104.604 24.0254 104.386 24.6231 104.386 25.358C104.386 26.0929 104.604 26.693 105.041 27.1581C105.479 27.6186 106.035 27.8488 106.709 27.8488ZM112.133 29V21.7161H113.64V23.0068L113.445 22.7626H113.689C113.922 22.3812 114.259 22.0719 114.701 21.8347C115.148 21.5975 115.634 21.4788 116.159 21.4788C117.001 21.4788 117.655 21.7184 118.12 22.1975C118.585 22.6766 118.817 23.3347 118.817 24.1719V29H117.234V24.5138C117.234 23.9696 117.101 23.5533 116.836 23.2649C116.575 22.9766 116.168 22.8324 115.615 22.8324C115.071 22.8324 114.617 23.0254 114.254 23.4115C113.896 23.7929 113.717 24.265 113.717 24.8278V29H112.133ZM124.046 29.2372C122.925 29.2372 122.014 28.8767 121.311 28.1558C120.609 27.4348 120.258 26.5023 120.258 25.358C120.258 24.2603 120.6 23.3394 121.284 22.5952C121.972 21.8509 122.872 21.4788 123.984 21.4788C125.044 21.4788 125.9 21.8021 126.551 22.4486C127.202 23.0952 127.528 23.9068 127.528 24.8836V25.7208H121.109V24.6603H125.993V24.6534C125.965 24.1278 125.774 23.6882 125.421 23.3347C125.067 22.9766 124.588 22.7975 123.984 22.7975C123.346 22.7975 122.825 23.0254 122.421 23.4812C122.021 23.9324 121.821 24.551 121.821 25.3371C121.821 26.1557 122.039 26.7906 122.477 27.2418C122.918 27.693 123.481 27.9186 124.165 27.9186C124.467 27.9186 124.732 27.8814 124.96 27.8069C125.193 27.7279 125.407 27.6186 125.602 27.479C125.798 27.3395 126.019 27.1162 126.265 26.8092L127.326 27.5627C127.033 28.0093 126.733 28.3418 126.426 28.5605C126.119 28.7791 125.779 28.9465 125.407 29.0628C125.035 29.1791 124.581 29.2372 124.046 29.2372ZM135.925 29.2372C134.771 29.2372 133.832 28.8698 133.106 28.1349C132.381 27.4 132.018 26.4767 132.018 25.365C132.018 24.2347 132.383 23.3045 133.113 22.5742C133.848 21.844 134.785 21.4788 135.925 21.4788C137.065 21.4788 137.999 21.8486 138.73 22.5882C139.465 23.3231 139.832 24.2487 139.832 25.365C139.832 26.472 139.469 27.3953 138.744 28.1349C138.018 28.8698 137.078 29.2372 135.925 29.2372ZM135.925 27.8488C136.595 27.8488 137.148 27.6186 137.585 27.1581C138.027 26.693 138.248 26.0929 138.248 25.358C138.248 24.6278 138.027 24.0301 137.585 23.565C137.144 23.0998 136.59 22.8673 135.925 22.8673C135.251 22.8673 134.695 23.0998 134.257 23.565C133.82 24.0254 133.602 24.6231 133.602 25.358C133.602 26.0929 133.82 26.693 134.257 27.1581C134.695 27.6186 135.251 27.8488 135.925 27.8488ZM141.828 29V20.9695C141.828 20.2579 142.047 19.6904 142.484 19.2672C142.926 18.8392 143.51 18.6253 144.235 18.6253C144.449 18.6253 144.649 18.6439 144.835 18.6811C145.026 18.7183 145.203 18.7671 145.365 18.8276C145.528 18.8834 145.61 18.9113 145.61 18.9113L145.407 20.1742C145.407 20.1742 145.347 20.1532 145.226 20.1114C145.11 20.0695 144.984 20.0369 144.849 20.0137C144.719 19.9858 144.582 19.9718 144.438 19.9718C144.126 19.9718 143.877 20.0649 143.691 20.2509C143.505 20.4323 143.412 20.6811 143.412 20.9974V22.1137V22.3789V29H141.828ZM146.74 29V20.9695C146.74 20.2579 146.959 19.6904 147.396 19.2672C147.838 18.8392 148.421 18.6253 149.147 18.6253C149.361 18.6253 149.561 18.6439 149.747 18.6811C149.938 18.7183 150.114 18.7671 150.277 18.8276C150.44 18.8834 150.521 18.9113 150.521 18.9113L150.319 20.1742C150.319 20.1742 150.259 20.1532 150.138 20.1114C150.021 20.0695 149.896 20.0369 149.761 20.0137C149.631 19.9858 149.493 19.9718 149.349 19.9718C149.038 19.9718 148.789 20.0649 148.603 20.2509C148.417 20.4323 148.324 20.6811 148.324 20.9974V22.1137V22.3789V29H146.74ZM140.53 23.0417V21.7161H142.623V23.0417H140.53ZM147.528 23.0417V21.7161H150.124V23.0417H147.528ZM142.603 23.0417V21.7161H147.528V23.0417H142.603ZM151.854 21.9533L152.761 20.6556C152.579 20.5997 152.424 20.4881 152.293 20.3207C152.168 20.1532 152.105 19.9532 152.105 19.7207C152.105 19.4276 152.21 19.1788 152.419 18.9741C152.628 18.7648 152.886 18.6602 153.193 18.6602C153.5 18.6602 153.759 18.7648 153.968 18.9741C154.177 19.1788 154.282 19.4299 154.282 19.7276C154.282 19.8858 154.249 20.0486 154.184 20.216C154.119 20.3788 154 20.5881 153.828 20.8439L152.677 22.5254C152.677 22.5254 152.403 22.3347 151.854 21.9533ZM154.498 21.9533L155.405 20.6556C155.224 20.5997 155.068 20.4881 154.938 20.3207C154.812 20.1532 154.749 19.9532 154.749 19.7207C154.749 19.4276 154.854 19.1788 155.063 18.9741C155.273 18.7648 155.531 18.6602 155.838 18.6602C156.145 18.6602 156.403 18.7648 156.612 18.9741C156.821 19.1788 156.926 19.4299 156.926 19.7276C156.926 19.8858 156.894 20.0486 156.828 20.216C156.763 20.3788 156.645 20.5881 156.473 20.8439L155.321 22.5254C155.321 22.5254 155.047 22.3347 154.498 21.9533ZM162.144 29V18.8555H163.721V22.7487H163.763C163.986 22.3812 164.309 22.0789 164.732 21.8416C165.156 21.6044 165.639 21.4858 166.184 21.4858C167.021 21.4858 167.67 21.7254 168.13 22.2044C168.595 22.6835 168.828 23.3394 168.828 24.1719V29H167.244V24.5138C167.244 23.9557 167.107 23.5347 166.833 23.251C166.563 22.9673 166.167 22.8254 165.646 22.8254C165.098 22.8254 164.639 23.0254 164.272 23.4254C163.909 23.8254 163.728 24.2975 163.728 24.8417V29H162.144ZM172.941 29.2372C172.145 29.2372 171.496 29.0163 170.994 28.5744C170.492 28.1279 170.241 27.5302 170.241 26.7813C170.241 26.0232 170.522 25.4231 171.085 24.9813C171.652 24.5394 172.387 24.3185 173.289 24.3185C173.703 24.3185 174.092 24.365 174.455 24.458C174.817 24.5464 175.124 24.665 175.376 24.8138V24.3603C175.376 23.858 175.203 23.4696 174.859 23.1952C174.52 22.9161 174.078 22.7766 173.534 22.7766C173.236 22.7766 172.98 22.8091 172.766 22.8742C172.552 22.9394 172.362 23.0208 172.194 23.1184C172.027 23.2115 171.862 23.3277 171.699 23.4673C171.536 23.6068 171.455 23.6766 171.455 23.6766L170.548 22.7626C170.548 22.7626 170.652 22.6696 170.862 22.4835C171.075 22.2975 171.317 22.1277 171.587 21.9742C171.862 21.8207 172.162 21.6998 172.487 21.6114C172.813 21.523 173.203 21.4788 173.659 21.4788C174.655 21.4788 175.445 21.7347 176.031 22.2463C176.622 22.758 176.918 23.465 176.918 24.3673V29H175.404V27.472L175.766 28.0302H175.362C175.143 28.3697 174.82 28.6558 174.392 28.8884C173.969 29.1209 173.485 29.2372 172.941 29.2372ZM173.31 28.0302C173.892 28.0302 174.383 27.8279 174.783 27.4232C175.187 27.0139 175.39 26.5162 175.39 25.9301V25.9022C175.166 25.7301 174.894 25.5976 174.573 25.5045C174.257 25.4069 173.929 25.358 173.589 25.358C173.041 25.358 172.606 25.4766 172.285 25.7139C171.964 25.9464 171.803 26.2813 171.803 26.7185C171.803 27.1232 171.941 27.4441 172.215 27.6814C172.489 27.9139 172.855 28.0302 173.31 28.0302ZM182.856 29.2372C182.312 29.2372 181.824 29.1209 181.391 28.8884C180.959 28.6558 180.621 28.3628 180.379 28.0093H179.989L180.338 27.5976V29H178.81V18.8555H180.393V22.7556H180.435C180.663 22.3928 180.993 22.0905 181.426 21.8486C181.863 21.6021 182.361 21.4788 182.919 21.4788C183.891 21.4788 184.708 21.8323 185.368 22.5393C186.028 23.2463 186.359 24.1836 186.359 25.3511C186.359 26.4953 186.024 27.4302 185.354 28.1558C184.689 28.8767 183.856 29.2372 182.856 29.2372ZM182.549 27.8837C183.196 27.8837 183.728 27.6511 184.147 27.186C184.566 26.7162 184.775 26.1046 184.775 25.3511C184.775 24.6022 184.563 23.9952 184.14 23.5301C183.721 23.0649 183.191 22.8324 182.549 22.8324C181.931 22.8324 181.405 23.0649 180.973 23.5301C180.545 23.9952 180.331 24.6045 180.331 25.358C180.331 26.1115 180.54 26.7209 180.959 27.186C181.382 27.6511 181.912 27.8837 182.549 27.8837ZM187.941 29V21.7161H189.525V29H187.941ZM188.736 20.3416C188.467 20.3416 188.234 20.2463 188.039 20.0555C187.843 19.8602 187.746 19.6276 187.746 19.3579C187.746 19.0788 187.843 18.8485 188.039 18.6671C188.234 18.4857 188.467 18.395 188.736 18.395C189.02 18.395 189.253 18.4857 189.434 18.6671C189.62 18.8485 189.713 19.0788 189.713 19.3579C189.713 19.6276 189.62 19.8602 189.434 20.0555C189.253 20.2463 189.02 20.3416 188.736 20.3416ZM194.292 29.2372C193.632 29.2372 193.109 29.0488 192.723 28.6721C192.337 28.2953 192.143 27.7604 192.143 27.0674V19.7765H193.727V26.8302C193.727 27.1837 193.802 27.4488 193.951 27.6255C194.099 27.7976 194.327 27.8837 194.634 27.8837C194.727 27.8837 194.827 27.8721 194.934 27.8488C195.041 27.8255 195.169 27.786 195.318 27.7302C195.467 27.6697 195.541 27.6395 195.541 27.6395L195.737 28.8953C195.737 28.8953 195.653 28.9302 195.485 29C195.318 29.0698 195.137 29.1256 194.941 29.1674C194.751 29.214 194.534 29.2372 194.292 29.2372ZM190.909 23.0417V21.7161H195.569V23.0417H190.909Z" fill="#131515"/>
<rect x="16" y="41" width="104" height="26" rx="13" fill="#131515" fill-opacity="0.2"/>
<path d="M34.7187 58V50.7882H36.0102V58H34.7187ZM32.3582 51.4176V50.2292H38.3707V51.4176H32.3582ZM38.9247 58V52.2479H40.124V53.2627L39.9992 53.1324H40.162C40.2778 52.8177 40.4822 52.5608 40.7752 52.3618C41.0682 52.1593 41.3902 52.058 41.7411 52.058C41.8641 52.058 41.9889 52.0706 42.1155 52.0959C42.2422 52.1177 42.3597 52.152 42.4683 52.1991C42.5768 52.2461 42.6311 52.2696 42.6311 52.2696L42.414 53.4309C42.414 53.4309 42.3633 53.4092 42.2621 53.3658C42.1644 53.3223 42.0595 53.288 41.9473 53.2627C41.8352 53.2373 41.7303 53.2247 41.6326 53.2247C41.2274 53.2247 40.8855 53.3766 40.607 53.6805C40.332 53.9844 40.1946 54.4203 40.1946 54.9883V58H38.9247ZM44.0293 60.3768L45.5216 57.2891L45.5325 58.0163L43.0254 52.2479H44.3549L45.755 55.7751L45.9503 56.3395H45.9829L46.1891 55.7697L47.6217 52.2479H48.9132L45.3263 60.3768H44.0293ZM54.787 58.1845C54.2625 58.1845 53.8483 58.038 53.5444 57.745C53.2441 57.4483 53.094 57.025 53.094 56.4751V50.7665H54.3638V56.3341C54.3638 56.5873 54.4199 56.779 54.532 56.9093C54.6442 57.0395 54.8214 57.1046 55.0638 57.1046C55.1434 57.1046 55.2284 57.0938 55.3188 57.0721C55.4129 57.0504 55.5178 57.0142 55.6336 56.9635C55.753 56.9093 55.8127 56.8821 55.8127 56.8821L56.0731 57.8372C56.0731 57.8372 56.0008 57.8734 55.8561 57.9457C55.715 58.0145 55.5558 58.0705 55.3785 58.114C55.2049 58.161 55.0077 58.1845 54.787 58.1845ZM52.0955 53.3115V52.2479H55.8615V53.3115H52.0955ZM57.2498 58V50.0176H58.5196V53.0402H58.5522C58.7367 52.758 58.9954 52.5246 59.3282 52.3401C59.6646 52.1556 60.0626 52.0634 60.522 52.0634C61.1804 52.0634 61.6905 52.2461 62.0523 52.6115C62.4177 52.9769 62.6004 53.4797 62.6004 54.12V58H61.3306V54.4185C61.3306 53.9808 61.2239 53.657 61.0104 53.4472C60.797 53.2337 60.484 53.127 60.0716 53.127C59.6158 53.127 59.2432 53.2771 58.9538 53.5774C58.6644 53.8777 58.5196 54.2376 58.5196 54.6573V58H57.2498ZM64.2403 58V52.2479H65.5101V58H64.2403ZM64.8861 51.168C64.6654 51.168 64.4773 51.0902 64.3217 50.9347C64.1661 50.7791 64.0884 50.5928 64.0884 50.3757C64.0884 50.1551 64.1661 49.9724 64.3217 49.8277C64.4773 49.6793 64.6654 49.6052 64.8861 49.6052C65.1103 49.6052 65.2949 49.6793 65.4396 49.8277C65.5879 49.9724 65.662 50.1569 65.662 50.3812C65.662 50.5946 65.5879 50.7791 65.4396 50.9347C65.2949 51.0902 65.1103 51.168 64.8861 51.168ZM69.2093 58.1899C68.8005 58.1899 68.4496 58.1375 68.1565 58.0326C67.8635 57.9313 67.6085 57.7884 67.3914 57.6039C67.1743 57.4157 67.0079 57.224 66.8922 57.0287C66.78 56.8333 66.7239 56.7356 66.7239 56.7356L67.6193 56.1875C67.6193 56.1875 67.6645 56.2617 67.755 56.41C67.849 56.5547 67.9648 56.6886 68.1023 56.8116C68.2434 56.931 68.4062 57.0232 68.5907 57.0883C68.7788 57.1498 68.9922 57.1806 69.231 57.1806C69.5638 57.1806 69.8297 57.1137 70.0287 56.9798C70.2313 56.846 70.3326 56.6651 70.3326 56.4372C70.3326 56.2092 70.2367 56.0338 70.045 55.9108C69.8532 55.7842 69.5023 55.6576 68.9922 55.5309C68.2398 55.3464 67.7152 55.1149 67.4185 54.8363C67.1255 54.5542 66.979 54.1833 66.979 53.7239C66.979 53.2283 67.1834 52.8267 67.5922 52.5192C68.0046 52.2117 68.5274 52.058 69.1605 52.058C69.4824 52.058 69.7682 52.0923 70.0178 52.1611C70.2675 52.2298 70.4936 52.3311 70.6962 52.465C70.8987 52.5988 71.0597 52.7417 71.1791 52.8936C71.3021 53.042 71.3636 53.1161 71.3636 53.1161L70.5062 53.7076C70.5062 53.7076 70.461 53.657 70.3706 53.5557C70.2801 53.4544 70.1752 53.3658 70.0558 53.2898C69.9364 53.2138 69.8044 53.1577 69.6597 53.1216C69.515 53.0854 69.3486 53.0673 69.1605 53.0673C68.853 53.0673 68.6069 53.1288 68.4224 53.2518C68.2416 53.3712 68.1511 53.5195 68.1511 53.6968C68.1511 53.8559 68.2217 53.9952 68.3628 54.1146C68.5038 54.234 68.909 54.3841 69.5783 54.565C70.2729 54.7459 70.7703 54.9774 71.0706 55.2596C71.3745 55.5382 71.5264 55.9054 71.5264 56.3612C71.5264 56.9111 71.3075 57.3542 70.8698 57.6907C70.4357 58.0235 69.8822 58.1899 69.2093 58.1899ZM76.7414 58L74.9018 52.2479H76.1607L77.1918 55.8348L77.3871 56.5348H77.4251L77.6313 55.8457L78.7221 52.2479H79.8562L80.9632 55.8348L81.164 56.5294H81.202L81.3919 55.8348L82.4284 52.2479H83.6222L81.7935 58H80.643L79.4818 54.3914L79.2756 53.6859H79.2376L79.0368 54.3914L77.8972 58H76.7414ZM87.0838 58.1845C86.1758 58.1845 85.4396 57.9023 84.8752 57.338C84.3145 56.7736 84.0341 56.0374 84.0341 55.1294C84.0341 54.272 84.3054 53.5466 84.8481 52.9533C85.3944 52.36 86.1251 52.0634 87.0404 52.0634C87.8797 52.0634 88.5562 52.3184 89.0699 52.8285C89.5873 53.3386 89.8459 53.9844 89.8459 54.7658V55.4495H84.7233V54.5921H88.6304V54.5867C88.6123 54.1707 88.464 53.8216 88.1854 53.5394C87.9105 53.2536 87.5288 53.1107 87.0404 53.1107C86.5339 53.1107 86.1161 53.2898 85.7869 53.6479C85.4577 54.0025 85.2931 54.4927 85.2931 55.1185C85.2931 55.7733 85.4685 56.2726 85.8194 56.6162C86.1704 56.9599 86.6189 57.1318 87.1652 57.1318C87.4004 57.1318 87.6102 57.1028 87.7947 57.0449C87.9792 56.9871 88.151 56.9075 88.3102 56.8062C88.473 56.7013 88.6557 56.5348 88.8583 56.3069L89.6668 56.9581C89.4281 57.2801 89.1875 57.5225 88.9451 57.6853C88.7063 57.8444 88.4423 57.9674 88.1528 58.0543C87.8634 58.1411 87.5071 58.1845 87.0838 58.1845ZM93.8246 58.1845C92.9165 58.1845 92.1803 57.9023 91.616 57.338C91.0552 56.7736 90.7749 56.0374 90.7749 55.1294C90.7749 54.272 91.0462 53.5466 91.5888 52.9533C92.1351 52.36 92.8659 52.0634 93.7812 52.0634C94.6205 52.0634 95.297 52.3184 95.8107 52.8285C96.328 53.3386 96.5867 53.9844 96.5867 54.7658V55.4495H91.464V54.5921H95.3711V54.5867C95.353 54.1707 95.2047 53.8216 94.9261 53.5394C94.6512 53.2536 94.2695 53.1107 93.7812 53.1107C93.2747 53.1107 92.8568 53.2898 92.5276 53.6479C92.1984 54.0025 92.0338 54.4927 92.0338 55.1185C92.0338 55.7733 92.2093 56.2726 92.5602 56.6162C92.9111 56.9599 93.3597 57.1318 93.906 57.1318C94.1411 57.1318 94.3509 57.1028 94.5354 57.0449C94.7199 56.9871 94.8918 56.9075 95.051 56.8062C95.2138 56.7013 95.3964 56.5348 95.599 56.3069L96.4076 56.9581C96.1688 57.2801 95.9282 57.5225 95.6859 57.6853C95.4471 57.8444 95.183 57.9674 94.8936 58.0543C94.6042 58.1411 94.2478 58.1845 93.8246 58.1845ZM98.7203 56.6108V55.0534L101.434 52.2479H103.018L98.7203 56.6108ZM97.9063 58V50.0176H99.1761V58H97.9063ZM101.813 58L99.7296 54.8852L100.582 53.9735L103.311 58H101.813Z" fill="#131515"/>
</svg>
