<svg width="183" height="182" viewBox="0 0 183 182" fill="none" xmlns="http://www.w3.org/2000/svg">
<rect x="0.0965576" width="182.306" height="181.81" rx="20" fill="white"/>
<line y1="48.9307" x2="182.065" y2="48.9307" stroke="black" stroke-opacity="0.1"/>
<path d="M16.1265 29.0361V19.0121H18.5205L21.6215 26.6491H21.6705L24.7645 19.0121C24.7692 19.0121 24.7692 19.0121 24.7645 19.0121H27.1165V29.0361H25.2615V23.7511L25.3175 21.9731H25.2685L22.4125 29.0361H20.8515L17.9675 21.9661H17.9185L17.9815 23.7511V29.0361H16.1265ZM32.822 29.2741C31.6366 29.2741 30.6706 28.9078 29.924 28.1751C29.182 27.4378 28.811 26.5068 28.811 25.3821C28.811 24.2435 29.1843 23.3078 29.931 22.5751C30.6823 21.8425 31.646 21.4761 32.822 21.4761C33.998 21.4761 34.9616 21.8471 35.713 22.5891C36.4643 23.3265 36.84 24.2575 36.84 25.3821C36.84 26.5021 36.4666 27.4308 35.72 28.1681C34.978 28.9055 34.012 29.2741 32.822 29.2741ZM32.822 27.6571C33.4426 27.6571 33.9513 27.4471 34.348 27.0271C34.7493 26.6025 34.95 26.0541 34.95 25.3821C34.95 24.7101 34.7493 24.1618 34.348 23.7371C33.9513 23.3078 33.4426 23.0931 32.822 23.0931C32.1966 23.0931 31.6856 23.3055 31.289 23.7301C30.8923 24.1548 30.694 24.7055 30.694 25.3821C30.694 26.0541 30.8923 26.6025 31.289 27.0271C31.6856 27.4471 32.1966 27.6571 32.822 27.6571ZM38.3104 29.0361V21.7141H40.1094V23.0581L39.9134 22.8481H40.1584C40.3031 22.4468 40.5621 22.1178 40.9354 21.8611C41.3134 21.6045 41.7194 21.4761 42.1534 21.4761C42.3074 21.4761 42.4591 21.4901 42.6084 21.5181C42.7624 21.5461 42.9024 21.5858 43.0284 21.6371C43.1544 21.6885 43.2174 21.7141 43.2174 21.7141L43.0424 23.4571C43.0424 23.4571 42.9724 23.4291 42.8324 23.3731C42.6971 23.3171 42.5501 23.2728 42.3914 23.2401C42.2374 23.2028 42.0927 23.1841 41.9574 23.1841C41.4581 23.1841 41.0404 23.3685 40.7044 23.7371C40.3684 24.1011 40.2004 24.6098 40.2004 25.2631V29.0361H38.3104ZM44.4217 29.0361V21.7141H46.2277V23.0301L46.0247 22.7711H46.2767C46.5241 22.3791 46.8717 22.0665 47.3197 21.8331C47.7677 21.5951 48.2531 21.4761 48.7757 21.4761C49.6017 21.4761 50.2481 21.7165 50.7147 22.1971C51.1861 22.6778 51.4217 23.3311 51.4217 24.1571V29.0361H49.5317V24.6051C49.5317 24.0965 49.4081 23.7091 49.1607 23.4431C48.9181 23.1771 48.5471 23.0441 48.0477 23.0441C47.5484 23.0441 47.1331 23.2191 46.8017 23.5691C46.4751 23.9191 46.3117 24.3508 46.3117 24.8641V29.0361H44.4217ZM53.3438 29.0361V21.7141H55.2408V29.0361H53.3438ZM54.2958 20.4401C53.9878 20.4401 53.7241 20.3328 53.5048 20.1181C53.2854 19.8988 53.1758 19.6351 53.1758 19.3271C53.1758 19.0098 53.2854 18.7485 53.5048 18.5431C53.7241 18.3331 53.9878 18.2281 54.2958 18.2281C54.6178 18.2281 54.8838 18.3331 55.0938 18.5431C55.3038 18.7485 55.4088 19.0098 55.4088 19.3271C55.4088 19.6351 55.3038 19.8988 55.0938 20.1181C54.8838 20.3328 54.6178 20.4401 54.2958 20.4401ZM57.2323 29.0361V21.7141H59.0383V23.0301L58.8353 22.7711H59.0873C59.3346 22.3791 59.6823 22.0665 60.1303 21.8331C60.5783 21.5951 61.0636 21.4761 61.5863 21.4761C62.4123 21.4761 63.0586 21.7165 63.5253 22.1971C63.9966 22.6778 64.2323 23.3311 64.2323 24.1571V29.0361H62.3423V24.6051C62.3423 24.0965 62.2186 23.7091 61.9713 23.4431C61.7286 23.1771 61.3576 23.0441 60.8583 23.0441C60.3589 23.0441 59.9436 23.2191 59.6123 23.5691C59.2856 23.9191 59.1223 24.3508 59.1223 24.8641V29.0361H57.2323ZM69.4303 32.3261C68.917 32.3261 68.4597 32.2678 68.0583 32.1511C67.657 32.0391 67.2953 31.8735 66.9733 31.6541C66.6513 31.4348 66.3923 31.1921 66.1963 30.9261C66.005 30.6648 65.9093 30.5341 65.9093 30.5341L67.2323 29.6311C67.2323 29.6311 67.3 29.7221 67.4353 29.9041C67.5753 30.0861 67.7387 30.2471 67.9253 30.3871C68.1167 30.5271 68.3313 30.6345 68.5693 30.7091C68.8073 30.7885 69.0687 30.8281 69.3533 30.8281C70.0487 30.8281 70.5737 30.6391 70.9283 30.2611C71.2877 29.8878 71.4673 29.3721 71.4673 28.7141V27.8251H71.4253C71.1873 28.1845 70.8583 28.4691 70.4383 28.6791C70.023 28.8845 69.5517 28.9871 69.0243 28.9871C68.035 28.9871 67.2207 28.6465 66.5813 27.9651C65.9467 27.2791 65.6293 26.3668 65.6293 25.2281C65.6293 24.0988 65.9607 23.1911 66.6233 22.5051C67.2907 21.8191 68.1097 21.4761 69.0803 21.4761C69.6123 21.4761 70.086 21.5858 70.5013 21.8051C70.9167 22.0245 71.2317 22.2975 71.4463 22.6241H71.9153L71.4953 23.0931V21.7141H73.3153V28.6161C73.3153 29.7968 72.963 30.7091 72.2583 31.3531C71.5537 32.0018 70.611 32.3261 69.4303 32.3261ZM69.4933 27.4331C70.0813 27.4331 70.562 27.2301 70.9353 26.8241C71.3133 26.4181 71.5023 25.8768 71.5023 25.2001C71.5023 24.5421 71.3133 24.0148 70.9353 23.6181C70.562 23.2168 70.0837 23.0161 69.5003 23.0161C68.9217 23.0161 68.4457 23.2145 68.0723 23.6111C67.699 24.0031 67.5123 24.5375 67.5123 25.2141C67.5123 25.9235 67.699 26.4718 68.0723 26.8591C68.4503 27.2418 68.924 27.4331 69.4933 27.4331ZM82.0438 29.2811C81.4231 29.2811 80.8701 29.1925 80.3848 29.0151C79.9041 28.8378 79.4958 28.5858 79.1598 28.2591C78.8238 27.9278 78.5718 27.5825 78.4038 27.2231C78.2358 26.8638 78.1518 26.6841 78.1518 26.6841L79.7828 25.9281C79.7828 25.9281 79.8434 26.0565 79.9648 26.3131C80.0861 26.5698 80.2471 26.8008 80.4478 27.0061C80.6484 27.2115 80.8864 27.3678 81.1618 27.4751C81.4418 27.5825 81.7614 27.6361 82.1208 27.6361C82.6528 27.6361 83.0751 27.5125 83.3878 27.2651C83.7051 27.0131 83.8638 26.6841 83.8638 26.2781C83.8638 25.8861 83.6958 25.5688 83.3598 25.3261C83.0284 25.0788 82.4194 24.8221 81.5328 24.5561C80.4594 24.2388 79.6941 23.8468 79.2368 23.3801C78.7841 22.9135 78.5578 22.3255 78.5578 21.6161C78.5578 20.7855 78.8774 20.1041 79.5168 19.5721C80.1561 19.0355 80.9891 18.7671 82.0158 18.7671C82.5524 18.7671 83.0284 18.8395 83.4438 18.9841C83.8638 19.1241 84.2301 19.3318 84.5428 19.6071C84.8554 19.8778 85.0888 20.1555 85.2428 20.4401C85.4014 20.7248 85.4808 20.8671 85.4808 20.8671L83.9058 21.6021C83.9058 21.6021 83.8544 21.5205 83.7518 21.3571C83.6538 21.1891 83.5161 21.0281 83.3388 20.8741C83.1661 20.7155 82.9654 20.5965 82.7368 20.5171C82.5128 20.4331 82.2538 20.3911 81.9598 20.3911C81.4931 20.3911 81.1198 20.4938 80.8398 20.6991C80.5644 20.8998 80.4268 21.1681 80.4268 21.5041C80.4268 21.8261 80.5644 22.0921 80.8398 22.3021C81.1151 22.5121 81.7334 22.7618 82.6948 23.0511C83.7681 23.3638 84.5451 23.7745 85.0258 24.2831C85.5064 24.7918 85.7468 25.4241 85.7468 26.1801C85.7468 27.0948 85.4084 27.8415 84.7318 28.4201C84.0598 28.9941 83.1638 29.2811 82.0438 29.2811ZM90.1324 29.2741C89.4137 29.2741 88.8467 29.0781 88.4314 28.6861C88.0207 28.2941 87.8154 27.7178 87.8154 26.9571V19.7821H89.7054V26.7121C89.7054 27.0575 89.7777 27.3141 89.9224 27.4821C90.0671 27.6501 90.2911 27.7341 90.5944 27.7341C90.6924 27.7341 90.7951 27.7225 90.9024 27.6991C91.0097 27.6758 91.1357 27.6361 91.2804 27.5801C91.4297 27.5195 91.5044 27.4891 91.5044 27.4891L91.7004 28.9241C91.7004 28.9241 91.6094 28.9615 91.4274 29.0361C91.2501 29.1061 91.0564 29.1621 90.8464 29.2041C90.6411 29.2508 90.4031 29.2741 90.1324 29.2741ZM86.6114 23.2191V21.7141H91.5324V23.2191H86.6114ZM95.3256 29.2741C94.5276 29.2741 93.879 29.0548 93.3796 28.6161C92.8803 28.1775 92.6306 27.5871 92.6306 26.8451C92.6306 26.0798 92.9153 25.4755 93.4846 25.0321C94.0586 24.5888 94.8053 24.3671 95.7246 24.3671C96.126 24.3671 96.5016 24.4115 96.8516 24.5001C97.2016 24.5841 97.5026 24.6961 97.7546 24.8361V24.4021C97.7546 23.9308 97.596 23.5691 97.2786 23.3171C96.9613 23.0605 96.5436 22.9321 96.0256 22.9321C95.7316 22.9321 95.4773 22.9625 95.2626 23.0231C95.0526 23.0838 94.8566 23.1631 94.6746 23.2611C94.4973 23.3545 94.3246 23.4688 94.1566 23.6041C93.9886 23.7348 93.9046 23.8001 93.9046 23.8001L92.9456 22.7361C92.9456 22.7361 93.06 22.6451 93.2886 22.4631C93.522 22.2765 93.7833 22.1061 94.0726 21.9521C94.362 21.7981 94.6793 21.6815 95.0246 21.6021C95.3746 21.5181 95.7713 21.4761 96.2146 21.4761C97.2646 21.4761 98.0906 21.7351 98.6926 22.2531C99.2946 22.7665 99.5956 23.4851 99.5956 24.4091V29.0361H97.7966V27.5381L98.1816 28.0981H97.7476C97.5236 28.4341 97.1993 28.7141 96.7746 28.9381C96.3546 29.1621 95.8716 29.2741 95.3256 29.2741ZM95.8506 27.9511C96.4013 27.9511 96.8586 27.7621 97.2226 27.3841C97.5866 27.0061 97.771 26.5348 97.7756 25.9701V25.9421C97.5656 25.7881 97.3136 25.6691 97.0196 25.5851C96.7256 25.4965 96.42 25.4521 96.1026 25.4521C95.5986 25.4521 95.1973 25.5618 94.8986 25.7811C94.6 26.0005 94.4506 26.3155 94.4506 26.7261C94.4506 27.1135 94.5766 27.4145 94.8286 27.6291C95.0853 27.8438 95.426 27.9511 95.8506 27.9511ZM101.461 29.0361V21.7141H103.26V23.0581L103.064 22.8481H103.309C103.453 22.4468 103.712 22.1178 104.086 21.8611C104.464 21.6045 104.87 21.4761 105.304 21.4761C105.458 21.4761 105.609 21.4901 105.759 21.5181C105.913 21.5461 106.053 21.5858 106.179 21.6371C106.305 21.6885 106.368 21.7141 106.368 21.7141L106.193 23.4571C106.193 23.4571 106.123 23.4291 105.983 23.3731C105.847 23.3171 105.7 23.2728 105.542 23.2401C105.388 23.2028 105.243 23.1841 105.108 23.1841C104.608 23.1841 104.191 23.3685 103.855 23.7371C103.519 24.1011 103.351 24.6098 103.351 25.2631V29.0361H101.461ZM110.49 29.2741C109.771 29.2741 109.204 29.0781 108.789 28.6861C108.378 28.2941 108.173 27.7178 108.173 26.9571V19.7821H110.063V26.7121C110.063 27.0575 110.135 27.3141 110.28 27.4821C110.424 27.6501 110.648 27.7341 110.952 27.7341C111.05 27.7341 111.152 27.7225 111.26 27.6991C111.367 27.6758 111.493 27.6361 111.638 27.5801C111.787 27.5195 111.862 27.4891 111.862 27.4891L112.058 28.9241C112.058 28.9241 111.967 28.9615 111.785 29.0361C111.607 29.1061 111.414 29.1621 111.204 29.2041C110.998 29.2508 110.76 29.2741 110.49 29.2741ZM106.969 23.2191V21.7141H111.89V23.2191H106.969Z" fill="#131515"/>
<rect x="123.591" y="15.0361" width="42" height="19" rx="9.5" fill="#FFB509"/>
<path d="M135.221 29.2461C134.261 29.2461 133.495 29.0021 132.923 28.5141C132.355 28.0261 132.071 27.4001 132.071 26.6361C132.071 26.1161 132.219 25.6661 132.515 25.2861C132.811 24.9021 133.191 24.6321 133.655 24.4761V24.4341C133.291 24.2661 132.989 24.0261 132.749 23.7141C132.509 23.3981 132.389 23.0221 132.389 22.5861C132.389 21.8901 132.649 21.3241 133.169 20.8881C133.689 20.4521 134.373 20.2341 135.221 20.2341C136.073 20.2341 136.757 20.4521 137.273 20.8881C137.793 21.3241 138.053 21.8901 138.053 22.5861C138.053 23.0221 137.931 23.4021 137.687 23.7261C137.443 24.0461 137.143 24.2821 136.787 24.4341V24.4761C137.251 24.6321 137.631 24.8941 137.927 25.2621C138.227 25.6301 138.377 26.0861 138.377 26.6301C138.377 27.3981 138.091 28.0261 137.519 28.5141C136.947 29.0021 136.181 29.2461 135.221 29.2461ZM135.221 27.8361C135.689 27.8361 136.057 27.7121 136.325 27.4641C136.593 27.2161 136.727 26.8941 136.727 26.4981C136.727 26.1021 136.593 25.7761 136.325 25.5201C136.061 25.2601 135.693 25.1301 135.221 25.1301C134.761 25.1301 134.395 25.2561 134.123 25.5081C133.855 25.7601 133.721 26.0861 133.721 26.4861C133.721 26.8821 133.855 27.2061 134.123 27.4581C134.391 27.7101 134.757 27.8361 135.221 27.8361ZM135.221 23.9061C135.605 23.9061 135.909 23.8001 136.133 23.5881C136.361 23.3761 136.475 23.0981 136.475 22.7541C136.475 22.4101 136.361 22.1341 136.133 21.9261C135.905 21.7181 135.601 21.6141 135.221 21.6141C134.841 21.6141 134.537 21.7181 134.309 21.9261C134.081 22.1341 133.967 22.4101 133.967 22.7541C133.967 23.0981 134.081 23.3761 134.309 23.5881C134.537 23.8001 134.841 23.9061 135.221 23.9061ZM142.436 29.2401C141.892 29.2401 141.42 29.1541 141.02 28.9821C140.624 28.8101 140.29 28.5761 140.018 28.2801C139.75 27.9841 139.56 27.6861 139.448 27.3861C139.34 27.0861 139.286 26.9361 139.286 26.9361L140.75 26.4321C140.75 26.4321 140.79 26.5281 140.87 26.7201C140.954 26.9081 141.062 27.0821 141.194 27.2421C141.33 27.3981 141.494 27.5221 141.686 27.6141C141.878 27.7021 142.11 27.7461 142.382 27.7461C142.826 27.7461 143.188 27.6101 143.468 27.3381C143.748 27.0661 143.888 26.7041 143.888 26.2521C143.888 25.8081 143.75 25.4521 143.474 25.1841C143.198 24.9161 142.852 24.7821 142.436 24.7821C142.196 24.7821 141.974 24.8281 141.77 24.9201C141.566 25.0081 141.354 25.1861 141.134 25.4541L139.652 24.8481L140.204 20.4441H145.028V21.9201H141.428L141.164 23.9841L141.206 23.9961C141.422 23.8201 141.666 23.6841 141.938 23.5881C142.214 23.4881 142.524 23.4381 142.868 23.4381C143.632 23.4381 144.268 23.7021 144.776 24.2301C145.288 24.7581 145.544 25.4361 145.544 26.2641C145.544 27.1441 145.254 27.8601 144.674 28.4121C144.098 28.9641 143.352 29.2401 142.436 29.2401ZM148.359 24.6081C147.743 24.6081 147.225 24.3981 146.805 23.9781C146.385 23.5581 146.175 23.0441 146.175 22.4361C146.175 21.8241 146.385 21.3081 146.805 20.8881C147.225 20.4681 147.743 20.2581 148.359 20.2581C148.971 20.2581 149.487 20.4681 149.907 20.8881C150.327 21.3081 150.537 21.8241 150.537 22.4361C150.537 23.0441 150.327 23.5581 149.907 23.9781C149.491 24.3981 148.975 24.6081 148.359 24.6081ZM148.359 23.5041C148.651 23.5041 148.893 23.4021 149.085 23.1981C149.277 22.9941 149.373 22.7401 149.373 22.4361C149.373 22.1241 149.277 21.8681 149.085 21.6681C148.893 21.4641 148.651 21.3621 148.359 21.3621C148.071 21.3621 147.829 21.4641 147.633 21.6681C147.437 21.8721 147.339 22.1281 147.339 22.4361C147.339 22.7281 147.437 22.9801 147.633 23.1921C147.829 23.4001 148.071 23.5041 148.359 23.5041ZM147.873 28.5441L153.747 20.2821L154.677 20.9481L148.809 29.2041L147.873 28.5441ZM154.197 29.2221C153.581 29.2221 153.063 29.0121 152.643 28.5921C152.223 28.1721 152.013 27.6581 152.013 27.0501C152.013 26.4381 152.223 25.9221 152.643 25.5021C153.063 25.0821 153.581 24.8721 154.197 24.8721C154.809 24.8721 155.325 25.0821 155.745 25.5021C156.165 25.9221 156.375 26.4381 156.375 27.0501C156.375 27.6581 156.165 28.1721 155.745 28.5921C155.329 29.0121 154.813 29.2221 154.197 29.2221ZM154.197 28.1181C154.489 28.1181 154.731 28.0161 154.923 27.8121C155.115 27.6081 155.211 27.3541 155.211 27.0501C155.211 26.7381 155.115 26.4821 154.923 26.2821C154.731 26.0781 154.489 25.9761 154.197 25.9761C153.909 25.9761 153.667 26.0781 153.471 26.2821C153.275 26.4861 153.177 26.7421 153.177 27.0501C153.177 27.3421 153.275 27.5941 153.471 27.8061C153.667 28.0141 153.909 28.1181 154.197 28.1181Z" fill="#131515"/>
<circle cx="21.9155" cy="71.9976" r="7.5" fill="#3ACE15"/>
<path d="M17.9668 71.3898L19.7729 74.7794L25.8641 69.2158" stroke="#131515" stroke-width="1.5" stroke-linecap="round" stroke-linejoin="round"/>
<path d="M37.662 73.9976V65.4056H40.722C42.07 65.4056 43.14 65.7896 43.932 66.5576C44.728 67.3256 45.126 68.3716 45.126 69.6956C45.126 70.9956 44.722 72.0376 43.914 72.8216C43.11 73.6056 42.046 73.9976 40.722 73.9976H37.662ZM39.342 72.4796H40.596C41.472 72.4836 42.164 72.2496 42.672 71.7776C43.18 71.3016 43.434 70.6116 43.434 69.7076C43.434 68.7716 43.178 68.0776 42.666 67.6256C42.154 67.1696 41.466 66.9416 40.602 66.9416H39.342V72.4796ZM46.61 73.9976V67.6616H48.164V68.8076L48.008 68.6396H48.206C48.334 68.2876 48.558 68.0016 48.878 67.7816C49.198 67.5616 49.546 67.4516 49.922 67.4516C50.062 67.4516 50.2 67.4656 50.336 67.4936C50.476 67.5216 50.604 67.5616 50.72 67.6136C50.836 67.6616 50.894 67.6856 50.894 67.6856L50.672 69.1676C50.672 69.1676 50.614 69.1436 50.498 69.0956C50.386 69.0436 50.264 69.0036 50.132 68.9756C50.004 68.9436 49.88 68.9276 49.76 68.9276C49.332 68.9276 48.972 69.0856 48.68 69.4016C48.392 69.7136 48.248 70.1676 48.248 70.7636V73.9976H46.61ZM52.0015 73.9976V67.6616H53.6395V73.9976H52.0015ZM52.8355 66.5576C52.5635 66.5576 52.3315 66.4636 52.1395 66.2756C51.9475 66.0836 51.8515 65.8556 51.8515 65.5916C51.8515 65.3156 51.9475 65.0876 52.1395 64.9076C52.3315 64.7276 52.5635 64.6376 52.8355 64.6376C53.1115 64.6376 53.3395 64.7276 53.5195 64.9076C53.7035 65.0876 53.7955 65.3156 53.7955 65.5916C53.7955 65.8556 53.7035 66.0836 53.5195 66.2756C53.3395 66.4636 53.1115 66.5576 52.8355 66.5576ZM55.4342 73.9976V67.6616H57.0002V68.7956L56.8202 68.5676H57.0422C57.2622 68.2316 57.5662 67.9636 57.9542 67.7636C58.3422 67.5596 58.7722 67.4576 59.2442 67.4576C59.9602 67.4576 60.5202 67.6616 60.9242 68.0696C61.3282 68.4776 61.5302 69.0336 61.5302 69.7376V73.9976H59.8982V70.1396C59.8982 69.7116 59.7942 69.3836 59.5862 69.1556C59.3782 68.9236 59.0542 68.8076 58.6142 68.8076C58.1662 68.8076 57.7962 68.9556 57.5042 69.2516C57.2162 69.5476 57.0722 69.9176 57.0722 70.3616V73.9976H55.4342ZM64.3192 72.5936V70.6436L67.1752 67.6616H69.1852L64.3192 72.5936ZM63.2272 73.9976V65.2076H64.8652V73.9976H63.2272ZM67.5172 73.9976L65.3692 70.6916L66.4732 69.5456L69.4372 73.9976H67.5172ZM75.2714 74.2076C74.5874 74.2076 74.0254 74.0196 73.5854 73.6436C73.1494 73.2636 72.9314 72.7456 72.9314 72.0896C72.9314 71.4176 73.1774 70.8896 73.6694 70.5056C74.1654 70.1216 74.8094 69.9296 75.6014 69.9296C75.9614 69.9296 76.2914 69.9696 76.5914 70.0496C76.8954 70.1256 77.1614 70.2296 77.3894 70.3616V69.9836C77.3894 69.5676 77.2514 69.2536 76.9754 69.0416C76.7034 68.8296 76.3434 68.7236 75.8954 68.7236C75.6474 68.7236 75.4294 68.7496 75.2414 68.8016C75.0574 68.8496 74.8874 68.9136 74.7314 68.9936C74.5794 69.0696 74.4254 69.1656 74.2694 69.2816C74.1134 69.3936 74.0354 69.4496 74.0354 69.4496L73.2314 68.5076C73.2314 68.5076 73.3314 68.4316 73.5314 68.2796C73.7354 68.1236 73.9654 67.9816 74.2214 67.8536C74.4774 67.7256 74.7534 67.6276 75.0494 67.5596C75.3494 67.4876 75.6894 67.4516 76.0694 67.4516C76.9694 67.4516 77.6814 67.6756 78.2054 68.1236C78.7334 68.5676 78.9974 69.1896 78.9974 69.9896V73.9976H77.4374V72.7496L77.7314 73.1876H77.3954C77.1994 73.4796 76.9194 73.7236 76.5554 73.9196C76.1914 74.1116 75.7634 74.2076 75.2714 74.2076ZM75.7454 73.0556C76.2254 73.0556 76.6214 72.8936 76.9334 72.5696C77.2494 72.2456 77.4094 71.8496 77.4134 71.3816V71.3456C77.2294 71.1976 77.0074 71.0836 76.7474 71.0036C76.4874 70.9236 76.2154 70.8836 75.9314 70.8836C75.4994 70.8836 75.1554 70.9816 74.8994 71.1776C74.6474 71.3696 74.5214 71.6376 74.5214 71.9816C74.5214 72.3216 74.6314 72.5856 74.8514 72.7736C75.0714 72.9616 75.3694 73.0556 75.7454 73.0556ZM83.141 68.9696V67.6616H87.413V68.9696H83.141ZM84.263 73.9976V67.1336C84.263 66.4696 84.461 65.9496 84.857 65.5736C85.253 65.1936 85.783 65.0036 86.447 65.0036C86.655 65.0036 86.853 65.0236 87.041 65.0636C87.233 65.1036 87.411 65.1556 87.575 65.2196C87.739 65.2836 87.821 65.3156 87.821 65.3156L87.533 66.5216C87.533 66.5216 87.485 66.5036 87.389 66.4676C87.293 66.4276 87.187 66.3956 87.071 66.3716C86.955 66.3436 86.839 66.3296 86.723 66.3296C86.463 66.3296 86.259 66.4016 86.111 66.5456C85.967 66.6896 85.895 66.8856 85.895 67.1336V68.0876V68.3216V73.9976H84.263ZM90.8309 74.2076C90.0829 74.2076 89.5069 74.0016 89.1029 73.5896C88.7029 73.1736 88.5029 72.5936 88.5029 71.8496V67.6616H90.1349V71.5136C90.1349 71.9936 90.2429 72.3456 90.4589 72.5696C90.6789 72.7896 90.9989 72.8996 91.4189 72.8996C91.8349 72.8996 92.1849 72.7516 92.4689 72.4556C92.7569 72.1556 92.9009 71.7776 92.9009 71.3216V67.6616H94.5329V73.9976H92.9849V72.3776L93.7349 73.1276H92.9429C92.7509 73.4316 92.4709 73.6876 92.1029 73.8956C91.7349 74.1036 91.3109 74.2076 90.8309 74.2076ZM96.2975 73.9976V65.2076H97.9355V73.9976H96.2975ZM99.696 73.9976V65.2076H101.334V73.9976H99.696ZM109.009 76.8296C108.569 76.8296 108.175 76.7816 107.827 76.6856C107.483 76.5936 107.171 76.4576 106.891 76.2776C106.615 76.0976 106.391 75.8996 106.219 75.6836C106.047 75.4716 105.961 75.3656 105.961 75.3656L107.035 74.5256C107.035 74.5256 107.097 74.5996 107.221 74.7476C107.349 74.8996 107.495 75.0336 107.659 75.1496C107.827 75.2696 108.015 75.3616 108.223 75.4256C108.435 75.4896 108.669 75.5216 108.925 75.5216C109.541 75.5216 110.005 75.3596 110.317 75.0356C110.633 74.7156 110.791 74.2756 110.791 73.7156V72.8816H110.749C110.553 73.1936 110.273 73.4416 109.909 73.6256C109.545 73.8096 109.129 73.9016 108.661 73.9016C107.801 73.9016 107.095 73.6076 106.543 73.0196C105.991 72.4316 105.715 71.6476 105.715 70.6676C105.715 69.7036 106.003 68.9276 106.579 68.3396C107.159 67.7516 107.865 67.4576 108.697 67.4576C109.177 67.4576 109.597 67.5556 109.957 67.7516C110.317 67.9476 110.585 68.1816 110.761 68.4536H111.163L110.803 68.8556V67.6616H112.381V73.6196C112.381 74.6356 112.073 75.4236 111.457 75.9836C110.841 76.5476 110.025 76.8296 109.009 76.8296ZM109.069 72.5696C109.581 72.5696 109.999 72.3976 110.323 72.0536C110.651 71.7056 110.815 71.2396 110.815 70.6556C110.815 70.0836 110.653 69.6276 110.329 69.2876C110.005 68.9436 109.589 68.7716 109.081 68.7716C108.577 68.7716 108.163 68.9416 107.839 69.2816C107.515 69.6176 107.353 70.0776 107.353 70.6616C107.353 71.2776 107.515 71.7496 107.839 72.0776C108.167 72.4056 108.577 72.5696 109.069 72.5696ZM114.157 73.9976V65.2076H115.795V73.9976H114.157ZM119.439 74.2076C118.755 74.2076 118.193 74.0196 117.753 73.6436C117.317 73.2636 117.099 72.7456 117.099 72.0896C117.099 71.4176 117.345 70.8896 117.837 70.5056C118.333 70.1216 118.977 69.9296 119.769 69.9296C120.129 69.9296 120.459 69.9696 120.759 70.0496C121.063 70.1256 121.329 70.2296 121.557 70.3616V69.9836C121.557 69.5676 121.419 69.2536 121.143 69.0416C120.871 68.8296 120.511 68.7236 120.063 68.7236C119.815 68.7236 119.597 68.7496 119.409 68.8016C119.225 68.8496 119.055 68.9136 118.899 68.9936C118.747 69.0696 118.593 69.1656 118.437 69.2816C118.281 69.3936 118.203 69.4496 118.203 69.4496L117.399 68.5076C117.399 68.5076 117.499 68.4316 117.699 68.2796C117.903 68.1236 118.133 67.9816 118.389 67.8536C118.645 67.7256 118.921 67.6276 119.217 67.5596C119.517 67.4876 119.857 67.4516 120.237 67.4516C121.137 67.4516 121.849 67.6756 122.373 68.1236C122.901 68.5676 123.165 69.1896 123.165 69.9896V73.9976H121.605V72.7496L121.899 73.1876H121.563C121.367 73.4796 121.087 73.7236 120.723 73.9196C120.359 74.1116 119.931 74.2076 119.439 74.2076ZM119.913 73.0556C120.393 73.0556 120.789 72.8936 121.101 72.5696C121.417 72.2456 121.577 71.8496 121.581 71.3816V71.3456C121.397 71.1976 121.175 71.0836 120.915 71.0036C120.655 70.9236 120.383 70.8836 120.099 70.8836C119.667 70.8836 119.323 70.9816 119.067 71.1776C118.815 71.3696 118.689 71.6376 118.689 71.9816C118.689 72.3216 118.799 72.5856 119.019 72.7736C119.239 72.9616 119.537 73.0556 119.913 73.0556ZM127.136 74.2076C126.68 74.2076 126.288 74.1536 125.96 74.0456C125.636 73.9376 125.35 73.7856 125.102 73.5896C124.854 73.3896 124.66 73.1856 124.52 72.9776C124.384 72.7696 124.316 72.6656 124.316 72.6656L125.384 71.9336C125.384 71.9336 125.436 72.0096 125.54 72.1616C125.648 72.3136 125.78 72.4536 125.936 72.5816C126.092 72.7056 126.272 72.8016 126.476 72.8696C126.68 72.9336 126.912 72.9656 127.172 72.9656C127.504 72.9656 127.768 72.9016 127.964 72.7736C128.164 72.6456 128.264 72.4696 128.264 72.2456C128.264 72.0296 128.168 71.8616 127.976 71.7416C127.784 71.6176 127.398 71.4876 126.818 71.3516C126.006 71.1556 125.432 70.8996 125.096 70.5836C124.764 70.2636 124.598 69.8496 124.598 69.3416C124.598 68.7776 124.834 68.3216 125.306 67.9736C125.778 67.6256 126.378 67.4516 127.106 67.4516C127.466 67.4516 127.788 67.4896 128.072 67.5656C128.36 67.6376 128.618 67.7456 128.846 67.8896C129.074 68.0336 129.26 68.1876 129.404 68.3516C129.552 68.5156 129.626 68.5976 129.626 68.5976L128.582 69.3716C128.582 69.3716 128.532 69.3196 128.432 69.2156C128.332 69.1076 128.214 69.0136 128.078 68.9336C127.942 68.8536 127.794 68.7936 127.634 68.7536C127.474 68.7136 127.296 68.6936 127.1 68.6936C126.796 68.6936 126.552 68.7516 126.368 68.8676C126.188 68.9836 126.098 69.1296 126.098 69.3056C126.098 69.4736 126.176 69.6156 126.332 69.7316C126.488 69.8476 126.914 69.9956 127.61 70.1756C128.374 70.3716 128.928 70.6256 129.272 70.9376C129.616 71.2456 129.788 71.6536 129.788 72.1616C129.788 72.7736 129.54 73.2676 129.044 73.6436C128.548 74.0196 127.912 74.2076 127.136 74.2076ZM133.347 74.2076C132.891 74.2076 132.499 74.1536 132.171 74.0456C131.847 73.9376 131.561 73.7856 131.313 73.5896C131.065 73.3896 130.871 73.1856 130.731 72.9776C130.595 72.7696 130.527 72.6656 130.527 72.6656L131.595 71.9336C131.595 71.9336 131.647 72.0096 131.751 72.1616C131.859 72.3136 131.991 72.4536 132.147 72.5816C132.303 72.7056 132.483 72.8016 132.687 72.8696C132.891 72.9336 133.123 72.9656 133.383 72.9656C133.715 72.9656 133.979 72.9016 134.175 72.7736C134.375 72.6456 134.475 72.4696 134.475 72.2456C134.475 72.0296 134.379 71.8616 134.187 71.7416C133.995 71.6176 133.609 71.4876 133.029 71.3516C132.217 71.1556 131.643 70.8996 131.307 70.5836C130.975 70.2636 130.809 69.8496 130.809 69.3416C130.809 68.7776 131.045 68.3216 131.517 67.9736C131.989 67.6256 132.589 67.4516 133.317 67.4516C133.677 67.4516 133.999 67.4896 134.283 67.5656C134.571 67.6376 134.829 67.7456 135.057 67.8896C135.285 68.0336 135.471 68.1876 135.615 68.3516C135.763 68.5156 135.837 68.5976 135.837 68.5976L134.793 69.3716C134.793 69.3716 134.743 69.3196 134.643 69.2156C134.543 69.1076 134.425 69.0136 134.289 68.9336C134.153 68.8536 134.005 68.7936 133.845 68.7536C133.685 68.7136 133.507 68.6936 133.311 68.6936C133.007 68.6936 132.763 68.7516 132.579 68.8676C132.399 68.9836 132.309 69.1296 132.309 69.3056C132.309 69.4736 132.387 69.6156 132.543 69.7316C132.699 69.8476 133.125 69.9956 133.821 70.1756C134.585 70.3716 135.139 70.6256 135.483 70.9376C135.827 71.2456 135.999 71.6536 135.999 72.1616C135.999 72.7736 135.751 73.2676 135.255 73.6436C134.759 74.0196 134.123 74.2076 133.347 74.2076ZM143.403 74.2076C142.359 74.2076 141.513 73.8896 140.865 73.2536C140.221 72.6136 139.899 71.8076 139.899 70.8356C139.899 69.8516 140.225 69.0416 140.877 68.4056C141.529 67.7696 142.371 67.4516 143.403 67.4516C144.439 67.4516 145.283 67.7736 145.935 68.4176C146.587 69.0576 146.913 69.8636 146.913 70.8356C146.913 71.8036 146.589 72.6076 145.941 73.2476C145.297 73.8876 144.451 74.2076 143.403 74.2076ZM143.403 72.8036C143.951 72.8036 144.397 72.6216 144.741 72.2576C145.089 71.8936 145.263 71.4196 145.263 70.8356C145.263 70.2596 145.091 69.7876 144.747 69.4196C144.403 69.0476 143.955 68.8616 143.403 68.8616C142.847 68.8616 142.397 69.0456 142.053 69.4136C141.713 69.7816 141.543 70.2556 141.543 70.8356C141.543 71.4196 141.715 71.8936 142.059 72.2576C142.403 72.6216 142.851 72.8036 143.403 72.8036ZM147.559 68.9696V67.6616H151.831V68.9696H147.559ZM148.681 73.9976V67.1336C148.681 66.4696 148.879 65.9496 149.275 65.5736C149.671 65.1936 150.201 65.0036 150.865 65.0036C151.073 65.0036 151.271 65.0236 151.459 65.0636C151.651 65.1036 151.829 65.1556 151.993 65.2196C152.157 65.2836 152.239 65.3156 152.239 65.3156L151.951 66.5216C151.951 66.5216 151.903 66.5036 151.807 66.4676C151.711 66.4276 151.605 66.3956 151.489 66.3716C151.373 66.3436 151.257 66.3296 151.141 66.3296C150.881 66.3296 150.677 66.4016 150.529 66.5456C150.385 66.6896 150.313 66.8856 150.313 67.1336V68.0876V68.3216V73.9976H148.681ZM38.736 88.9976L36.696 82.6616H38.322L39.366 86.3636L39.57 87.1076H39.612L39.828 86.3756L40.956 82.6616H42.372L43.494 86.3636L43.71 87.1076H43.752L43.956 86.3696L45.018 82.6616H46.548L44.508 88.9976H43.056L41.85 85.2476L41.634 84.5156H41.592L41.382 85.2476L40.206 88.9976H38.736ZM49.2323 89.2076C48.5483 89.2076 47.9863 89.0196 47.5463 88.6436C47.1103 88.2636 46.8923 87.7456 46.8923 87.0896C46.8923 86.4176 47.1383 85.8896 47.6303 85.5056C48.1263 85.1216 48.7703 84.9296 49.5623 84.9296C49.9223 84.9296 50.2523 84.9696 50.5523 85.0496C50.8563 85.1256 51.1223 85.2296 51.3503 85.3616V84.9836C51.3503 84.5676 51.2123 84.2536 50.9363 84.0416C50.6643 83.8296 50.3043 83.7236 49.8563 83.7236C49.6083 83.7236 49.3903 83.7496 49.2023 83.8016C49.0183 83.8496 48.8483 83.9136 48.6923 83.9936C48.5403 84.0696 48.3863 84.1656 48.2303 84.2816C48.0743 84.3936 47.9963 84.4496 47.9963 84.4496L47.1923 83.5076C47.1923 83.5076 47.2923 83.4316 47.4923 83.2796C47.6963 83.1236 47.9263 82.9816 48.1823 82.8536C48.4383 82.7256 48.7143 82.6276 49.0103 82.5596C49.3103 82.4876 49.6503 82.4516 50.0303 82.4516C50.9303 82.4516 51.6423 82.6756 52.1663 83.1236C52.6943 83.5676 52.9583 84.1896 52.9583 84.9896V88.9976H51.3983V87.7496L51.6923 88.1876H51.3563C51.1603 88.4796 50.8803 88.7236 50.5163 88.9196C50.1523 89.1116 49.7243 89.2076 49.2323 89.2076ZM49.7063 88.0556C50.1863 88.0556 50.5823 87.8936 50.8943 87.5696C51.2103 87.2456 51.3703 86.8496 51.3743 86.3816V86.3456C51.1903 86.1976 50.9683 86.0836 50.7083 86.0036C50.4483 85.9236 50.1763 85.8836 49.8923 85.8836C49.4603 85.8836 49.1163 85.9816 48.8603 86.1776C48.6083 86.3696 48.4823 86.6376 48.4823 86.9816C48.4823 87.3216 48.5923 87.5856 48.8123 87.7736C49.0323 87.9616 49.3303 88.0556 49.7063 88.0556ZM56.9739 89.2076C56.3539 89.2076 55.8659 89.0396 55.5099 88.7036C55.1579 88.3676 54.9819 87.8696 54.9819 87.2096V81.0236H56.6139V87.0236C56.6139 87.3076 56.6759 87.5196 56.7999 87.6596C56.9239 87.7996 57.1159 87.8696 57.3759 87.8696C57.4679 87.8696 57.5619 87.8596 57.6579 87.8396C57.7579 87.8156 57.8699 87.7776 57.9939 87.7256C58.1219 87.6696 58.1859 87.6416 58.1859 87.6416L58.4319 88.8476C58.4319 88.8476 58.3519 88.8836 58.1919 88.9556C58.0319 89.0236 57.8519 89.0816 57.6519 89.1296C57.4559 89.1816 57.2299 89.2076 56.9739 89.2076ZM53.9199 83.9696V82.6616H58.2279V83.9696H53.9199ZM62.6233 89.2076C61.6073 89.2076 60.7853 88.8956 60.1573 88.2716C59.5293 87.6476 59.2153 86.8356 59.2153 85.8356C59.2153 84.8916 59.5193 84.0936 60.1273 83.4416C60.7393 82.7856 61.5573 82.4576 62.5813 82.4576C63.5133 82.4576 64.2713 82.7436 64.8553 83.3156C65.4433 83.8836 65.7373 84.5976 65.7373 85.4576V86.2256H60.0613V85.2596H64.2133V85.2536C64.1893 84.8256 64.0333 84.4696 63.7453 84.1856C63.4613 83.8976 63.0733 83.7536 62.5813 83.7536C62.0653 83.7536 61.6413 83.9356 61.3093 84.2996C60.9773 84.6636 60.8113 85.1676 60.8113 85.8116C60.8113 86.4916 60.9933 87.0116 61.3573 87.3716C61.7213 87.7316 62.1853 87.9116 62.7493 87.9116C62.9933 87.9116 63.2133 87.8816 63.4093 87.8216C63.6053 87.7616 63.7873 87.6776 63.9553 87.5696C64.1233 87.4616 64.3133 87.2896 64.5253 87.0536L65.5153 87.8636C65.2433 88.2156 64.9713 88.4816 64.6993 88.6616C64.4313 88.8376 64.1353 88.9716 63.8113 89.0636C63.4873 89.1596 63.0913 89.2076 62.6233 89.2076ZM67.0944 88.9976V82.6616H68.6484V83.8076L68.4924 83.6396H68.6904C68.8184 83.2876 69.0424 83.0016 69.3624 82.7816C69.6824 82.5616 70.0304 82.4516 70.4064 82.4516C70.5464 82.4516 70.6844 82.4656 70.8204 82.4936C70.9604 82.5216 71.0884 82.5616 71.2044 82.6136C71.3204 82.6616 71.3784 82.6856 71.3784 82.6856L71.1564 84.1676C71.1564 84.1676 71.0984 84.1436 70.9824 84.0956C70.8704 84.0436 70.7484 84.0036 70.6164 83.9756C70.4884 83.9436 70.3644 83.9276 70.2444 83.9276C69.8164 83.9276 69.4564 84.0856 69.1644 84.4016C68.8764 84.7136 68.7324 85.1676 68.7324 85.7636V88.9976H67.0944Z" fill="#131515"/>
<path d="M36.564 70.3256H152.146V71.3336H36.564V70.3256ZM36.564 85.3256H71.5704V86.3336H36.564V85.3256Z" fill="#131515"/>
<circle cx="22.4155" cy="114.498" r="7.5" fill="#3ACE15"/>
<path d="M18.4668 113.89L20.2729 117.279L26.3641 111.716" stroke="#131515" stroke-width="1.5" stroke-linecap="round" stroke-linejoin="round"/>
<path d="M37.662 118.998V110.406H40.722C42.07 110.406 43.14 110.79 43.932 111.558C44.728 112.326 45.126 113.372 45.126 114.696C45.126 115.996 44.722 117.038 43.914 117.822C43.11 118.606 42.046 118.998 40.722 118.998H37.662ZM39.342 117.48H40.596C41.472 117.484 42.164 117.25 42.672 116.778C43.18 116.302 43.434 115.612 43.434 114.708C43.434 113.772 43.178 113.078 42.666 112.626C42.154 112.17 41.466 111.942 40.602 111.942H39.342V117.48ZM49.688 119.208C48.644 119.208 47.798 118.89 47.15 118.254C46.506 117.614 46.184 116.808 46.184 115.836C46.184 114.852 46.51 114.042 47.162 113.406C47.814 112.77 48.656 112.452 49.688 112.452C50.724 112.452 51.568 112.774 52.22 113.418C52.872 114.058 53.198 114.864 53.198 115.836C53.198 116.804 52.874 117.608 52.226 118.248C51.582 118.888 50.736 119.208 49.688 119.208ZM49.688 117.804C50.236 117.804 50.682 117.622 51.026 117.258C51.374 116.894 51.548 116.42 51.548 115.836C51.548 115.26 51.376 114.788 51.032 114.42C50.688 114.048 50.24 113.862 49.688 113.862C49.132 113.862 48.682 114.046 48.338 114.414C47.998 114.782 47.828 115.256 47.828 115.836C47.828 116.42 48 116.894 48.344 117.258C48.688 117.622 49.136 117.804 49.688 117.804ZM59.4628 119.208C58.7788 119.208 58.2168 119.02 57.7768 118.644C57.3408 118.264 57.1228 117.746 57.1228 117.09C57.1228 116.418 57.3688 115.89 57.8608 115.506C58.3568 115.122 59.0008 114.93 59.7928 114.93C60.1528 114.93 60.4828 114.97 60.7828 115.05C61.0868 115.126 61.3528 115.23 61.5808 115.362V114.984C61.5808 114.568 61.4428 114.254 61.1668 114.042C60.8948 113.83 60.5348 113.724 60.0868 113.724C59.8388 113.724 59.6208 113.75 59.4328 113.802C59.2488 113.85 59.0788 113.914 58.9228 113.994C58.7708 114.07 58.6168 114.166 58.4608 114.282C58.3048 114.394 58.2268 114.45 58.2268 114.45L57.4228 113.508C57.4228 113.508 57.5228 113.432 57.7228 113.28C57.9268 113.124 58.1568 112.982 58.4128 112.854C58.6688 112.726 58.9448 112.628 59.2408 112.56C59.5408 112.488 59.8808 112.452 60.2608 112.452C61.1608 112.452 61.8728 112.676 62.3968 113.124C62.9248 113.568 63.1888 114.19 63.1888 114.99V118.998H61.6288V117.75L61.9228 118.188H61.5868C61.3908 118.48 61.1108 118.724 60.7468 118.92C60.3828 119.112 59.9548 119.208 59.4628 119.208ZM59.9368 118.056C60.4168 118.056 60.8128 117.894 61.1248 117.57C61.4408 117.246 61.6008 116.85 61.6048 116.382V116.346C61.4208 116.198 61.1988 116.084 60.9388 116.004C60.6788 115.924 60.4068 115.884 60.1228 115.884C59.6908 115.884 59.3468 115.982 59.0908 116.178C58.8388 116.37 58.7128 116.638 58.7128 116.982C58.7128 117.322 58.8228 117.586 59.0428 117.774C59.2628 117.962 59.5608 118.056 59.9368 118.056ZM70.2064 119.208C69.7504 119.208 69.3584 119.154 69.0304 119.046C68.7064 118.938 68.4204 118.786 68.1724 118.59C67.9244 118.39 67.7304 118.186 67.5904 117.978C67.4544 117.77 67.3864 117.666 67.3864 117.666L68.4544 116.934C68.4544 116.934 68.5064 117.01 68.6104 117.162C68.7184 117.314 68.8504 117.454 69.0064 117.582C69.1624 117.706 69.3424 117.802 69.5464 117.87C69.7504 117.934 69.9824 117.966 70.2424 117.966C70.5744 117.966 70.8384 117.902 71.0344 117.774C71.2344 117.646 71.3344 117.47 71.3344 117.246C71.3344 117.03 71.2384 116.862 71.0464 116.742C70.8544 116.618 70.4684 116.488 69.8884 116.352C69.0764 116.156 68.5024 115.9 68.1664 115.584C67.8344 115.264 67.6684 114.85 67.6684 114.342C67.6684 113.778 67.9044 113.322 68.3764 112.974C68.8484 112.626 69.4484 112.452 70.1764 112.452C70.5364 112.452 70.8584 112.49 71.1424 112.566C71.4304 112.638 71.6884 112.746 71.9164 112.89C72.1444 113.034 72.3304 113.188 72.4744 113.352C72.6224 113.516 72.6964 113.598 72.6964 113.598L71.6524 114.372C71.6524 114.372 71.6024 114.32 71.5024 114.216C71.4024 114.108 71.2844 114.014 71.1484 113.934C71.0124 113.854 70.8644 113.794 70.7044 113.754C70.5444 113.714 70.3664 113.694 70.1704 113.694C69.8664 113.694 69.6224 113.752 69.4384 113.868C69.2584 113.984 69.1684 114.13 69.1684 114.306C69.1684 114.474 69.2464 114.616 69.4024 114.732C69.5584 114.848 69.9844 114.996 70.6804 115.176C71.4444 115.372 71.9984 115.626 72.3424 115.938C72.6864 116.246 72.8584 116.654 72.8584 117.162C72.8584 117.774 72.6104 118.268 72.1144 118.644C71.6184 119.02 70.9824 119.208 70.2064 119.208ZM74.1374 118.998V110.208H75.7694V113.55H75.8114C76.0194 113.23 76.3074 112.968 76.6754 112.764C77.0434 112.56 77.4714 112.458 77.9594 112.458C78.6714 112.458 79.2274 112.664 79.6274 113.076C80.0314 113.484 80.2334 114.038 80.2334 114.738V118.998H78.6014V115.14C78.6014 114.692 78.4914 114.358 78.2714 114.138C78.0554 113.914 77.7394 113.802 77.3234 113.802C76.8754 113.802 76.5054 113.956 76.2134 114.264C75.9214 114.568 75.7754 114.936 75.7754 115.368V118.998H74.1374ZM85.0083 119.208C83.9643 119.208 83.1183 118.89 82.4703 118.254C81.8263 117.614 81.5043 116.808 81.5043 115.836C81.5043 114.852 81.8303 114.042 82.4823 113.406C83.1343 112.77 83.9763 112.452 85.0083 112.452C86.0443 112.452 86.8883 112.774 87.5403 113.418C88.1923 114.058 88.5183 114.864 88.5183 115.836C88.5183 116.804 88.1943 117.608 87.5463 118.248C86.9023 118.888 86.0563 119.208 85.0083 119.208ZM85.0083 117.804C85.5563 117.804 86.0023 117.622 86.3463 117.258C86.6943 116.894 86.8683 116.42 86.8683 115.836C86.8683 115.26 86.6963 114.788 86.3523 114.42C86.0083 114.048 85.5603 113.862 85.0083 113.862C84.4523 113.862 84.0023 114.046 83.6583 114.414C83.3183 114.782 83.1483 115.256 83.1483 115.836C83.1483 116.42 83.3203 116.894 83.6643 117.258C84.0083 117.622 84.4563 117.804 85.0083 117.804ZM89.8522 118.998V112.662H91.4062V113.808L91.2502 113.64H91.4482C91.5762 113.288 91.8002 113.002 92.1202 112.782C92.4402 112.562 92.7882 112.452 93.1642 112.452C93.3042 112.452 93.4422 112.466 93.5782 112.494C93.7182 112.522 93.8462 112.562 93.9622 112.614C94.0782 112.662 94.1362 112.686 94.1362 112.686L93.9142 114.168C93.9142 114.168 93.8562 114.144 93.7402 114.096C93.6282 114.044 93.5062 114.004 93.3742 113.976C93.2462 113.944 93.1222 113.928 93.0022 113.928C92.5742 113.928 92.2142 114.086 91.9222 114.402C91.6342 114.714 91.4902 115.168 91.4902 115.764V118.998H89.8522ZM97.72 119.208C97.1 119.208 96.612 119.04 96.256 118.704C95.904 118.368 95.728 117.87 95.728 117.21V111.024H97.36V117.024C97.36 117.308 97.422 117.52 97.546 117.66C97.67 117.8 97.862 117.87 98.122 117.87C98.214 117.87 98.308 117.86 98.404 117.84C98.504 117.816 98.616 117.778 98.74 117.726C98.868 117.67 98.932 117.642 98.932 117.642L99.178 118.848C99.178 118.848 99.098 118.884 98.938 118.956C98.778 119.024 98.598 119.082 98.398 119.13C98.202 119.182 97.976 119.208 97.72 119.208ZM94.666 113.97V112.662H98.974V113.97H94.666ZM105.749 119.208C105.293 119.208 104.901 119.154 104.573 119.046C104.249 118.938 103.963 118.786 103.715 118.59C103.467 118.39 103.273 118.186 103.133 117.978C102.997 117.77 102.929 117.666 102.929 117.666L103.997 116.934C103.997 116.934 104.049 117.01 104.153 117.162C104.261 117.314 104.393 117.454 104.549 117.582C104.705 117.706 104.885 117.802 105.089 117.87C105.293 117.934 105.525 117.966 105.785 117.966C106.117 117.966 106.381 117.902 106.577 117.774C106.777 117.646 106.877 117.47 106.877 117.246C106.877 117.03 106.781 116.862 106.589 116.742C106.397 116.618 106.011 116.488 105.431 116.352C104.619 116.156 104.045 115.9 103.709 115.584C103.377 115.264 103.211 114.85 103.211 114.342C103.211 113.778 103.447 113.322 103.919 112.974C104.391 112.626 104.991 112.452 105.719 112.452C106.079 112.452 106.401 112.49 106.685 112.566C106.973 112.638 107.231 112.746 107.459 112.89C107.687 113.034 107.873 113.188 108.017 113.352C108.165 113.516 108.239 113.598 108.239 113.598L107.195 114.372C107.195 114.372 107.145 114.32 107.045 114.216C106.945 114.108 106.827 114.014 106.691 113.934C106.555 113.854 106.407 113.794 106.247 113.754C106.087 113.714 105.909 113.694 105.713 113.694C105.409 113.694 105.165 113.752 104.981 113.868C104.801 113.984 104.711 114.13 104.711 114.306C104.711 114.474 104.789 114.616 104.945 114.732C105.101 114.848 105.527 114.996 106.223 115.176C106.987 115.372 107.541 115.626 107.885 115.938C108.229 116.246 108.401 116.654 108.401 117.162C108.401 117.774 108.153 118.268 107.657 118.644C107.161 119.02 106.525 119.208 105.749 119.208ZM112.122 119.208C111.502 119.208 111.014 119.04 110.658 118.704C110.306 118.368 110.13 117.87 110.13 117.21V111.024H111.762V117.024C111.762 117.308 111.824 117.52 111.948 117.66C112.072 117.8 112.264 117.87 112.524 117.87C112.616 117.87 112.71 117.86 112.806 117.84C112.906 117.816 113.018 117.778 113.142 117.726C113.27 117.67 113.334 117.642 113.334 117.642L113.58 118.848C113.58 118.848 113.5 118.884 113.34 118.956C113.18 119.024 113 119.082 112.8 119.13C112.604 119.182 112.378 119.208 112.122 119.208ZM109.068 113.97V112.662H113.376V113.97H109.068ZM114.825 118.998V112.662H116.379V113.808L116.223 113.64H116.421C116.549 113.288 116.773 113.002 117.093 112.782C117.413 112.562 117.761 112.452 118.137 112.452C118.277 112.452 118.415 112.466 118.551 112.494C118.691 112.522 118.819 112.562 118.935 112.614C119.051 112.662 119.109 112.686 119.109 112.686L118.887 114.168C118.887 114.168 118.829 114.144 118.713 114.096C118.601 114.044 118.479 114.004 118.347 113.976C118.219 113.944 118.095 113.928 117.975 113.928C117.547 113.928 117.187 114.086 116.895 114.402C116.607 114.714 116.463 115.168 116.463 115.764V118.998H114.825ZM122.881 119.208C121.865 119.208 121.043 118.896 120.415 118.272C119.787 117.648 119.473 116.836 119.473 115.836C119.473 114.892 119.777 114.094 120.385 113.442C120.997 112.786 121.815 112.458 122.839 112.458C123.771 112.458 124.529 112.744 125.113 113.316C125.701 113.884 125.995 114.598 125.995 115.458V116.226H120.319V115.26H124.471V115.254C124.447 114.826 124.291 114.47 124.003 114.186C123.719 113.898 123.331 113.754 122.839 113.754C122.323 113.754 121.899 113.936 121.567 114.3C121.235 114.664 121.069 115.168 121.069 115.812C121.069 116.492 121.251 117.012 121.615 117.372C121.979 117.732 122.443 117.912 123.007 117.912C123.251 117.912 123.471 117.882 123.667 117.822C123.863 117.762 124.045 117.678 124.213 117.57C124.381 117.462 124.571 117.29 124.783 117.054L125.773 117.864C125.501 118.216 125.229 118.482 124.957 118.662C124.689 118.838 124.393 118.972 124.069 119.064C123.745 119.16 123.349 119.208 122.881 119.208ZM129.794 119.208C129.174 119.208 128.686 119.04 128.33 118.704C127.978 118.368 127.802 117.87 127.802 117.21V111.024H129.434V117.024C129.434 117.308 129.496 117.52 129.62 117.66C129.744 117.8 129.936 117.87 130.196 117.87C130.288 117.87 130.382 117.86 130.478 117.84C130.578 117.816 130.69 117.778 130.814 117.726C130.942 117.67 131.006 117.642 131.006 117.642L131.252 118.848C131.252 118.848 131.172 118.884 131.012 118.956C130.852 119.024 130.672 119.082 130.472 119.13C130.276 119.182 130.05 119.208 129.794 119.208ZM126.74 113.97V112.662H131.048V113.97H126.74ZM135.444 119.208C134.432 119.208 133.61 118.89 132.978 118.254C132.35 117.614 132.036 116.806 132.036 115.83C132.036 114.854 132.348 114.048 132.972 113.412C133.6 112.772 134.438 112.452 135.486 112.452C135.854 112.452 136.19 112.496 136.494 112.584C136.798 112.672 137.08 112.808 137.34 112.992C137.604 113.172 137.876 113.446 138.156 113.814L137.01 114.66C136.826 114.436 136.664 114.272 136.524 114.168C136.384 114.06 136.228 113.982 136.056 113.934C135.888 113.886 135.696 113.862 135.48 113.862C134.968 113.862 134.538 114.044 134.19 114.408C133.846 114.768 133.674 115.242 133.674 115.83C133.674 116.422 133.848 116.898 134.196 117.258C134.548 117.618 134.976 117.798 135.48 117.798C135.704 117.798 135.908 117.768 136.092 117.708C136.28 117.648 136.446 117.564 136.59 117.456C136.734 117.348 136.898 117.17 137.082 116.922L138.306 117.666C138.034 118.082 137.762 118.39 137.49 118.59C137.222 118.79 136.916 118.942 136.572 119.046C136.228 119.154 135.852 119.208 135.444 119.208ZM139.446 118.998V110.208H141.078V113.55H141.12C141.328 113.23 141.616 112.968 141.984 112.764C142.352 112.56 142.78 112.458 143.268 112.458C143.98 112.458 144.536 112.664 144.936 113.076C145.34 113.484 145.542 114.038 145.542 114.738V118.998H143.91V115.14C143.91 114.692 143.8 114.358 143.58 114.138C143.364 113.914 143.048 113.802 142.632 113.802C142.184 113.802 141.814 113.956 141.522 114.264C141.23 114.568 141.084 114.936 141.084 115.368V118.998H139.446Z" fill="#131515"/>
<path d="M36.564 115.326H146.352V116.334H36.564V115.326Z" fill="#131515"/>
<circle cx="21.4155" cy="144.498" r="7.5" fill="#D9D9D9"/>
<path d="M37.662 146.998V138.406H40.956C41.848 138.406 42.562 138.65 43.098 139.138C43.634 139.622 43.902 140.288 43.902 141.136C43.902 141.964 43.612 142.626 43.032 143.122C42.456 143.614 41.746 143.86 40.902 143.86H38.4V142.588H40.722C41.158 142.588 41.516 142.466 41.796 142.222C42.076 141.978 42.216 141.638 42.216 141.202C42.216 140.774 42.08 140.446 41.808 140.218C41.536 139.99 41.188 139.876 40.764 139.876H39.324V146.998H37.662ZM42.636 146.998L39.984 143.218L41.784 143.152L44.604 146.998H42.636ZM48.4202 147.208C47.4042 147.208 46.5822 146.896 45.9542 146.272C45.3262 145.648 45.0122 144.836 45.0122 143.836C45.0122 142.892 45.3162 142.094 45.9242 141.442C46.5362 140.786 47.3542 140.458 48.3782 140.458C49.3102 140.458 50.0682 140.744 50.6522 141.316C51.2402 141.884 51.5342 142.598 51.5342 143.458V144.226H45.8582V143.26H50.0102V143.254C49.9862 142.826 49.8302 142.47 49.5422 142.186C49.2582 141.898 48.8702 141.754 48.3782 141.754C47.8622 141.754 47.4382 141.936 47.1062 142.3C46.7742 142.664 46.6082 143.168 46.6082 143.812C46.6082 144.492 46.7902 145.012 47.1542 145.372C47.5182 145.732 47.9822 145.912 48.5462 145.912C48.7902 145.912 49.0102 145.882 49.2062 145.822C49.4022 145.762 49.5842 145.678 49.7522 145.57C49.9202 145.462 50.1102 145.29 50.3222 145.054L51.3122 145.864C51.0402 146.216 50.7682 146.482 50.4962 146.662C50.2282 146.838 49.9322 146.972 49.6082 147.064C49.2842 147.16 48.8882 147.208 48.4202 147.208ZM54.5624 146.998L51.9764 140.662H53.6804L55.1144 144.514L55.3484 145.222H55.3904L55.6364 144.514L57.0764 140.662H58.7504L56.1284 146.998H54.5624ZM59.7593 146.998V140.662H61.3973V146.998H59.7593ZM60.5933 139.558C60.3213 139.558 60.0893 139.464 59.8973 139.276C59.7053 139.084 59.6093 138.856 59.6093 138.592C59.6093 138.316 59.7053 138.088 59.8973 137.908C60.0893 137.728 60.3213 137.638 60.5933 137.638C60.8693 137.638 61.0973 137.728 61.2773 137.908C61.4613 138.088 61.5533 138.316 61.5533 138.592C61.5533 138.856 61.4613 139.084 61.2773 139.276C61.0973 139.464 60.8693 139.558 60.5933 139.558ZM66.1741 147.208C65.1581 147.208 64.3361 146.896 63.7081 146.272C63.0801 145.648 62.7661 144.836 62.7661 143.836C62.7661 142.892 63.0701 142.094 63.6781 141.442C64.2901 140.786 65.1081 140.458 66.1321 140.458C67.0641 140.458 67.8221 140.744 68.4061 141.316C68.9941 141.884 69.2881 142.598 69.2881 143.458V144.226H63.6121V143.26H67.7641V143.254C67.7401 142.826 67.5841 142.47 67.2961 142.186C67.0121 141.898 66.6241 141.754 66.1321 141.754C65.6161 141.754 65.1921 141.936 64.8601 142.3C64.5281 142.664 64.3621 143.168 64.3621 143.812C64.3621 144.492 64.5441 145.012 64.9081 145.372C65.2721 145.732 65.7361 145.912 66.3001 145.912C66.5441 145.912 66.7641 145.882 66.9601 145.822C67.1561 145.762 67.3381 145.678 67.5061 145.57C67.6741 145.462 67.8641 145.29 68.0761 145.054L69.0661 145.864C68.7941 146.216 68.5221 146.482 68.2501 146.662C67.9821 146.838 67.6861 146.972 67.3621 147.064C67.0381 147.16 66.6421 147.208 66.1741 147.208ZM71.8532 146.998L69.8132 140.662H71.4392L72.4832 144.364L72.6872 145.108H72.7292L72.9452 144.376L74.0732 140.662H75.4892L76.6112 144.364L76.8272 145.108H76.8692L77.0732 144.37L78.1352 140.662H79.6652L77.6252 146.998H76.1732L74.9672 143.248L74.7512 142.516H74.7092L74.4992 143.248L73.3232 146.998H71.8532ZM85.6073 147.208C84.9233 147.208 84.3613 147.02 83.9213 146.644C83.4853 146.264 83.2673 145.746 83.2673 145.09C83.2673 144.418 83.5133 143.89 84.0053 143.506C84.5013 143.122 85.1453 142.93 85.9373 142.93C86.2973 142.93 86.6273 142.97 86.9273 143.05C87.2313 143.126 87.4973 143.23 87.7253 143.362V142.984C87.7253 142.568 87.5873 142.254 87.3113 142.042C87.0393 141.83 86.6793 141.724 86.2313 141.724C85.9833 141.724 85.7653 141.75 85.5773 141.802C85.3933 141.85 85.2233 141.914 85.0673 141.994C84.9153 142.07 84.7613 142.166 84.6053 142.282C84.4493 142.394 84.3713 142.45 84.3713 142.45L83.5673 141.508C83.5673 141.508 83.6673 141.432 83.8673 141.28C84.0713 141.124 84.3013 140.982 84.5573 140.854C84.8133 140.726 85.0893 140.628 85.3853 140.56C85.6853 140.488 86.0253 140.452 86.4053 140.452C87.3053 140.452 88.0173 140.676 88.5413 141.124C89.0693 141.568 89.3333 142.19 89.3333 142.99V146.998H87.7733V145.75L88.0673 146.188H87.7313C87.5353 146.48 87.2553 146.724 86.8913 146.92C86.5273 147.112 86.0993 147.208 85.6073 147.208ZM86.0813 146.056C86.5613 146.056 86.9573 145.894 87.2693 145.57C87.5853 145.246 87.7453 144.85 87.7493 144.382V144.346C87.5653 144.198 87.3433 144.084 87.0833 144.004C86.8233 143.924 86.5513 143.884 86.2673 143.884C85.8353 143.884 85.4913 143.982 85.2353 144.178C84.9833 144.37 84.8573 144.638 84.8573 144.982C84.8573 145.322 84.9673 145.586 85.1873 145.774C85.4073 145.962 85.7053 146.056 86.0813 146.056ZM91.0241 146.998V140.662H92.5901V141.796L92.4101 141.568H92.6321C92.8521 141.232 93.1561 140.964 93.5441 140.764C93.9321 140.56 94.3621 140.458 94.8341 140.458C95.5501 140.458 96.1101 140.662 96.5141 141.07C96.9181 141.478 97.1201 142.034 97.1201 142.738V146.998H95.4881V143.14C95.4881 142.712 95.3841 142.384 95.1761 142.156C94.9681 141.924 94.6441 141.808 94.2041 141.808C93.7561 141.808 93.3861 141.956 93.0941 142.252C92.8061 142.548 92.6621 142.918 92.6621 143.362V146.998H91.0241ZM101.451 147.208C100.575 147.208 99.8451 146.9 99.2611 146.284C98.6811 145.664 98.3911 144.85 98.3911 143.842C98.3911 142.826 98.6811 142.01 99.2611 141.394C99.8411 140.774 100.557 140.464 101.409 140.464C101.893 140.464 102.319 140.568 102.687 140.776C103.059 140.984 103.337 141.24 103.521 141.544H103.563V138.208H105.189V146.998H103.599V145.918L103.821 146.176H103.557C103.357 146.476 103.075 146.724 102.711 146.92C102.347 147.112 101.927 147.208 101.451 147.208ZM101.823 145.846C102.351 145.846 102.781 145.664 103.113 145.3C103.449 144.932 103.617 144.448 103.617 143.848C103.617 143.244 103.445 142.758 103.101 142.39C102.761 142.018 102.335 141.832 101.823 141.832C101.291 141.832 100.859 142.018 100.527 142.39C100.195 142.758 100.029 143.24 100.029 143.836C100.029 144.432 100.193 144.916 100.521 145.288C100.853 145.66 101.287 145.846 101.823 145.846ZM109.997 149.62V140.668H111.587V141.982L111.227 141.58H111.629C111.829 141.252 112.119 140.984 112.499 140.776C112.883 140.564 113.319 140.458 113.807 140.458C114.659 140.458 115.371 140.766 115.943 141.382C116.519 141.994 116.807 142.808 116.807 143.824C116.807 144.84 116.511 145.658 115.919 146.278C115.331 146.898 114.623 147.208 113.795 147.208C113.295 147.208 112.859 147.108 112.487 146.908C112.119 146.708 111.849 146.462 111.677 146.17H111.635V149.62H109.997ZM113.375 145.84C113.915 145.84 114.347 145.652 114.671 145.276C114.999 144.9 115.163 144.416 115.163 143.824C115.163 143.224 114.995 142.742 114.659 142.378C114.323 142.01 113.895 141.826 113.375 141.826C112.847 141.826 112.415 142.014 112.079 142.39C111.747 142.766 111.581 143.246 111.581 143.83C111.581 144.426 111.743 144.91 112.067 145.282C112.391 145.654 112.827 145.84 113.375 145.84ZM118.141 146.998V138.208H119.779V146.998H118.141ZM123.424 147.208C122.74 147.208 122.178 147.02 121.738 146.644C121.302 146.264 121.084 145.746 121.084 145.09C121.084 144.418 121.33 143.89 121.822 143.506C122.318 143.122 122.962 142.93 123.754 142.93C124.114 142.93 124.444 142.97 124.744 143.05C125.048 143.126 125.314 143.23 125.542 143.362V142.984C125.542 142.568 125.404 142.254 125.128 142.042C124.856 141.83 124.496 141.724 124.048 141.724C123.8 141.724 123.582 141.75 123.394 141.802C123.21 141.85 123.04 141.914 122.884 141.994C122.732 142.07 122.578 142.166 122.422 142.282C122.266 142.394 122.188 142.45 122.188 142.45L121.384 141.508C121.384 141.508 121.484 141.432 121.684 141.28C121.888 141.124 122.118 140.982 122.374 140.854C122.63 140.726 122.906 140.628 123.202 140.56C123.502 140.488 123.842 140.452 124.222 140.452C125.122 140.452 125.834 140.676 126.358 141.124C126.886 141.568 127.15 142.19 127.15 142.99V146.998H125.59V145.75L125.884 146.188H125.548C125.352 146.48 125.072 146.724 124.708 146.92C124.344 147.112 123.916 147.208 123.424 147.208ZM123.898 146.056C124.378 146.056 124.774 145.894 125.086 145.57C125.402 145.246 125.562 144.85 125.566 144.382V144.346C125.382 144.198 125.16 144.084 124.9 144.004C124.64 143.924 124.368 143.884 124.084 143.884C123.652 143.884 123.308 143.982 123.052 144.178C122.8 144.37 122.674 144.638 122.674 144.982C122.674 145.322 122.784 145.586 123.004 145.774C123.224 145.962 123.522 146.056 123.898 146.056ZM128.84 146.998V140.662H130.406V141.796L130.226 141.568H130.448C130.668 141.232 130.972 140.964 131.36 140.764C131.748 140.56 132.178 140.458 132.65 140.458C133.366 140.458 133.926 140.662 134.33 141.07C134.734 141.478 134.936 142.034 134.936 142.738V146.998H133.304V143.14C133.304 142.712 133.2 142.384 132.992 142.156C132.784 141.924 132.46 141.808 132.02 141.808C131.572 141.808 131.202 141.956 130.91 142.252C130.622 142.548 130.478 142.918 130.478 143.362V146.998H128.84ZM142.122 147.208C141.502 147.208 141.014 147.04 140.658 146.704C140.306 146.368 140.13 145.87 140.13 145.21V139.024H141.762V145.024C141.762 145.308 141.824 145.52 141.948 145.66C142.072 145.8 142.264 145.87 142.524 145.87C142.616 145.87 142.71 145.86 142.806 145.84C142.906 145.816 143.018 145.778 143.142 145.726C143.27 145.67 143.334 145.642 143.334 145.642L143.58 146.848C143.58 146.848 143.5 146.884 143.34 146.956C143.18 147.024 143 147.082 142.8 147.13C142.604 147.182 142.378 147.208 142.122 147.208ZM139.068 141.97V140.662H143.376V141.97H139.068ZM144.825 146.998V138.208H146.457V141.55H146.499C146.707 141.23 146.995 140.968 147.363 140.764C147.731 140.56 148.159 140.458 148.647 140.458C149.359 140.458 149.915 140.664 150.315 141.076C150.719 141.484 150.921 142.038 150.921 142.738V146.998H149.289V143.14C149.289 142.692 149.179 142.358 148.959 142.138C148.743 141.914 148.427 141.802 148.011 141.802C147.563 141.802 147.193 141.956 146.901 142.264C146.609 142.568 146.463 142.936 146.463 143.368V146.998H144.825ZM155.6 147.208C154.584 147.208 153.762 146.896 153.134 146.272C152.506 145.648 152.192 144.836 152.192 143.836C152.192 142.892 152.496 142.094 153.104 141.442C153.716 140.786 154.534 140.458 155.558 140.458C156.49 140.458 157.248 140.744 157.832 141.316C158.42 141.884 158.714 142.598 158.714 143.458V144.226H153.038V143.26H157.19V143.254C157.166 142.826 157.01 142.47 156.722 142.186C156.438 141.898 156.05 141.754 155.558 141.754C155.042 141.754 154.618 141.936 154.286 142.3C153.954 142.664 153.788 143.168 153.788 143.812C153.788 144.492 153.97 145.012 154.334 145.372C154.698 145.732 155.162 145.912 155.726 145.912C155.97 145.912 156.19 145.882 156.386 145.822C156.582 145.762 156.764 145.678 156.932 145.57C157.1 145.462 157.29 145.29 157.502 145.054L158.492 145.864C158.22 146.216 157.948 146.482 157.676 146.662C157.408 146.838 157.112 146.972 156.788 147.064C156.464 147.16 156.068 147.208 155.6 147.208ZM40.08 162.208C39.204 162.208 38.474 161.9 37.89 161.284C37.31 160.664 37.02 159.85 37.02 158.842C37.02 157.826 37.31 157.01 37.89 156.394C38.47 155.774 39.186 155.464 40.038 155.464C40.522 155.464 40.948 155.568 41.316 155.776C41.688 155.984 41.966 156.24 42.15 156.544H42.192V153.208H43.818V161.998H42.228V160.918L42.45 161.176H42.186C41.986 161.476 41.704 161.724 41.34 161.92C40.976 162.112 40.556 162.208 40.08 162.208ZM40.452 160.846C40.98 160.846 41.41 160.664 41.742 160.3C42.078 159.932 42.246 159.448 42.246 158.848C42.246 158.244 42.074 157.758 41.73 157.39C41.39 157.018 40.964 156.832 40.452 156.832C39.92 156.832 39.488 157.018 39.156 157.39C38.824 157.758 38.658 158.24 38.658 158.836C38.658 159.432 38.822 159.916 39.15 160.288C39.482 160.66 39.916 160.846 40.452 160.846ZM47.4628 162.208C46.7788 162.208 46.2168 162.02 45.7768 161.644C45.3408 161.264 45.1228 160.746 45.1228 160.09C45.1228 159.418 45.3688 158.89 45.8608 158.506C46.3568 158.122 47.0008 157.93 47.7928 157.93C48.1528 157.93 48.4828 157.97 48.7828 158.05C49.0868 158.126 49.3528 158.23 49.5808 158.362V157.984C49.5808 157.568 49.4428 157.254 49.1668 157.042C48.8948 156.83 48.5348 156.724 48.0868 156.724C47.8388 156.724 47.6208 156.75 47.4328 156.802C47.2488 156.85 47.0788 156.914 46.9228 156.994C46.7708 157.07 46.6168 157.166 46.4608 157.282C46.3048 157.394 46.2268 157.45 46.2268 157.45L45.4228 156.508C45.4228 156.508 45.5228 156.432 45.7228 156.28C45.9268 156.124 46.1568 155.982 46.4128 155.854C46.6688 155.726 46.9448 155.628 47.2408 155.56C47.5408 155.488 47.8808 155.452 48.2608 155.452C49.1608 155.452 49.8728 155.676 50.3968 156.124C50.9248 156.568 51.1888 157.19 51.1888 157.99V161.998H49.6288V160.75L49.9228 161.188H49.5868C49.3908 161.48 49.1108 161.724 48.7468 161.92C48.3828 162.112 47.9548 162.208 47.4628 162.208ZM47.9368 161.056C48.4168 161.056 48.8128 160.894 49.1248 160.57C49.4408 160.246 49.6008 159.85 49.6048 159.382V159.346C49.4208 159.198 49.1988 159.084 48.9388 159.004C48.6788 158.924 48.4068 158.884 48.1228 158.884C47.6908 158.884 47.3468 158.982 47.0908 159.178C46.8388 159.37 46.7128 159.638 46.7128 159.982C46.7128 160.322 46.8228 160.586 47.0428 160.774C47.2628 160.962 47.5608 161.056 47.9368 161.056ZM52.9923 164.626L54.6603 161.182L54.6723 162.01L51.8943 155.662H53.5923L55.0263 159.292L55.2423 159.946H55.2843L55.5243 159.286L56.9823 155.662H58.6263L54.6603 164.626H52.9923Z" fill="#131515"/>
</svg>
