<svg width="945" height="300" viewBox="0 0 945 300" fill="none" xmlns="http://www.w3.org/2000/svg">
<path d="M945 269.926C945 273.878 944.296 277.792 942.928 281.442C941.56 285.093 939.555 288.41 937.028 291.203C934.5 293.996 931.5 296.211 928.198 297.72C924.897 299.23 921.359 300.004 917.786 300H27.2475C20.0297 300.008 13.1045 296.845 7.99486 291.206C2.88517 285.566 0.00940396 277.913 0 269.928V30.1111C0.00939964 22.1229 2.88403 14.4653 7.9927 8.81971C13.1014 3.17414 20.0265 0.00207248 27.2475 6.40028e-08H917.781C921.355 -0.000257763 924.894 0.778455 928.197 2.29166C931.499 3.80486 934.499 6.02291 937.026 8.81911C939.553 11.6153 941.558 14.9349 942.925 18.5882C944.292 22.2415 944.995 26.157 944.995 30.1111L945 269.926Z" fill="black"/>
<g clip-path="url(#clip0_717_125)">
<mask id="mask0_717_125" style="mask-type:luminance" maskUnits="userSpaceOnUse" x="78" y="50" width="200" height="200">
<path d="M278 50H78V250H278V50Z" fill="white"/>
</mask>
<g mask="url(#mask0_717_125)">
<path fill-rule="evenodd" clip-rule="evenodd" d="M236.984 50H119.016C96.3996 50 78 68.3996 78 91.0157V208.984C78 231.6 96.3996 250 119.016 250H236.984C259.6 250 278 231.6 278 208.984V91.0157C278 68.3996 259.6 50 236.984 50ZM189.883 119.085L189.276 118.034L196.417 105.665C197.722 103.406 198.068 100.774 197.393 98.2547C196.718 95.7352 195.102 93.6293 192.843 92.325C188.181 89.6328 182.197 91.2359 179.503 95.8996L178 98.5027L166.723 118.034L144.526 156.481L140.374 163.672H121.164C115.779 163.672 111.398 168.052 111.398 173.437C111.398 178.822 115.779 183.203 121.164 183.203H129.098L128.625 184.023L122.667 194.342C119.975 199.006 121.578 204.99 126.241 207.682C127.775 208.567 129.452 208.988 131.108 208.988C134.486 208.987 137.775 207.237 139.582 204.108L151.177 184.023L151.651 183.203H195.328H204.349L208.5 190.392L216.418 204.107C217.723 206.366 219.828 207.982 222.348 208.657C223.19 208.883 224.043 208.994 224.892 208.994C226.583 208.994 228.254 208.55 229.759 207.682C234.249 205.089 235.902 199.443 233.614 194.865C233.527 194.689 233.432 194.514 233.332 194.342L231.062 190.408L226.902 183.203H234.836C240.221 183.203 244.602 178.822 244.602 173.437C244.602 168.052 240.221 163.672 234.836 163.672H215.626L189.883 119.085Z" fill="white"/>
<path d="M162.926 163.672H184.051H193.072L178.607 138.617L177.999 137.565L167.072 156.49L162.926 163.672Z" fill="white"/>
</g>
</g>
<path d="M410.134 215.716H395.958L388.191 191.32H361.199L353.801 215.716H340L366.749 132.663H383.267L410.134 215.716ZM385.852 181.087L378.828 159.399C378.085 157.184 376.686 151.965 374.64 143.753H374.39C373.565 147.286 372.249 152.503 370.444 159.398L363.54 181.087H385.852ZM478.79 185.036C478.79 195.221 476.025 203.272 470.488 209.182C465.53 214.443 459.369 217.071 452.021 217.071C444.088 217.071 438.382 214.243 434.916 208.576V240H421.608V175.514C421.608 169.115 421.44 162.556 421.115 155.829H432.82L433.563 165.322H433.812C438.251 158.17 444.986 154.594 454.027 154.594C461.093 154.594 466.992 157.382 471.71 162.97C476.424 168.566 478.79 175.919 478.79 185.036ZM465.231 185.523C465.231 179.694 463.921 174.888 461.285 171.101C458.408 167.162 454.543 165.189 449.7 165.189C446.415 165.189 443.431 166.289 440.767 168.454C438.095 170.638 436.347 173.492 435.529 177.023C435.164 178.345 434.956 179.704 434.91 181.074V191.065C434.91 195.416 436.247 199.091 438.919 202.099C441.591 205.093 445.061 206.599 449.33 206.599C454.344 206.599 458.246 204.658 461.037 200.807C463.832 196.943 465.231 191.851 465.231 185.523ZM547.689 185.036C547.689 195.221 544.924 203.272 539.387 209.182C534.423 214.443 528.268 217.071 520.914 217.071C512.981 217.071 507.275 214.243 503.809 208.576V240H490.501V175.514C490.501 169.115 490.333 162.556 490.008 155.829H501.713L502.455 165.322H502.705C507.136 158.17 513.873 154.594 522.918 154.594C529.978 154.594 535.877 157.382 540.61 162.97C545.317 168.566 547.689 175.919 547.689 185.036ZM534.124 185.523C534.124 179.694 532.806 174.888 530.171 171.101C527.294 167.162 523.442 165.189 518.598 165.189C515.314 165.189 512.331 166.289 509.652 168.454C506.98 170.638 505.238 173.492 504.422 177.023C504.017 178.671 503.798 180.012 503.798 181.074V191.065C503.798 195.416 505.14 199.091 507.799 202.099C510.471 205.089 513.942 206.599 518.223 206.599C523.243 206.599 527.145 204.658 529.928 200.807C532.725 196.943 534.124 191.851 534.124 185.523ZM624.721 192.42C624.721 199.491 622.249 205.238 617.337 209.676C611.931 214.518 604.383 216.945 594.708 216.945C585.769 216.945 578.601 215.224 573.195 211.772L576.273 200.682C582.109 204.14 588.522 205.861 595.5 205.861C600.52 205.861 604.422 204.727 607.205 202.473C609.997 200.214 611.407 197.193 611.407 193.425C611.407 190.048 610.239 187.221 607.947 184.918C605.645 182.621 601.836 180.48 596.486 178.515C581.941 173.091 574.663 165.16 574.663 154.725C574.663 147.908 577.235 142.331 582.367 137.968C587.498 133.611 594.302 131.432 602.767 131.432C610.326 131.432 616.624 132.75 621.625 135.379L618.286 146.224C613.578 143.678 608.265 142.405 602.323 142.405C597.628 142.405 593.947 143.56 591.311 145.856C589.096 147.91 587.973 150.412 587.973 153.383C587.973 156.659 589.252 159.381 591.799 161.514C594.009 163.48 598.041 165.621 603.872 167.917C611.025 170.801 616.281 174.158 619.646 178.015C623.037 181.873 624.721 186.685 624.721 192.42ZM668.837 165.815H654.167V194.891C654.167 202.286 656.752 205.975 661.933 205.975C664.312 205.975 666.285 205.775 667.845 205.357L668.213 215.461C665.593 216.441 662.139 216.934 657.864 216.934C652.607 216.934 648.499 215.33 645.534 212.122C642.581 208.913 641.096 203.541 641.096 195.978V165.788H632.356V155.804H641.096V144.839L654.167 140.894V155.806H668.837V165.815ZM734.896 185.281C734.896 194.484 732.261 202.042 727.006 207.953C721.506 214.037 714.189 217.071 705.069 217.071C696.267 217.071 689.269 214.156 684.051 208.333C678.832 202.499 676.223 195.147 676.223 186.278C676.223 176.997 678.919 169.396 684.294 163.486C689.682 157.57 696.935 154.611 706.055 154.611C714.845 154.611 721.906 157.532 727.25 163.361C732.355 169.015 734.896 176.32 734.896 185.281ZM721.101 185.585C721.101 180.099 719.915 175.395 717.535 171.457C714.745 166.701 710.75 164.324 705.575 164.324C700.243 164.324 696.154 166.701 693.371 171.457C690.986 175.395 689.799 180.18 689.799 185.835C689.799 191.327 690.986 196.045 693.371 199.971C696.249 204.727 700.262 207.104 705.462 207.104C710.55 207.104 714.54 204.677 717.423 199.851C719.872 195.82 721.101 191.085 721.101 185.585ZM778.175 167.53C776.791 167.281 775.386 167.157 773.979 167.162C769.3 167.162 765.678 168.922 763.131 172.467C760.921 175.587 759.809 179.533 759.809 184.294V215.717H746.5V174.688C746.512 168.402 746.383 162.116 746.114 155.835H757.706L758.193 167.293H758.561C759.972 163.355 762.183 160.179 765.216 157.801C767.993 155.723 771.367 154.598 774.836 154.594C776.066 154.594 777.175 154.681 778.163 154.837L778.175 167.53ZM837.697 182.94C837.731 184.962 837.569 186.983 837.212 188.975H797.284C797.434 194.891 799.37 199.422 803.077 202.542C806.442 205.326 810.794 206.723 816.136 206.723C822.047 206.723 827.441 205.788 832.292 203.897L834.378 213.126C828.709 215.599 822.016 216.828 814.295 216.828C805.007 216.828 797.715 214.093 792.408 208.639C787.114 203.18 784.461 195.839 784.461 186.646C784.461 177.622 786.927 170.103 791.865 164.105C797.035 157.701 804.019 154.5 812.809 154.5C821.442 154.5 827.978 157.701 832.417 164.105C835.931 169.178 837.698 175.47 837.698 182.94H837.697ZM825.006 179.488C825.1 175.538 824.226 172.137 822.423 169.259C820.12 165.553 816.574 163.706 811.823 163.706C807.471 163.706 803.926 165.509 801.229 169.128C799.014 172.006 797.696 175.464 797.29 179.475L825.006 179.488ZM357.36 103.3C353.658 103.3 350.455 103.119 347.79 102.813V62.6594C351.518 62.0838 355.285 61.8001 359.058 61.8109C374.322 61.8109 381.35 69.3182 381.35 81.5563C381.35 95.6724 373.047 103.3 357.36 103.3ZM359.594 66.9582C357.535 66.9582 355.78 67.083 354.327 67.3841V97.9076C355.113 98.0324 356.623 98.0886 358.746 98.0886C368.747 98.0886 374.44 92.3953 374.44 81.7373C374.44 72.2319 369.29 66.9582 359.594 66.9582ZM403.256 103.606C394.654 103.606 389.077 97.1839 389.077 88.4646C389.077 79.3789 394.771 72.8995 403.742 72.8995C412.22 72.8995 417.919 79.017 417.919 87.9842C417.919 97.1839 412.045 103.606 403.256 103.606ZM403.505 77.6818C398.779 77.6818 395.752 82.0991 395.752 88.2775C395.752 94.3373 398.842 98.7562 403.441 98.7562C408.041 98.7562 411.133 94.0315 411.133 88.1527C411.133 82.1631 408.107 77.6818 403.505 77.6818ZM466.973 73.5062L457.764 102.938H451.765L447.952 90.157C447.003 87.0305 446.213 83.858 445.585 80.6516H445.461C444.98 83.8586 444.069 87.0733 443.101 90.157L439.044 102.938H432.982L424.318 73.5047H431.04L434.374 87.4976C435.161 90.8308 435.823 93.9754 436.372 96.9468H436.497C436.977 94.4683 437.763 91.3737 438.919 87.56L443.101 73.5125H448.432L452.434 87.2605C453.362 90.4557 454.151 93.6896 454.799 96.953H454.974C455.4 93.927 456.066 90.7123 456.972 87.2605L460.549 73.5125L466.973 73.5062ZM500.869 102.938H494.327V86.0376C494.327 80.8326 492.331 78.2231 488.391 78.2231C484.515 78.2231 481.849 81.5563 481.849 85.4324V102.938H475.306V81.9166C475.306 79.3149 475.243 76.5244 475.062 73.4984H480.818L481.124 78.0406H481.306C483.066 74.896 486.636 72.8979 490.638 72.8979C496.818 72.8979 500.875 77.6241 500.875 85.3123L500.869 102.938ZM518.911 102.938H512.362V60H518.911V102.938ZM542.764 103.606C534.168 103.606 528.585 97.1839 528.585 88.4646C528.585 79.3789 534.278 72.8995 543.244 72.8995C551.728 72.8995 557.421 79.017 557.421 87.9842C557.427 97.1839 551.547 103.606 542.764 103.606ZM543.007 77.6818C538.281 77.6818 535.255 82.0991 535.255 88.2775C535.255 94.3373 538.349 98.7562 542.938 98.7562C547.544 98.7562 550.628 94.0315 550.628 88.1527C550.636 82.1631 547.613 77.6818 543.007 77.6818ZM583.215 102.938L582.741 99.5485H582.566C580.568 102.277 577.653 103.604 573.956 103.604C568.683 103.604 564.936 99.9104 564.936 94.9425C564.936 87.6785 571.236 83.921 582.141 83.921V83.3782C582.141 79.5036 580.088 77.5617 576.029 77.5617C573.128 77.5617 570.579 78.2917 568.34 79.7454L567.009 75.4466C569.731 73.7496 573.126 72.8995 577.116 72.8995C584.806 72.8995 588.69 76.9565 588.69 85.0768V95.9173C588.69 98.8872 588.821 101.189 589.114 102.944L583.215 102.938ZM582.315 88.2775C575.05 88.2775 571.404 90.0385 571.404 94.2125C571.404 97.3009 573.283 98.8123 575.892 98.8123C579.219 98.8123 582.315 96.273 582.315 92.8211V88.2775ZM620.458 102.938L620.153 98.2118H619.972C618.092 101.784 614.934 103.606 610.519 103.606C603.422 103.606 598.166 97.3648 598.166 88.5847C598.166 79.3789 603.616 72.8932 611.056 72.8932C614.996 72.8932 617.786 74.2237 619.359 76.8941H619.49V60.0016H626.039V95.0033C626.039 97.8499 626.108 100.514 626.283 102.936L620.458 102.938ZM619.491 85.6196C619.491 81.5002 616.762 77.986 612.599 77.986C607.748 77.986 604.784 82.2863 604.784 88.3399C604.784 94.2749 607.86 98.3381 612.468 98.3381C616.581 98.3381 619.49 94.7615 619.49 90.5236L619.491 85.6196ZM667.558 103.604C658.962 103.604 653.387 97.1839 653.387 88.4646C653.387 79.3789 659.08 72.8995 668.045 72.8995C676.53 72.8995 682.223 79.017 682.223 87.9842C682.228 97.1839 676.354 103.604 667.558 103.604ZM667.801 77.6802C663.081 77.6802 660.054 82.0991 660.054 88.2775C660.054 94.3373 663.144 98.7562 667.739 98.7562C672.346 98.7562 675.429 94.0315 675.429 88.1527C675.443 82.1631 672.415 77.6802 667.801 77.6802ZM717.404 102.938H710.856V86.0376C710.856 80.8326 708.86 78.2231 704.92 78.2231C701.043 78.2231 698.384 81.5563 698.384 85.4324V102.938H691.835V81.9166C691.835 79.3149 691.772 76.5244 691.591 73.4984H697.347L697.652 78.0406H697.833C699.588 74.896 703.165 72.8932 707.161 72.8932C713.341 72.8932 717.404 77.6163 717.404 85.3061V102.938ZM761.421 78.4102H754.223V92.7026C754.223 96.3416 755.483 98.1572 758.031 98.1572C759.185 98.1572 760.153 98.0324 760.933 97.8515L761.114 102.819C759.848 103.306 758.151 103.549 756.04 103.549C750.884 103.549 747.8 100.703 747.8 93.2516V78.4102H743.504V73.5062H747.8V68.1125L754.223 66.1705V73.4984H761.42L761.421 78.4102ZM796.053 102.938H789.518V86.1624C789.518 80.895 787.526 78.2293 783.581 78.2293C780.192 78.2293 777.033 80.5331 777.033 85.1953V102.938H770.498V60H777.033V77.6802H777.164C779.223 74.4733 782.209 72.8932 786.016 72.8932C792.246 72.8932 796.053 77.7364 796.053 85.4324V102.938ZM831.537 89.7936H811.904C812.029 95.3667 815.718 98.5128 821.18 98.5128C824.083 98.5128 826.755 98.0262 829.115 97.1215L830.132 101.665C827.348 102.876 824.071 103.481 820.257 103.481C811.049 103.481 805.599 97.6627 805.599 88.6471C805.599 79.6222 811.18 72.8371 819.521 72.8371C827.042 72.8371 831.762 78.4102 831.762 86.8284C831.804 87.8222 831.729 88.8175 831.537 89.7936ZM825.538 85.1329C825.538 80.5893 823.245 77.3808 819.065 77.3808C815.306 77.3808 812.335 80.6516 811.91 85.1329H825.538Z" fill="white"/>
<defs>
<clipPath id="clip0_717_125">
<rect width="200" height="200" fill="white" transform="translate(78 50)"/>
</clipPath>
</defs>
</svg>
