<svg width="24" height="24" viewBox="0 0 24 24" fill="none" xmlns="http://www.w3.org/2000/svg">
<path d="M10.1912 13.6406H13.8087L12 10.5078L10.1912 13.6406Z" fill="#fff"/>
<path fill-rule="evenodd" clip-rule="evenodd" d="M4.92188 0H19.0781C21.792 0 24 2.20795 24 4.92188V19.0781C24 21.792 21.792 24 19.0781 24H4.92187C2.20795 24 0 21.792 0 19.0781V4.92188C0 2.20795 2.20795 0 4.92188 0ZM5.36002 17.3211C5.03695 17.8807 5.22938 18.5988 5.78897 18.9218C6.34854 19.2449 7.06672 19.0525 7.3898 18.4929L8.83807 15.9844H15.1619L16.6102 18.4928C16.9296 19.0462 17.6577 19.2412 18.2111 18.9218C18.7499 18.6107 18.9483 17.9332 18.6737 17.3838L18.676 17.3835L13.3531 8.16406L14.2101 6.67983C14.5295 6.12657 14.3344 5.39844 13.7812 5.079C13.2217 4.75594 12.5036 4.94831 12.1804 5.50795L5.36002 17.3211Z" fill="#fff"/>
</svg>
