<svg width="987" height="300" viewBox="0 0 987 300" fill="none" xmlns="http://www.w3.org/2000/svg">
<path d="M950.444 300H36.5556C16.45 300 0 283.125 0 262.5V37.5C0 16.875 16.45 0 36.5556 0H950.444C970.55 0 987 16.875 987 37.5V262.5C987 283.125 970.55 300 950.444 300Z" fill="black"/>
<path d="M381.502 83.3512C381.502 88.9059 379.849 93.3365 376.543 96.5768C372.839 100.478 368.012 102.462 361.994 102.462C356.241 102.462 351.348 100.478 347.38 96.5106C343.413 92.543 341.429 87.5834 341.429 81.7641C341.429 75.9449 343.413 70.9853 347.38 67.0176C351.348 63.05 356.241 61 361.994 61C364.904 61 367.681 61.529 370.26 62.5209C372.839 63.579 374.956 65.0338 376.609 66.8854L372.972 70.5224C371.781 69.0676 370.194 67.8773 368.21 67.0838C366.25 66.2309 364.132 65.8027 361.994 65.8273C357.696 65.8273 353.993 67.3483 351.017 70.324C348.042 73.3659 346.587 77.1352 346.587 81.698C346.587 86.2608 348.042 90.0301 351.017 93.072C353.993 96.0477 357.63 97.5687 361.994 97.5687C365.962 97.5687 369.202 96.4445 371.848 94.2623C374.493 92.0801 376.014 88.9721 376.41 85.1367H361.994V80.3755H381.238C381.37 81.4335 381.502 82.4254 381.502 83.3512ZM411.987 61.9258V66.8192H393.934V79.3835H410.202V84.1447H393.934V96.709H411.987V101.602H388.842V61.9258H411.987ZM433.479 66.8192V101.602H428.387V66.8192H417.277V61.9258H444.522V66.8192H433.479ZM469.386 101.602H464.294V61.9258H469.386V101.602ZM492.002 66.8192V101.602H486.91V66.8192H475.8V61.9258H503.045V66.8192H492.002ZM560.51 81.7641C560.51 87.6495 558.526 92.543 554.625 96.5106C550.657 100.478 545.83 102.462 540.077 102.462C534.324 102.462 529.496 100.478 525.529 96.5106C521.627 92.543 519.643 87.6495 519.643 81.7641C519.643 75.8788 521.627 70.9853 525.529 67.0176C529.43 63.05 534.258 61 540.077 61C545.83 61 550.657 62.9838 554.625 67.0176C558.593 71.0514 560.51 75.9449 560.51 81.7641ZM524.933 81.7641C524.933 86.327 526.388 90.1624 529.232 93.1381C532.141 96.1139 535.778 97.6348 540.077 97.6348C544.375 97.6348 548.012 96.1139 550.856 93.1381C553.765 90.1624 555.22 86.3931 555.22 81.7641C555.22 77.1352 553.765 73.3659 550.856 70.3902C547.946 67.4144 544.375 65.8935 540.077 65.8935C535.778 65.8935 532.141 67.4144 529.232 70.3902C526.388 73.3659 524.933 77.2013 524.933 81.7641ZM572.744 101.602H567.652V61.9258H573.868L593.177 92.8075H593.376L593.177 85.1367V61.9258H598.269V101.602H592.979L572.81 69.266H572.612L572.81 76.9368V101.602H572.744Z" fill="white" stroke="white" stroke-width="1.32256" stroke-miterlimit="10"/>
<path d="M518.52 159.464C502.98 159.464 490.283 171.301 490.283 187.568C490.283 203.77 502.98 215.673 518.52 215.673C534.06 215.673 546.757 203.77 546.757 187.568C546.757 171.301 534.06 159.464 518.52 159.464ZM518.52 204.629C509.989 204.629 502.649 197.62 502.649 187.568C502.649 177.451 509.989 170.507 518.52 170.507C527.05 170.507 534.391 177.451 534.391 187.568C534.391 197.62 526.984 204.629 518.52 204.629ZM456.889 159.464C441.349 159.464 428.652 171.301 428.652 187.568C428.652 203.77 441.349 215.673 456.889 215.673C472.429 215.673 485.125 203.77 485.125 187.568C485.125 171.301 472.429 159.464 456.889 159.464ZM456.889 204.629C448.358 204.629 441.018 197.62 441.018 187.568C441.018 177.451 448.358 170.507 456.889 170.507C465.419 170.507 472.759 177.451 472.759 187.568C472.759 197.62 465.419 204.629 456.889 204.629ZM383.619 168.127V180.03H412.186C411.327 186.709 409.078 191.668 405.706 195.041C401.54 199.207 395.059 203.77 383.685 203.77C366.095 203.77 352.341 189.618 352.341 172.028C352.341 154.438 366.095 140.287 383.685 140.287C393.142 140.287 400.085 143.99 405.177 148.817L413.575 140.419C406.433 133.608 396.977 128.384 383.619 128.384C359.549 128.384 339.313 147.958 339.313 172.094C339.313 196.165 359.549 215.805 383.619 215.805C396.646 215.805 406.433 211.573 414.104 203.571C421.973 195.702 424.42 184.592 424.42 175.665C424.42 172.888 424.222 170.309 423.759 168.193H383.619V168.127ZM683.244 177.385C680.93 171.102 673.788 159.464 659.174 159.464C644.692 159.464 632.657 170.838 632.657 187.568C632.657 203.307 644.56 215.673 660.562 215.673C673.457 215.673 680.93 207.803 683.972 203.241L674.383 196.826C671.209 201.521 666.845 204.629 660.562 204.629C654.28 204.629 649.784 201.786 646.94 196.099L684.567 180.559L683.244 177.385ZM644.89 186.775C644.56 175.93 653.288 170.375 659.571 170.375C664.464 170.375 668.63 172.822 670.019 176.326L644.89 186.775ZM614.339 214.019H626.705V131.36H614.339V214.019ZM594.104 165.746H593.641C590.864 162.44 585.574 159.464 578.829 159.464C564.743 159.464 551.848 171.83 551.848 187.7C551.848 203.439 564.743 215.739 578.829 215.739C585.507 215.739 590.864 212.763 593.641 209.324H594.038V213.358C594.038 224.137 588.285 229.89 579.027 229.89C571.488 229.89 566.793 224.468 564.876 219.905L554.097 224.401C557.205 231.874 565.405 241 579.027 241C593.509 241 605.743 232.469 605.743 211.705V161.183H594.038V165.746H594.104ZM579.887 204.629C571.356 204.629 564.214 197.487 564.214 187.7C564.214 177.781 571.356 170.573 579.887 170.573C588.285 170.573 594.898 177.847 594.898 187.7C594.964 197.487 588.351 204.629 579.887 204.629ZM741.172 131.36H711.613V214.019H723.979V182.675H741.238C754.927 182.675 768.351 172.756 768.351 157.017C768.285 141.279 754.795 131.36 741.172 131.36ZM741.437 171.169H723.913V142.8H741.437C750.695 142.8 755.919 150.47 755.919 156.951C755.919 163.432 750.695 171.169 741.437 171.169ZM817.748 159.332C808.821 159.332 799.563 163.299 795.728 171.962L806.705 176.525C809.02 171.962 813.384 170.441 817.947 170.441C824.295 170.441 830.842 174.277 830.908 181.088V181.947C828.659 180.691 823.898 178.773 818.013 178.773C806.176 178.773 794.207 185.254 794.207 197.355C794.207 208.398 803.862 215.54 814.706 215.54C822.972 215.54 827.601 211.837 830.445 207.473H830.842V213.821H842.745V182.146C842.811 167.531 831.834 159.332 817.748 159.332ZM816.227 204.629C812.194 204.629 806.573 202.579 806.573 197.62C806.573 191.271 813.582 188.825 819.666 188.825C825.089 188.825 827.668 190.015 830.908 191.602C830.449 195.181 828.709 198.473 826.01 200.868C823.311 203.263 819.836 204.599 816.227 204.629ZM886.191 161.117L872.039 196.958H871.643L856.962 161.117H843.67L865.691 211.242L853.127 239.082H866.022L899.945 161.117H886.191ZM775.096 214.019H787.462V131.36H775.096V214.019Z" fill="white"/>
<g clip-path="url(#clip0_717_133)">
<path d="M187.701 165.042L213.183 189.496L219.07 195.392L117.934 251.66C110.707 255.68 102.795 255.873 96.0028 253.299C89.6134 250.618 84.6106 247.026 80.9299 238.701C79.6925 235.669 79 232.312 79 228.718V72.283C79 68.6888 79.6925 65.332 80.9299 62.2998L87.3116 68.6908L87.4709 68.8471L172.55 150.5L187.701 165.042Z" fill="white"/>
<path d="M238.13 184.786L258.52 173.442C276.493 163.443 276.493 137.557 258.52 127.558L238.13 116.213L219.07 105.609L117.934 49.3405C110.707 45.3196 102.795 45.1276 96.0029 47.7017L102.057 53.7651L187.701 135.96L202.85 150.5L227.77 174.415L227.929 174.571L238.13 184.786Z" fill="white"/>
</g>
<defs>
<clipPath id="clip0_717_133">
<rect width="200" height="209" fill="white" transform="translate(79 46)"/>
</clipPath>
</defs>
</svg>
