<svg width="24" height="24" viewBox="0 0 24 24" fill="none" xmlns="http://www.w3.org/2000/svg">
<g clip-path="url(#clip0_546_243)">
<path d="M10.8988 15.5864C10.6612 16.2961 10.4019 16.9922 10.1174 17.6794C9.69882 18.6905 9.22304 19.6842 8.67695 20.6742C8.66476 20.6953 8.65445 20.7192 8.64789 20.7431C8.58695 20.941 8.6971 21.1496 8.89492 21.211L11.0929 21.8897C11.2405 21.9347 11.4051 21.886 11.5021 21.7571C11.7093 21.4805 11.9005 21.1922 12.0773 20.888C12.0651 21.1711 12.0332 21.4646 11.9844 21.765C11.9446 21.9577 12.0613 22.1503 12.254 22.2024L16.4568 23.3278C16.6162 23.3756 16.7929 23.3119 16.8834 23.1619C16.9124 23.1155 16.9405 23.0663 16.9682 23.0185C16.9668 23.0583 16.9654 23.0967 16.963 23.1366C16.9429 23.317 17.0587 23.49 17.2382 23.5378L18.9149 23.9869C19.0794 24.031 19.2576 23.9578 19.3415 23.8022C19.784 22.9824 20.2054 22.1813 20.5865 21.2339C20.9052 20.4445 21.1926 19.561 21.4354 18.4955L11.2865 15.7753C11.143 15.7364 11.0132 15.6717 10.8988 15.5864Z" fill="white"/>
<path d="M21.4078 15.201C21.0956 14.5499 20.5242 14.0436 19.5797 13.791L14.8359 12.5193C14.8228 12.515 14.8078 12.5113 14.7933 12.5085C14.0161 12.3064 13.2295 12.4382 12.5836 12.8127C11.939 13.1863 11.4342 13.8027 11.2228 14.5691C11.2097 14.6061 11.2026 14.646 11.2026 14.6886C11.2026 14.8546 11.3128 15.006 11.4815 15.05L21.1879 17.6516V17.6502C21.2039 17.6539 21.2212 17.6582 21.2372 17.6596C21.4429 17.6863 21.629 17.5414 21.6558 17.3366C21.7533 16.5711 21.7083 15.8268 21.4078 15.201Z" fill="white"/>
<path d="M21.5781 1.56556C21.5818 1.55103 21.5861 1.5365 21.5889 1.5215C21.6671 1.20275 21.6128 0.879777 21.4586 0.613995C21.3043 0.348214 21.0531 0.13962 20.7395 0.0491516C20.7236 0.0439953 20.7076 0.0383704 20.6903 0.0360266C20.3729 -0.0422546 20.05 0.0121204 19.7828 0.166339H19.7842C19.5104 0.324308 19.2981 0.584933 19.2114 0.910245L16.21 12.1115L18.5818 12.7467L21.5781 1.56556Z" fill="white"/>
<path d="M5.76707 18.5469H2.67238C2.4652 18.5469 2.29785 18.7142 2.29785 18.9214C2.29785 19.1286 2.4652 19.2959 2.67238 19.2959H5.76707C5.97426 19.2959 6.14301 19.1286 6.14301 18.9214C6.14348 18.7142 5.97473 18.5469 5.76707 18.5469Z" fill="white"/>
<path d="M7.39746 15.9209H4.30324C4.09605 15.9209 3.92871 16.0882 3.92871 16.2954C3.92871 16.5026 4.09605 16.67 4.30324 16.67H7.39793C7.60512 16.67 7.77387 16.5026 7.77387 16.2954C7.77387 16.0887 7.60512 15.9209 7.39746 15.9209Z" fill="white"/>
<path d="M8.81257 9.63256C8.90023 9.59412 8.96539 9.52474 9.00148 9.44412C9.19414 9.01756 9.46273 8.62943 9.7932 8.2999C10.1227 7.97037 10.5094 7.70084 10.936 7.50912C11.1249 7.42521 11.2098 7.20349 11.1249 7.01506C11.0865 6.9274 11.0171 6.86224 10.936 6.82615C10.5094 6.6349 10.1227 6.3649 9.7932 6.03537C9.46226 5.70584 9.19414 5.31771 9.00148 4.89115C8.91757 4.70224 8.69726 4.61881 8.50835 4.70224C8.4207 4.74209 8.35554 4.81006 8.31945 4.89115C8.12679 5.31771 7.8582 5.70584 7.52773 6.03537C7.1982 6.3649 6.81148 6.63443 6.38492 6.82615C6.19601 6.91006 6.11117 7.13177 6.19601 7.32021C6.23445 7.40787 6.30382 7.47302 6.38492 7.50912C6.81148 7.70037 7.1982 7.97037 7.52773 8.2999C7.85867 8.62943 8.12679 9.01756 8.31945 9.44412C8.40335 9.63256 8.62414 9.71646 8.81257 9.63256Z" fill="white"/>
</g>
<defs>
<clipPath id="clip0_546_243">
<rect width="24" height="24" fill="white"/>
</clipPath>
</defs>
</svg>
