<svg width="14" height="14" viewBox="0 0 14 14" fill="none" xmlns="http://www.w3.org/2000/svg">
<path d="M5.76953 5.35938C5.54323 5.35938 5.35938 5.54323 5.35938 5.76953H6.17969C6.17969 5.54323 5.99583 5.35938 5.76953 5.35938Z" fill="white"/>
<path d="M12.7695 0.820312H12.332V0.410156C12.332 0.183449 12.1486 0 11.9219 0C11.6952 0 11.5117 0.183449 11.5117 0.410156V0.820312H9.87109V0.410156C9.87109 0.183449 9.68764 0 9.46094 0C9.23423 0 9.05078 0.183449 9.05078 0.410156V0.820312H7.41016V0.410156C7.41016 0.183449 7.22671 0 7 0C6.77329 0 6.58984 0.183449 6.58984 0.410156V0.820312H4.94922V0.410156C4.94922 0.183449 4.76577 0 4.53906 0C4.31236 0 4.12891 0.183449 4.12891 0.410156V0.820312H2.48828V0.410156C2.48828 0.183449 2.30483 0 2.07812 0C1.85142 0 1.66797 0.183449 1.66797 0.410156V0.820312H1.23047C0.551961 0.820312 0 1.37227 0 2.05078V2.46094H14V2.05078C14 1.37227 13.448 0.820312 12.7695 0.820312Z" fill="white"/>
<path d="M0 12.7695C0 13.448 0.551961 14 1.23047 14H12.7695C13.448 14 14 13.448 14 12.7695V3.28125H0V12.7695ZM9.87109 9.87109C9.87109 9.64439 10.0545 9.46094 10.2812 9.46094C10.508 9.46094 10.6914 9.64439 10.6914 9.87109V11.5117C10.6914 11.738 10.8753 11.9219 11.1016 11.9219C11.3279 11.9219 11.5117 11.738 11.5117 11.5117V9.87109C11.5117 9.64439 11.6952 9.46094 11.9219 9.46094C12.1486 9.46094 12.332 9.64439 12.332 9.87109V11.5117C12.332 12.1902 11.7801 12.7422 11.1016 12.7422C10.4231 12.7422 9.87109 12.1902 9.87109 11.5117V9.87109ZM9.46094 9.87109C9.46094 10.0978 9.27749 10.2812 9.05078 10.2812H8.02539C7.91243 10.2812 7.82031 10.3734 7.82031 10.4863C7.82031 10.5993 7.91243 10.6914 8.02539 10.6914H8.43555C9.00113 10.6914 9.46094 11.1512 9.46094 11.7168C9.46094 12.2824 9.00113 12.7422 8.43555 12.7422H7.41016C7.18345 12.7422 7 12.5587 7 12.332C7 12.1053 7.18345 11.9219 7.41016 11.9219H8.43555C8.5485 11.9219 8.64062 11.8298 8.64062 11.7168C8.64062 11.6038 8.5485 11.5117 8.43555 11.5117H8.02539C7.45981 11.5117 7 11.0519 7 10.4863C7 9.92075 7.45981 9.46094 8.02539 9.46094H9.05078C9.27749 9.46094 9.46094 9.64439 9.46094 9.87109ZM8.89695 6.2694C9.07361 6.41121 9.10243 6.66914 8.96104 6.84619L5.67979 10.9478C5.537 11.125 5.27931 11.1527 5.103 11.0118C4.92639 10.87 4.89754 10.6121 5.03893 10.4351L8.32018 6.3335C8.46237 6.15765 8.72033 6.12801 8.89695 6.2694ZM4.53906 5.76953C4.53906 5.09102 5.09102 4.53906 5.76953 4.53906C6.44804 4.53906 7 5.09102 7 5.76953V7.41016C7 7.63686 6.81655 7.82031 6.58984 7.82031C6.36314 7.82031 6.17969 7.63686 6.17969 7.41016V6.58984H5.35938V7.41016C5.35938 7.63686 5.17593 7.82031 4.94922 7.82031C4.72251 7.82031 4.53906 7.63686 4.53906 7.41016V5.76953ZM3.10352 6.58984H2.69336C2.12778 6.58984 1.66797 6.13003 1.66797 5.56445C1.66797 4.99887 2.12778 4.53906 2.69336 4.53906H3.71875C3.94546 4.53906 4.12891 4.72251 4.12891 4.94922C4.12891 5.17593 3.94546 5.35938 3.71875 5.35938H2.69336C2.5804 5.35938 2.48828 5.4515 2.48828 5.56445C2.48828 5.67741 2.5804 5.76953 2.69336 5.76953H3.10352C3.66909 5.76953 4.12891 6.22934 4.12891 6.79492C4.12891 7.3605 3.66909 7.82031 3.10352 7.82031H2.07812C1.85142 7.82031 1.66797 7.63686 1.66797 7.41016C1.66797 7.18345 1.85142 7 2.07812 7H3.10352C3.21647 7 3.30859 6.90788 3.30859 6.79492C3.30859 6.68196 3.21647 6.58984 3.10352 6.58984Z" fill="white"/>
</svg>
