<svg width="24" height="26" viewBox="0 0 24 26" fill="none" xmlns="http://www.w3.org/2000/svg">
<path d="M20.2682 9.03204L16.1552 11.4066C16.1552 11.3642 16.1128 11.2794 16.1128 11.237C16.028 11.0249 15.9432 10.8129 15.8584 10.6009L19.8866 8.2688C19.929 8.56561 20.0986 8.82003 20.2682 9.03204Z" fill="white"/>
<path d="M8.18361 10.6009C8.0564 10.8553 7.9292 11.1098 7.84439 11.4066L3.68896 9.03204C3.85857 8.82003 4.02818 8.56561 4.11299 8.2688L8.18361 10.6009Z" fill="white"/>
<path d="M4.11299 6.48778C4.02818 6.23337 3.85857 5.97895 3.68896 5.76694L9.54048 2.37476C9.62529 2.67157 9.7525 2.92599 9.8797 3.138L4.11299 6.48778Z" fill="white"/>
<path d="M1.73848 10.0072C1.86568 10.0072 2.03529 10.0072 2.1625 9.96484V16.622C2.03529 16.5796 1.86568 16.5796 1.73848 16.5796C1.61127 16.5796 1.44166 16.5796 1.31445 16.622V9.96484C1.44166 9.96484 1.56887 10.0072 1.73848 10.0072Z" fill="white"/>
<path d="M4.62198 20.3957C4.53718 20.6501 4.45237 20.9469 4.36757 21.2437L3.64673 20.8197C3.81634 20.6077 3.98595 20.3533 4.07075 20.0989L4.62198 20.3957Z" fill="white"/>
<path d="M8.60771 15.7313L4.15547 18.3178C4.07066 18.021 3.94346 17.809 3.73145 17.5546L8.22609 14.968L8.60771 15.7313Z" fill="white"/>
<path d="M12.4237 4.24048V8.3535C12.2965 8.3535 12.1269 8.3535 11.9997 8.3535C11.8725 8.3535 11.7029 8.3535 11.5757 8.3535V4.24048C11.7029 4.28288 11.8725 4.28288 11.9997 4.28288C12.1269 4.28288 12.2965 4.28288 12.4237 4.24048Z" fill="white"/>
<path d="M20.3104 5.76677C20.1408 5.97879 19.9711 6.2332 19.8863 6.48761L14.1196 3.18023C14.2892 2.96822 14.4164 2.67141 14.4588 2.41699L20.3104 5.76677Z" fill="white"/>
<path d="M20.2262 17.5546C20.0566 17.7666 19.887 18.021 19.8022 18.3178L15.3923 15.7313C15.5195 15.4768 15.6467 15.2224 15.774 14.968L20.2262 17.5546Z" fill="white"/>
<path d="M20.3108 20.8197L19.6323 21.2437C19.5899 20.9469 19.5051 20.6925 19.3779 20.3957L19.8868 20.0989C19.9716 20.3533 20.1412 20.6077 20.3108 20.8197Z" fill="white"/>
<path d="M22.685 9.96484V16.622C22.5578 16.5796 22.3881 16.5796 22.2609 16.5796C22.1337 16.5796 21.9641 16.5796 21.8369 16.622V9.96484C21.9641 10.0072 22.1337 10.0072 22.2609 10.0072C22.3881 10.0072 22.5578 9.96484 22.685 9.96484Z" fill="white"/>
<path d="M3.47699 19.166C3.47699 20.1412 2.71375 20.9045 1.73849 20.9045C0.805644 20.9045 0 20.1412 0 19.166C0 18.2331 0.763242 17.4275 1.73849 17.4275C2.71375 17.4275 3.47699 18.2331 3.47699 19.166Z" fill="white"/>
<path d="M3.47699 7.42062C3.47699 8.35347 2.71375 9.15912 1.73849 9.15912C0.805644 9.15912 0 8.39588 0 7.42062C0 6.48777 0.763242 5.68213 1.73849 5.68213C2.67135 5.72453 3.47699 6.48777 3.47699 7.42062Z" fill="white"/>
<path d="M13.7382 1.73849C13.7382 2.67135 12.975 3.47699 11.9997 3.47699C11.0245 3.47699 10.2612 2.71375 10.2612 1.73849C10.2612 0.805644 11.0245 0 11.9997 0C12.9326 0 13.7382 0.763242 13.7382 1.73849Z" fill="white"/>
<path d="M23.9999 7.42062C23.9999 8.35347 23.2367 9.15912 22.2614 9.15912C21.2862 9.15912 20.5229 8.39588 20.5229 7.42062C20.5229 6.48777 21.2862 5.68213 22.2614 5.68213C23.1943 5.72453 23.9999 6.48777 23.9999 7.42062Z" fill="white"/>
<path d="M23.9999 19.166C23.9999 20.0988 23.2367 20.9045 22.2614 20.9045C21.3286 20.9045 20.5229 20.1412 20.5229 19.166C20.5229 18.2331 21.2862 17.4275 22.2614 17.4275C23.1943 17.4275 23.9999 18.1907 23.9999 19.166Z" fill="white"/>
<path d="M8.56543 12.5935C8.56543 10.6854 10.0919 9.15894 12 9.15894C13.4841 9.15894 14.7986 10.0918 15.265 11.4911C15.689 12.6783 15.3074 14.4168 14.3745 15.6889C13.6961 16.6641 12.8481 17.2154 12 17.2154C10.0495 17.2154 8.56543 14.4168 8.56543 12.5935Z" fill="white"/>
<path d="M18.869 22.3886V25.1447C18.869 25.3991 18.657 25.5687 18.4449 25.5687H5.55464C5.30022 25.5687 5.13062 25.3991 5.13062 25.1447V22.3886C5.13062 19.8444 7.12352 17.7243 9.62526 17.5547H14.3743C16.9185 17.7243 18.869 19.8444 18.869 22.3886Z" fill="white"/>
</svg>
