<svg width="24" height="24" viewBox="0 0 24 24" fill="none" xmlns="http://www.w3.org/2000/svg">
<g clip-path="url(#clip0_546_268)">
<path fill-rule="evenodd" clip-rule="evenodd" d="M19.0761 14.2203C19.2545 14.8672 19.355 15.4518 19.355 15.9485C19.355 20.3953 15.7501 24.0002 11.3034 24.0002C6.85653 24.0002 3.25171 20.3953 3.25171 15.9485C3.25171 11.5017 11.3034 0 11.3034 0C11.3034 0 13.0918 2.5549 14.9825 5.72274C14.8983 5.85866 14.8151 5.99508 14.733 6.13205C14.0826 7.21625 13.0533 9.03763 13.0533 10.2968C13.0533 12.6651 14.9738 14.5856 17.342 14.5856C17.9592 14.5856 18.5458 14.455 19.0761 14.2203Z" fill="white"/>
<path fill-rule="evenodd" clip-rule="evenodd" d="M20.7485 10.2967C20.7485 12.1781 19.2233 13.7032 17.342 13.7032C15.4607 13.7032 13.9355 12.1781 13.9355 10.2967C13.9355 9.41106 14.6905 7.91805 15.4896 6.58582C16.3879 5.08804 17.342 3.79346 17.342 3.79346C17.342 3.79346 20.7485 8.41538 20.7485 10.2967Z" fill="white"/>
</g>
<defs>
<clipPath id="clip0_546_268">
<rect width="24" height="24" fill="white"/>
</clipPath>
</defs>
</svg>
