<svg width="27" height="22" viewBox="0 0 27 22" fill="none" xmlns="http://www.w3.org/2000/svg">
<path d="M8.19589 15.3818C7.54176 14.2274 7.54176 12.8037 8.19589 11.6494L11.4281 6.07C10.4661 5.68521 9.38872 5.45435 8.27285 5.45435C3.69392 5.45435 0 9.14827 0 13.7272C0 18.3061 3.69392 22 8.27285 22C11.582 22 14.4679 20.0376 15.7761 17.2287H11.4281C10.0813 17.2287 8.8885 16.5361 8.19589 15.3818Z" fill="white"/>
<path d="M26.55 12.6498L19.7394 0.836904C19.0852 -0.278968 17.4691 -0.278968 16.815 0.836904L10.0043 12.6498C9.35022 13.7656 10.1583 15.1893 11.4665 15.1893H25.1263C26.3961 15.1893 27.2042 13.7656 26.55 12.6498Z" fill="white"/>
</svg>
