<svg width="24" height="24" viewBox="0 0 24 24" fill="none" xmlns="http://www.w3.org/2000/svg">
<g clip-path="url(#clip0_546_200)">
<path d="M7.50042 3H16.5004L16.5015 12.2589L19.5004 15.2578V3C19.5004 1.34546 18.155 0 16.5004 0H7.50042C6.60742 0 5.81339 0.399812 5.26343 1.02081L7.50042 3.25781L7.50042 3Z" fill="white"/>
<path d="M23.9999 21.8789L2.12109 0L0 2.12109L4.5 6.62109V21C4.5 22.6545 5.84546 24 7.5 24H16.5C17.9614 24 19.1779 22.9492 19.443 21.5641L21.8789 24L23.9999 21.8789ZM11.9999 22.4999C11.1715 22.4999 10.4999 21.8283 10.4999 20.9999C10.4999 20.1715 11.1715 19.4999 11.9999 19.4999C12.8284 19.4999 13.4999 20.1715 13.4999 20.9999C13.4999 21.8283 12.8284 22.4999 11.9999 22.4999ZM7.49994 17.9999V9.62103L15.8789 17.9999H7.49994Z" fill="white"/>
</g>
<defs>
<clipPath id="clip0_546_200">
<rect width="24" height="24" fill="white"/>
</clipPath>
</defs>
</svg>
