<svg width="22" height="22" viewBox="0 0 22 22" fill="none" xmlns="http://www.w3.org/2000/svg">
<path d="M19.4807 10.8218L18.1323 9.22504C18.079 9.17181 18.0081 9.13633 17.9194 9.13633H6.38708C5.74836 8.17826 4.64836 7.59277 3.47739 7.59277C1.579 7.59277 0.0177002 9.11858 0.0177002 10.9992C0.0177002 12.8799 1.579 14.4057 3.49513 14.4057C4.6661 14.4057 5.76611 13.8202 6.40482 12.8621H17.9371C18.0081 12.8621 18.0968 12.8267 18.15 12.7734L19.4984 11.1767C19.5694 11.0702 19.5694 10.9283 19.4807 10.8218ZM4.54191 12.0105V12.5783H2.18222V12.4896C2.18222 12.1347 2.27093 11.8509 2.44835 11.6202C2.62577 11.4073 2.94513 11.1767 3.42416 10.9105C3.63707 10.8041 3.779 10.6976 3.84997 10.5912C3.92094 10.5025 3.95642 10.396 3.95642 10.2541C3.95642 10.1121 3.9032 10.0057 3.79674 9.91697C3.69029 9.82826 3.5661 9.77504 3.38868 9.77504C3.21126 9.77504 3.08706 9.82826 2.99835 9.93472C2.8919 10.0767 2.83868 10.2541 2.83868 10.467V10.5557H2.27093V10.467C2.27093 10.0944 2.35964 9.81052 2.57255 9.59762C2.78545 9.38471 3.08706 9.27826 3.4419 9.27826C3.76126 9.27826 4.02739 9.36697 4.24029 9.56213C4.4532 9.7573 4.55965 9.98794 4.55965 10.2896C4.55965 10.5379 4.48868 10.7508 4.36449 10.9105C4.24029 11.0702 4.00965 11.2299 3.65481 11.425C3.29997 11.6202 3.06932 11.7799 2.94513 11.9396C2.92739 11.975 2.90964 11.9928 2.8919 12.0283H4.54191V12.0105Z" fill="white"/>
<path d="M21.9291 18.4156L20.5807 16.8188C20.5274 16.7656 20.4565 16.7301 20.3678 16.7301H6.40482C5.76611 15.772 4.6661 15.1865 3.49513 15.1865C1.579 15.1865 0.0177002 16.7123 0.0177002 18.593C0.0177002 20.4736 1.579 21.9994 3.49513 21.9994C4.6661 21.9994 5.76611 21.414 6.40482 20.4559H20.3678C20.4387 20.4559 20.5274 20.4204 20.5807 20.3672L21.9291 18.7704C22.0178 18.664 22.0178 18.522 21.9291 18.4156ZM4.27578 19.9769C4.04513 20.172 3.76126 20.2785 3.40642 20.2785C3.03384 20.2785 2.73222 20.1898 2.53706 19.9946C2.3419 19.8172 2.23545 19.5333 2.21771 19.1607V19.072H2.82093V19.1607C2.83868 19.3736 2.8919 19.5333 2.99835 19.622C3.08706 19.7107 3.229 19.7462 3.4419 19.7462C3.61932 19.7462 3.76126 19.693 3.86771 19.6043C3.97416 19.5156 4.02739 19.3914 4.02739 19.2494C4.02739 19.0898 3.97416 18.9656 3.86771 18.8769C3.779 18.8059 3.67255 18.7527 3.53061 18.7349C3.45965 18.7349 3.38868 18.7349 3.31771 18.7349C3.229 18.7349 3.21126 18.7349 3.21126 18.7349L3.10481 18.7704V18.2027L3.21126 18.2204H3.33545C3.40642 18.2204 3.45965 18.2204 3.53061 18.2027C3.63707 18.1849 3.72578 18.1494 3.79674 18.0962C3.88545 18.0252 3.92094 17.9365 3.92094 17.7946C3.92094 17.6704 3.86771 17.5817 3.779 17.493C3.67255 17.4043 3.54836 17.3688 3.38868 17.3688C3.229 17.3688 3.10481 17.422 3.0161 17.5107C2.92739 17.5994 2.87416 17.7591 2.87416 17.972V18.0607H2.30642V17.972C2.30642 17.6172 2.39513 17.351 2.59029 17.1559C2.78545 16.9607 3.05158 16.8543 3.40642 16.8543C3.72578 16.8543 3.99191 16.943 4.20481 17.1027C4.41771 17.2623 4.52417 17.493 4.52417 17.7591C4.52417 18.0252 4.41771 18.2559 4.20481 18.4156C4.24029 18.4333 4.25804 18.451 4.29352 18.4688C4.50642 18.6462 4.63062 18.8769 4.63062 19.1607C4.61288 19.5156 4.50642 19.7817 4.27578 19.9769Z" fill="white"/>
<path d="M17.2275 3.22904L15.8791 1.63226C15.8259 1.57904 15.7549 1.54355 15.6662 1.54355H6.38712C5.7484 0.585486 4.6484 0 3.47743 0C1.5613 0 0 1.52581 0 3.40646C0 5.28711 1.5613 6.81292 3.47743 6.81292C4.6484 6.81292 5.7484 6.22744 6.38712 5.26937H15.6662C15.7371 5.26937 15.8259 5.23389 15.8791 5.18066L17.2275 3.58388C17.2984 3.47743 17.2984 3.33549 17.2275 3.22904ZM3.86775 5.10969H3.26453V2.89194H2.51936V2.39517H2.60807C2.80323 2.39517 2.96291 2.35968 3.08711 2.27097C3.2113 2.18227 3.30001 2.04033 3.37098 1.86291L3.38872 1.79194H3.86775V5.10969Z" fill="white"/>
</svg>
