<svg width="170" height="170" viewBox="0 0 170 170" fill="none" xmlns="http://www.w3.org/2000/svg">
<path d="M72.4058 6.29785C74.144 6.29785 75.5547 4.88894 75.5547 3.14893C75.5547 1.41068 74.1458 0 72.4058 0C70.6675 0 69.2568 1.40892 69.2568 3.14893C69.2568 4.88894 70.6675 6.29785 72.4058 6.29785Z" fill="#131515"/>
<path d="M84.998 6.29785C86.7363 6.29785 88.1452 4.88894 88.1452 3.14893C88.1452 1.41068 86.7363 0 84.998 0C83.2598 0 81.8491 1.40892 81.8491 3.14893C81.8491 4.88894 83.2598 6.29785 84.998 6.29785Z" fill="#131515"/>
<path d="M91.2944 6.29785C93.0326 6.29785 94.4415 4.88894 94.4415 3.14893C94.4415 1.41068 93.0326 0 91.2944 0C89.5561 0 88.1454 1.40892 88.1454 3.14893C88.1454 4.88894 89.5561 6.29785 91.2944 6.29785Z" fill="#131515"/>
<path d="M110.182 6.29785C111.921 6.29785 113.331 4.88894 113.331 3.14893C113.331 1.41068 111.922 0 110.182 0C108.444 0 107.035 1.40892 107.035 3.14893C107.035 4.88894 108.444 6.29785 110.182 6.29785Z" fill="#131515"/>
<path d="M62.9609 12.5957C64.6992 12.5957 66.1081 11.1868 66.1081 9.44678C66.1081 7.70853 64.6992 6.29785 62.9609 6.29785C61.2227 6.29785 59.812 7.70677 59.812 9.44678C59.8138 11.185 61.2227 12.5957 62.9609 12.5957Z" fill="#131515"/>
<path d="M91.2943 9.44678C91.2943 11.185 92.7032 12.5957 94.4415 12.5957C96.1797 12.5957 97.5904 11.1868 97.5904 9.44678C97.5904 7.70853 96.1815 6.29785 94.4415 6.29785C92.7032 6.29785 91.2943 7.70853 91.2943 9.44678Z" fill="#131515"/>
<path d="M66.1099 18.8916C67.849 18.8916 69.2588 17.4818 69.2588 15.7427C69.2588 14.0036 67.849 12.5938 66.1099 12.5938C64.3707 12.5938 62.9609 14.0036 62.9609 15.7427C62.9609 17.4818 64.3707 18.8916 66.1099 18.8916Z" fill="#131515"/>
<path d="M84.998 18.8898C86.7363 18.8898 88.1452 17.4809 88.1452 15.7427C88.1452 14.0044 86.7363 12.5938 84.998 12.5938C83.2598 12.5938 81.8491 14.0027 81.8491 15.7427C81.8491 17.4809 83.2598 18.8898 84.998 18.8898Z" fill="#131515"/>
<path d="M91.2944 18.8898C93.0326 18.8898 94.4415 17.4809 94.4415 15.7427C94.4415 14.0044 93.0326 12.5938 91.2944 12.5938C89.5561 12.5938 88.1454 14.0027 88.1454 15.7427C88.1454 17.4809 89.5561 18.8898 91.2944 18.8898Z" fill="#131515"/>
<path d="M62.9609 25.1867C64.6992 25.1867 66.1081 23.7778 66.1081 22.0396C66.1081 20.3013 64.6992 18.8906 62.9609 18.8906C61.2227 18.8906 59.812 20.2995 59.812 22.0396C59.8138 23.776 61.2227 25.1867 62.9609 25.1867Z" fill="#131515"/>
<path d="M94.4415 18.8887C92.7032 18.8887 91.2943 20.2976 91.2943 22.0376C91.2943 23.7759 92.7032 25.1848 94.4415 25.1848C96.1797 25.1848 97.5904 23.7759 97.5904 22.0376C97.5904 20.2994 96.1815 18.8887 94.4415 18.8887Z" fill="#131515"/>
<path d="M107.035 25.1867C108.774 25.1867 110.183 23.7778 110.183 22.0396C110.183 20.3013 108.774 18.8906 107.035 18.8906C105.297 18.8906 103.886 20.2995 103.886 22.0396C103.886 23.776 105.295 25.1867 107.035 25.1867Z" fill="#131515"/>
<path d="M160.551 22.0376C160.551 23.7759 161.96 25.1848 163.7 25.1848C165.438 25.1848 166.849 23.7759 166.849 22.0376C166.849 20.2994 165.44 18.8887 163.7 18.8887C161.962 18.8887 160.551 20.2994 160.551 22.0376Z" fill="#131515"/>
<path d="M72.4058 31.4836C74.144 31.4836 75.5547 30.0747 75.5547 28.3364C75.5547 26.5982 74.1458 25.1875 72.4058 25.1875C70.6675 25.1875 69.2568 26.5964 69.2568 28.3364C69.2568 30.0729 70.6675 31.4836 72.4058 31.4836Z" fill="#131515"/>
<path d="M103.886 31.4836C105.624 31.4836 107.035 30.0747 107.035 28.3364C107.035 26.5982 105.626 25.1875 103.886 25.1875C102.148 25.1875 100.737 26.5964 100.737 28.3364C100.737 30.0729 102.148 31.4836 103.886 31.4836Z" fill="#131515"/>
<path d="M110.182 31.4836C111.921 31.4836 113.331 30.0747 113.331 28.3364C113.331 26.5982 111.922 25.1875 110.182 25.1875C108.444 25.1875 107.035 26.5964 107.035 28.3364C107.035 30.0729 108.444 31.4836 110.182 31.4836Z" fill="#131515"/>
<path d="M81.8492 37.7795C83.5875 37.7795 84.9981 36.3706 84.9981 34.6323C84.9981 32.8941 83.5892 31.4834 81.8492 31.4834C80.111 31.4834 78.7003 32.8923 78.7003 34.6323C78.7021 36.3688 80.111 37.7795 81.8492 37.7795Z" fill="#131515"/>
<path d="M104.26 17.5603C104.456 15.8332 103.216 14.272 101.489 14.0751C99.7623 13.8781 98.2011 15.1181 98.004 16.8469C97.807 18.574 99.0471 20.1352 100.776 20.3323C102.501 20.5273 104.063 19.2873 104.26 17.5603Z" fill="#131515"/>
<path d="M113.648 56.8708C113.845 55.1437 112.604 53.5825 110.877 53.3856C109.15 53.1887 107.589 54.4287 107.392 56.1575C107.195 57.8845 108.435 59.4458 110.164 59.6429C111.889 59.8379 113.451 58.5979 113.648 56.8708Z" fill="#131515"/>
<path d="M88.1451 37.7795C89.8833 37.7795 91.294 36.3706 91.294 34.6323C91.294 32.8941 89.8851 31.4834 88.1451 31.4834C86.4068 31.4834 84.9979 32.8923 84.9979 34.6323C84.9979 36.3688 86.4068 37.7795 88.1451 37.7795Z" fill="#131515"/>
<path d="M104.973 11.3052C105.17 9.57812 103.93 8.01686 102.203 7.81993C100.476 7.623 98.9144 8.86306 98.7173 10.5919C98.5203 12.3189 99.7606 13.8784 101.489 14.0755C103.215 14.2722 104.776 13.0322 104.973 11.3052Z" fill="#131515"/>
<path d="M114.361 50.6157C114.558 48.8887 113.318 47.3274 111.591 47.1305C109.864 46.9335 108.302 48.1736 108.105 49.9024C107.908 51.6295 109.149 53.1889 110.877 53.3861C112.603 53.5828 114.164 52.3428 114.361 50.6157Z" fill="#131515"/>
<path d="M140.504 84.4341C140.701 82.707 139.461 81.1458 137.734 80.9488C136.007 80.7519 134.445 81.992 134.248 83.7208C134.051 85.4478 135.291 87.0073 137.02 87.2044C138.746 87.4011 140.307 86.1611 140.504 84.4341Z" fill="#131515"/>
<path d="M142.229 107.017C142.426 105.29 141.186 103.729 139.459 103.532C137.732 103.335 136.171 104.575 135.974 106.304C135.777 108.031 137.017 109.59 138.746 109.787C140.471 109.984 142.032 108.744 142.229 107.017Z" fill="#131515"/>
<path d="M126.279 120.364C126.476 118.637 125.236 117.075 123.509 116.879C121.782 116.682 120.221 117.922 120.024 119.65C119.827 121.378 121.067 122.937 122.796 123.134C124.521 123.331 126.082 122.091 126.279 120.364Z" fill="#131515"/>
<path d="M121.33 141.689C121.527 139.962 120.287 138.401 118.559 138.204C116.832 138.007 115.271 139.247 115.074 140.976C114.877 142.703 116.117 144.262 117.846 144.459C119.571 144.656 121.133 143.416 121.33 141.689Z" fill="#131515"/>
<path d="M131.445 143.323C131.642 141.596 130.402 140.034 128.675 139.838C126.948 139.641 125.387 140.881 125.19 142.609C124.993 144.337 126.233 145.896 127.962 146.093C129.687 146.29 131.249 145.05 131.445 143.323Z" fill="#131515"/>
<path d="M147.604 137.909C147.801 136.182 146.561 134.62 144.834 134.423C143.107 134.227 141.546 135.467 141.348 137.195C141.151 138.922 142.392 140.482 144.12 140.679C145.846 140.876 147.407 139.636 147.604 137.909Z" fill="#131515"/>
<path d="M140.504 137.281C140.701 135.554 139.461 133.992 137.734 133.796C136.007 133.599 134.445 134.839 134.248 136.567C134.051 138.295 135.291 139.854 137.02 140.051C138.746 140.248 140.307 139.008 140.504 137.281Z" fill="#131515"/>
<path d="M152.66 146.094C152.857 144.367 151.617 142.806 149.89 142.609C148.163 142.412 146.602 143.652 146.405 145.381C146.208 147.108 147.448 148.667 149.177 148.865C150.902 149.061 152.464 147.821 152.66 146.094Z" fill="#131515"/>
<path d="M102.202 135.584C102.399 133.857 101.159 132.296 99.4316 132.099C97.7045 131.902 96.1433 133.142 95.9462 134.871C95.7492 136.598 96.9894 138.158 98.7182 138.355C100.444 138.552 102.005 137.312 102.202 135.584Z" fill="#131515"/>
<path d="M102.915 144.877C103.112 143.15 101.872 141.589 100.145 141.392C98.4178 141.195 96.8565 142.435 96.6594 144.164C96.4625 145.891 97.7027 147.451 99.4315 147.648C101.157 147.845 102.718 146.605 102.915 144.877Z" fill="#131515"/>
<path d="M76.5037 152.35C76.7006 150.623 75.4606 149.062 73.7336 148.865C72.0065 148.668 70.4453 149.908 70.2482 151.637C70.0512 153.364 71.2914 154.923 73.0202 155.12C74.7456 155.317 76.3068 154.077 76.5037 152.35Z" fill="#131515"/>
<path d="M88.5025 155.834C88.6994 154.107 87.4594 152.546 85.7323 152.349C84.0053 152.152 82.4441 153.392 82.2469 155.121C82.05 156.848 83.2902 158.408 85.019 158.605C86.7443 158.802 88.3056 157.562 88.5025 155.834Z" fill="#131515"/>
<path d="M84.5992 144.46C84.7961 142.733 83.5561 141.172 81.829 140.975C80.102 140.778 78.5407 142.018 78.3436 143.747C78.1467 145.474 79.3869 147.034 81.1157 147.231C82.841 147.428 84.4022 146.188 84.5992 144.46Z" fill="#131515"/>
<path d="M75.5318 134.72C75.7287 132.993 74.4887 131.432 72.7616 131.235C71.0346 131.038 69.4734 132.278 69.2762 134.007C69.0793 135.734 70.3195 137.293 72.0483 137.491C73.7736 137.687 75.3349 136.447 75.5318 134.72Z" fill="#131515"/>
<path d="M57.8099 124.602C58.0068 122.875 56.7668 121.314 55.0397 121.117C53.3127 120.92 51.7514 122.16 51.5543 123.889C51.3574 125.616 52.5976 127.175 54.3264 127.372C56.0517 127.569 57.6129 126.329 57.8099 124.602Z" fill="#131515"/>
<path d="M53.8742 100.048C54.0711 98.3213 52.8311 96.76 51.104 96.5631C49.377 96.3662 47.8158 97.6062 47.6186 99.335C47.4217 101.062 48.6619 102.622 50.3907 102.819C52.116 103.015 53.6773 101.775 53.8742 100.048Z" fill="#131515"/>
<path d="M38.379 97.6138C38.5759 95.8867 37.3359 94.3255 35.6088 94.1285C33.8817 93.9316 32.3205 95.1717 32.1234 96.9005C31.9265 98.6275 33.1667 100.187 34.8955 100.384C36.6208 100.581 38.182 99.3408 38.379 97.6138Z" fill="#131515"/>
<path d="M23.0372 94.8013C23.2341 93.0742 21.9941 91.513 20.267 91.316C18.54 91.1191 16.9787 92.3592 16.7816 94.088C16.5847 95.815 17.8249 97.3745 19.5537 97.5716C21.279 97.7683 22.8402 96.5283 23.0372 94.8013Z" fill="#131515"/>
<path d="M20.4424 87.9185C20.6394 86.1914 19.3993 84.6301 17.6723 84.4332C15.9452 84.2363 14.384 85.4763 14.1869 87.2052C13.9899 88.9322 15.2302 90.4917 16.959 90.6888C18.6843 90.8855 20.2455 89.6455 20.4424 87.9185Z" fill="#131515"/>
<path d="M16.9581 80.1733C17.155 78.4463 15.915 76.885 14.1879 76.6881C12.4609 76.4912 10.8996 77.7312 10.7025 79.46C10.5056 81.1871 11.7458 82.7465 13.4746 82.9437C15.1999 83.1404 16.7611 81.9004 16.9581 80.1733Z" fill="#131515"/>
<path d="M32.6993 84.4341C32.8962 82.707 31.6562 81.1458 29.9291 80.9488C28.2021 80.7519 26.6408 81.992 26.4437 83.7208C26.2468 85.4478 27.487 87.0073 29.2158 87.2044C30.9411 87.4011 32.5023 86.1611 32.6993 84.4341Z" fill="#131515"/>
<path d="M31.7966 76.2485C31.9935 74.5215 30.7535 72.9602 29.0264 72.7633C27.2994 72.5664 25.7381 73.8064 25.541 75.5352C25.3441 77.2623 26.5843 78.8217 28.3131 79.0189C30.0384 79.2156 31.5996 77.9756 31.7966 76.2485Z" fill="#131515"/>
<path d="M28.69 53.3872C28.8869 51.6602 27.6469 50.0989 25.9198 49.902C24.1928 49.705 22.6316 50.9451 22.4344 52.6739C22.2375 54.401 23.4777 55.9604 25.2065 56.1575C26.9318 56.3543 28.4931 55.1143 28.69 53.3872Z" fill="#131515"/>
<path d="M15.719 53.5415C15.916 51.8145 14.676 50.2532 12.9489 50.0563C11.2218 49.8593 9.66062 51.0994 9.46349 52.8282C9.26655 54.5553 10.5068 56.1147 12.2356 56.3118C13.9609 56.5086 15.5221 55.2686 15.719 53.5415Z" fill="#131515"/>
<path d="M6.65263 54.2544C6.84957 52.5273 5.60955 50.9661 3.88249 50.7691C2.15543 50.5722 0.594213 51.8123 0.39708 53.5411C0.200147 55.2681 1.44037 56.8276 3.16918 57.0247C4.89448 57.2215 6.4557 55.9815 6.65263 54.2544Z" fill="#131515"/>
<path d="M24.7854 109.789C24.9824 108.062 23.7424 106.5 22.0153 106.303C20.2882 106.106 18.727 107.346 18.5299 109.075C18.333 110.802 19.5732 112.362 21.302 112.559C23.0273 112.756 24.5885 111.516 24.7854 109.789Z" fill="#131515"/>
<path d="M58.9283 57.3608C59.1252 55.6338 57.8852 54.0725 56.1581 53.8756C54.4311 53.6787 52.8698 54.9187 52.6727 56.6475C52.4758 58.3746 53.716 59.934 55.4448 60.1312C57.1701 60.3279 58.7313 59.0879 58.9283 57.3608Z" fill="#131515"/>
<path d="M58.5231 30.7915C58.7201 29.0645 57.48 27.5032 55.753 27.3063C54.0259 27.1093 52.4647 28.3494 52.2676 30.0782C52.0706 31.8053 53.3109 33.3647 55.0397 33.5618C56.765 33.7586 58.3262 32.5186 58.5231 30.7915Z" fill="#131515"/>
<path d="M66.6189 32.937C66.8159 31.21 65.5759 29.6487 63.8488 29.4518C62.1217 29.2548 60.5605 30.4949 60.3634 32.2237C60.1665 33.9508 61.4067 35.5102 63.1355 35.7073C64.8608 35.9041 66.422 34.6641 66.6189 32.937Z" fill="#131515"/>
<path d="M87.6359 44.4351C87.8328 42.708 86.5928 41.1467 84.8658 40.9498C83.1387 40.7529 81.5775 41.9929 81.3804 43.7218C81.1834 45.4488 82.4236 47.0083 84.1525 47.2054C85.8778 47.4021 87.439 46.1621 87.6359 44.4351Z" fill="#131515"/>
<path d="M83.8859 56.648C84.0828 54.9209 82.8428 53.3596 81.1158 53.1627C79.3887 52.9658 77.8275 54.2058 77.6304 55.9346C77.4334 57.6617 78.6736 59.2211 80.4025 59.4183C82.1278 59.615 83.689 58.375 83.8859 56.648Z" fill="#131515"/>
<path d="M79.9881 18.2749C80.185 16.5478 78.945 14.9866 77.2179 14.7897C75.4909 14.5927 73.9297 15.8328 73.7325 17.5616C73.5356 19.2887 74.7758 20.8481 76.5046 21.0452C78.2299 21.242 79.7912 20.002 79.9881 18.2749Z" fill="#131515"/>
<path d="M60.3633 14.1108C60.5603 12.3838 59.3202 10.8225 57.5932 10.6256C55.8661 10.4287 54.3049 11.6687 54.1078 13.3975C53.9108 15.1246 55.1511 16.684 56.8799 16.8812C58.6052 17.0779 60.1664 15.8379 60.3633 14.1108Z" fill="#131515"/>
<path d="M58.9283 5.60987C59.1252 3.88281 57.8852 2.32155 56.1581 2.12462C54.4311 1.92768 52.8698 3.16775 52.6727 4.89656C52.4758 6.62362 53.716 8.18306 55.4448 8.38019C57.1701 8.57693 58.7313 7.33693 58.9283 5.60987Z" fill="#131515"/>
<path d="M82.7593 8.54639C82.9563 6.81933 81.7162 5.25807 79.9892 5.06114C78.2621 4.86421 76.7009 6.10427 76.5038 7.83308C76.3068 9.56014 77.5471 11.1196 79.2759 11.3167C81.0012 11.5134 82.5624 10.2734 82.7593 8.54639Z" fill="#131515"/>
<path d="M94.4415 37.7795C96.1797 37.7795 97.5904 36.3706 97.5904 34.6323C97.5904 32.8941 96.1815 31.4834 94.4415 31.4834C92.7032 31.4834 91.2943 32.8923 91.2943 34.6323C91.2943 36.3688 92.7032 37.7795 94.4415 37.7795Z" fill="#131515"/>
<path d="M105.686 5.04932C105.883 3.32226 104.643 1.76106 102.916 1.56412C101.189 1.36719 99.6277 2.6072 99.4305 4.33601C99.2336 6.06307 100.474 7.62251 102.203 7.81965C103.928 8.01638 105.489 6.77638 105.686 5.04932Z" fill="#131515"/>
<path d="M115.074 44.3599C115.271 42.6328 114.031 41.0716 112.304 40.8747C110.577 40.6777 109.016 41.9178 108.819 43.6466C108.622 45.3736 109.862 46.9331 111.591 47.1302C113.316 47.3269 114.877 46.0869 115.074 44.3599Z" fill="#131515"/>
<path d="M110.182 34.6304C110.182 36.3686 111.591 37.7775 113.331 37.7775C115.07 37.7775 116.478 36.3686 116.478 34.6304C116.478 32.8921 115.07 31.4814 113.331 31.4814C111.591 31.4832 110.182 32.8921 110.182 34.6304Z" fill="#131515"/>
<path d="M122.775 44.0764C124.513 44.0764 125.924 42.6674 125.924 40.9274C125.924 39.1892 124.515 37.7803 122.775 37.7803C121.037 37.7803 119.626 39.1892 119.626 40.9274C119.628 42.6657 121.037 44.0764 122.775 44.0764Z" fill="#131515"/>
<path d="M53.5177 37.7803C51.7794 37.7803 50.3688 39.1892 50.3688 40.9274C50.3688 42.6657 51.7777 44.0764 53.5177 44.0764C55.2577 44.0764 56.6666 42.6674 56.6666 40.9274C56.6648 39.1892 55.2559 37.7803 53.5177 37.7803Z" fill="#131515"/>
<path d="M59.8138 44.0764C61.5521 44.0764 62.9627 42.6674 62.9627 40.9274C62.9627 39.1892 61.5538 37.7803 59.8138 37.7803C58.0756 37.7803 56.6666 39.1892 56.6666 40.9274C56.6649 42.6657 58.0756 44.0764 59.8138 44.0764Z" fill="#131515"/>
<path d="M72.4058 44.0764C74.144 44.0764 75.5547 42.6674 75.5547 40.9274C75.5547 39.1892 74.1458 37.7803 72.4058 37.7803C70.6675 37.7803 69.2568 39.1892 69.2568 40.9274C69.2568 42.6657 70.6675 44.0764 72.4058 44.0764Z" fill="#131515"/>
<path d="M94.4414 40.9274C94.4414 42.6657 95.8503 44.0764 97.5903 44.0764C99.3286 44.0764 100.738 42.6674 100.738 40.9274C100.738 39.1892 99.3286 37.7803 97.5903 37.7803C95.8521 37.7803 94.4414 39.1892 94.4414 40.9274Z" fill="#131515"/>
<path d="M59.8136 47.2243C59.8136 45.4861 58.4046 44.0771 56.6664 44.0771C54.9281 44.0771 53.5175 45.4861 53.5175 47.2243C53.5175 48.9626 54.9264 50.3732 56.6664 50.3732C58.4029 50.3732 59.8136 48.9626 59.8136 47.2243Z" fill="#131515"/>
<path d="M72.406 47.2243C72.406 48.9626 73.8149 50.3732 75.5549 50.3732C77.2932 50.3732 78.7038 48.9643 78.7038 47.2243C78.7038 45.4861 77.2949 44.0771 75.5549 44.0771C73.8149 44.0771 72.406 45.4861 72.406 47.2243Z" fill="#131515"/>
<path d="M97.5904 47.2243C97.5904 45.4861 96.1815 44.0771 94.4415 44.0771C92.7032 44.0771 91.2943 45.4861 91.2943 47.2243C91.2943 48.9626 92.7032 50.3732 94.4415 50.3732C96.1815 50.3732 97.5904 48.9626 97.5904 47.2243Z" fill="#131515"/>
<path d="M34.6294 56.6672C36.3677 56.6672 37.7766 55.2583 37.7766 53.5183C37.7766 51.78 36.3677 50.3711 34.6294 50.3711C32.8912 50.3711 31.4805 51.78 31.4805 53.5183C31.4805 55.2583 32.8894 56.6672 34.6294 56.6672Z" fill="#131515"/>
<path d="M122.775 56.6672C124.513 56.6672 125.924 55.2583 125.924 53.5183C125.924 51.78 124.515 50.3711 122.775 50.3711C121.037 50.3711 119.626 51.78 119.626 53.5183C119.628 55.2583 121.037 56.6672 122.775 56.6672Z" fill="#131515"/>
<path d="M44.0726 53.5183C44.0726 55.2565 45.4815 56.6672 47.2215 56.6672C48.9598 56.6672 50.3705 55.2583 50.3705 53.5183C50.3705 51.78 48.9615 50.3711 47.2215 50.3711C45.4815 50.3711 44.0726 51.78 44.0726 53.5183Z" fill="#131515"/>
<path d="M69.257 53.5183C69.257 51.78 67.8481 50.3711 66.1081 50.3711C64.3698 50.3711 62.9609 51.78 62.9609 53.5183C62.9609 55.2565 64.3698 56.6672 66.1081 56.6672C67.8481 56.6672 69.257 55.2583 69.257 53.5183Z" fill="#131515"/>
<path d="M88.1454 53.5183C88.1454 55.2565 89.5543 56.6672 91.2944 56.6672C93.0326 56.6672 94.4415 55.2583 94.4415 53.5183C94.4415 51.78 93.0326 50.3711 91.2944 50.3711C89.5561 50.3711 88.1454 51.78 88.1454 53.5183Z" fill="#131515"/>
<path d="M107.035 53.5183C107.035 51.78 105.626 50.3711 103.886 50.3711C102.148 50.3711 100.737 51.78 100.737 53.5183C100.737 55.2565 102.146 56.6672 103.886 56.6672C105.624 56.6672 107.035 55.2583 107.035 53.5183Z" fill="#131515"/>
<path d="M132.22 53.5183C132.22 55.2565 133.629 56.6672 135.367 56.6672C137.105 56.6672 138.516 55.2583 138.516 53.5183C138.516 51.78 137.107 50.3711 135.367 50.3711C133.629 50.3711 132.22 51.78 132.22 53.5183Z" fill="#131515"/>
<path d="M151.108 53.5183C151.108 51.78 149.699 50.3711 147.959 50.3711C146.221 50.3711 144.81 51.78 144.81 53.5183C144.81 55.2565 146.219 56.6672 147.959 56.6672C149.699 56.6672 151.108 55.2583 151.108 53.5183Z" fill="#131515"/>
<path d="M157.404 53.5183C157.404 55.2565 158.813 56.6672 160.553 56.6672C162.291 56.6672 163.702 55.2583 163.702 53.5183C163.702 51.78 162.293 50.3711 160.553 50.3711C158.813 50.3711 157.404 51.78 157.404 53.5183Z" fill="#131515"/>
<path d="M12.5923 56.668C10.8541 56.668 9.44336 58.0769 9.44336 59.8151C9.44336 61.5534 10.8523 62.9641 12.5923 62.9641C14.3306 62.9641 15.7394 61.5551 15.7394 59.8151C15.7394 58.0769 14.3306 56.668 12.5923 56.668Z" fill="#131515"/>
<path d="M18.8883 56.668C17.1501 56.668 15.7394 58.0769 15.7394 59.8151C15.7394 61.5534 17.1483 62.9641 18.8883 62.9641C20.6266 62.9641 22.0372 61.5551 22.0372 59.8151C22.0355 58.0769 20.6266 56.668 18.8883 56.668Z" fill="#131515"/>
<path d="M31.4805 56.668C29.7423 56.668 28.3334 58.0769 28.3334 59.8151C28.3334 61.5534 29.7423 62.9641 31.4805 62.9641C33.2188 62.9641 34.6295 61.5551 34.6295 59.8151C34.6295 58.0769 33.2188 56.668 31.4805 56.668Z" fill="#131515"/>
<path d="M37.7765 56.668C36.0383 56.668 34.6294 58.0769 34.6294 59.8151C34.6294 61.5534 36.0383 62.9641 37.7765 62.9641C39.5148 62.9641 40.9255 61.5551 40.9255 59.8151C40.9255 58.0769 39.5148 56.668 37.7765 56.668Z" fill="#131515"/>
<path d="M132.22 56.668C130.481 56.668 129.071 58.0769 129.071 59.8151C129.071 61.5534 130.48 62.9641 132.22 62.9641C133.958 62.9641 135.367 61.5551 135.367 59.8151C135.367 58.0769 133.958 56.668 132.22 56.668Z" fill="#131515"/>
<path d="M141.663 59.8151C141.663 58.0769 140.254 56.668 138.514 56.668C136.776 56.668 135.365 58.0769 135.365 59.8151C135.365 61.5534 136.774 62.9641 138.514 62.9641C140.254 62.9641 141.663 61.5551 141.663 59.8151Z" fill="#131515"/>
<path d="M157.404 56.668C155.666 56.668 154.257 58.0769 154.257 59.8151C154.257 61.5534 155.666 62.9641 157.404 62.9641C159.142 62.9641 160.553 61.5551 160.553 59.8151C160.551 58.0769 159.142 56.668 157.404 56.668Z" fill="#131515"/>
<path d="M3.14717 69.2609C4.88542 69.2609 6.29608 67.852 6.29608 66.112C6.29608 64.3738 4.88718 62.9648 3.14717 62.9648C1.40892 62.9648 0 64.3738 0 66.112C0 67.852 1.40892 69.2609 3.14717 69.2609Z" fill="#131515"/>
<path d="M15.7393 69.2609C17.4776 69.2609 18.8882 67.852 18.8882 66.112C18.8882 64.3738 17.4793 62.9648 15.7393 62.9648C13.9993 62.9648 12.5922 64.3738 12.5922 66.112C12.5922 67.852 14.0011 69.2609 15.7393 69.2609Z" fill="#131515"/>
<path d="M25.1844 66.112C25.1844 67.8503 26.5934 69.2609 28.3334 69.2609C30.0716 69.2609 31.4805 67.852 31.4805 66.112C31.4805 64.3738 30.0716 62.9648 28.3334 62.9648C26.5934 62.9648 25.1844 64.3738 25.1844 66.112Z" fill="#131515"/>
<path d="M37.7765 66.112C37.7765 67.8503 39.1854 69.2609 40.9254 69.2609C42.6654 69.2609 44.0743 67.852 44.0743 66.112C44.0743 64.3738 42.6654 62.9648 40.9254 62.9648C39.1854 62.9648 37.7765 64.3738 37.7765 66.112Z" fill="#131515"/>
<path d="M50.3688 66.112C50.3688 67.8503 51.7777 69.2609 53.5177 69.2609C55.2577 69.2609 56.6666 67.852 56.6666 66.112C56.6666 64.3738 55.2577 62.9648 53.5177 62.9648C51.7777 62.9648 50.3688 64.3738 50.3688 66.112Z" fill="#131515"/>
<path d="M59.8138 69.2609C61.5521 69.2609 62.9627 67.852 62.9627 66.112C62.9627 64.3738 61.5538 62.9648 59.8138 62.9648C58.0756 62.9648 56.6666 64.3738 56.6666 66.112C56.6649 67.852 58.0756 69.2609 59.8138 69.2609Z" fill="#131515"/>
<path d="M116.479 62.9648C114.74 62.9648 113.332 64.3738 113.332 66.112C113.332 67.8503 114.74 69.2609 116.479 69.2609C118.217 69.2609 119.628 67.852 119.628 66.112C119.628 64.3738 118.217 62.9648 116.479 62.9648Z" fill="#131515"/>
<path d="M122.775 69.2609C124.513 69.2609 125.924 67.852 125.924 66.112C125.924 64.3738 124.515 62.9648 122.775 62.9648C121.037 62.9648 119.626 64.3738 119.626 66.112C119.628 67.852 121.037 69.2609 122.775 69.2609Z" fill="#131515"/>
<path d="M141.663 69.2609C143.401 69.2609 144.812 67.852 144.812 66.112C144.812 64.3738 143.403 62.9648 141.663 62.9648C139.925 62.9648 138.514 64.3738 138.514 66.112C138.516 67.852 139.925 69.2609 141.663 69.2609Z" fill="#131515"/>
<path d="M157.404 66.112C157.404 67.8503 158.813 69.2609 160.553 69.2609C162.291 69.2609 163.702 67.852 163.702 66.112C163.702 64.3738 162.293 62.9648 160.553 62.9648C158.813 62.9648 157.404 64.3738 157.404 66.112Z" fill="#131515"/>
<path d="M3.14709 72.4077C3.14709 74.146 4.556 75.5549 6.29601 75.5549C8.03426 75.5549 9.44495 74.146 9.44495 72.4077C9.44495 70.6695 8.03602 69.2588 6.29601 69.2588C4.55776 69.2606 3.14709 70.6695 3.14709 72.4077Z" fill="#131515"/>
<path d="M22.0355 72.4077C22.0355 70.6695 20.6266 69.2588 18.8866 69.2588C17.1483 69.2588 15.7377 70.6677 15.7377 72.4077C15.7377 74.146 17.1466 75.5549 18.8866 75.5549C20.6266 75.5566 22.0355 74.1477 22.0355 72.4077Z" fill="#131515"/>
<path d="M37.7765 75.5566C39.5156 75.5566 40.9254 74.1468 40.9254 72.4077C40.9254 70.6686 39.5156 69.2588 37.7765 69.2588C36.0374 69.2588 34.6276 70.6686 34.6276 72.4077C34.6276 74.1468 36.0374 75.5566 37.7765 75.5566Z" fill="#131515"/>
<path d="M50.3688 75.5566C52.1079 75.5566 53.5177 74.1468 53.5177 72.4077C53.5177 70.6686 52.1079 69.2588 50.3688 69.2588C48.6297 69.2588 47.2198 70.6686 47.2198 72.4077C47.2198 74.1468 48.6297 75.5566 50.3688 75.5566Z" fill="#131515"/>
<path d="M56.6648 75.5568C58.403 75.5568 59.812 74.1479 59.812 72.4097C59.812 70.6714 58.403 69.2607 56.6648 69.2607C54.9265 69.2607 53.5159 70.6697 53.5159 72.4097C53.5176 74.1479 54.9265 75.5568 56.6648 75.5568Z" fill="#131515"/>
<path d="M119.627 75.5566C121.366 75.5566 122.776 74.1468 122.776 72.4077C122.776 70.6686 121.366 69.2588 119.627 69.2588C117.888 69.2588 116.478 70.6686 116.478 72.4077C116.478 74.1468 117.888 75.5566 119.627 75.5566Z" fill="#131515"/>
<path d="M122.775 72.4077C122.775 74.146 124.184 75.5549 125.924 75.5549C127.662 75.5549 129.071 74.146 129.071 72.4077C129.071 70.6695 127.662 69.2588 125.924 69.2588C124.184 69.2606 122.775 70.6695 122.775 72.4077Z" fill="#131515"/>
<path d="M132.22 75.5568C133.958 75.5568 135.367 74.1479 135.367 72.4097C135.367 70.6714 133.958 69.2607 132.22 69.2607C130.481 69.2607 129.071 70.6697 129.071 72.4097C129.071 74.1479 130.481 75.5568 132.22 75.5568Z" fill="#131515"/>
<path d="M144.812 75.5566C146.551 75.5566 147.961 74.1468 147.961 72.4077C147.961 70.6686 146.551 69.2588 144.812 69.2588C143.073 69.2588 141.663 70.6686 141.663 72.4077C141.663 74.1468 143.073 75.5566 144.812 75.5566Z" fill="#131515"/>
<path d="M151.108 69.2607C149.37 69.2607 147.959 70.6697 147.959 72.4097C147.959 74.1479 149.368 75.5568 151.108 75.5568C152.846 75.5568 154.257 74.1479 154.257 72.4097C154.255 70.6697 152.846 69.2607 151.108 69.2607Z" fill="#131515"/>
<path d="M157.404 69.2607C155.666 69.2607 154.257 70.6697 154.257 72.4097C154.257 74.1479 155.666 75.5568 157.404 75.5568C159.142 75.5568 160.553 74.1479 160.553 72.4097C160.551 70.6697 159.142 69.2607 157.404 69.2607Z" fill="#131515"/>
<path d="M163.7 75.5568C165.438 75.5568 166.849 74.1479 166.849 72.4097C166.849 70.6714 165.44 69.2607 163.7 69.2607C161.962 69.2607 160.551 70.6697 160.551 72.4097C160.551 74.1479 161.962 75.5568 163.7 75.5568Z" fill="#131515"/>
<path d="M18.8883 78.7046C18.8883 80.4428 20.2972 81.8535 22.0372 81.8535C23.7755 81.8535 25.1861 80.4446 25.1861 78.7046C25.1861 76.9663 23.7772 75.5557 22.0372 75.5557C20.2972 75.5574 18.8883 76.9663 18.8883 78.7046Z" fill="#131515"/>
<path d="M31.4805 78.7046C31.4805 80.4428 32.8894 81.8535 34.6294 81.8535C36.3677 81.8535 37.7766 80.4446 37.7766 78.7046C37.7766 76.9663 36.3677 75.5557 34.6294 75.5557C32.8894 75.5574 31.4805 76.9663 31.4805 78.7046Z" fill="#131515"/>
<path d="M40.9254 81.8535C42.6637 81.8535 44.0743 80.4446 44.0743 78.7046C44.0743 76.9663 42.6654 75.5557 40.9254 75.5557C39.1854 75.5557 37.7765 76.9646 37.7765 78.7046C37.7765 80.4446 39.1854 81.8535 40.9254 81.8535Z" fill="#131515"/>
<path d="M141.663 81.8535C143.401 81.8535 144.812 80.4446 144.812 78.7046C144.812 76.9663 143.403 75.5557 141.663 75.5557C139.925 75.5557 138.514 76.9646 138.514 78.7046C138.516 80.4446 139.925 81.8535 141.663 81.8535Z" fill="#131515"/>
<path d="M163.7 78.7046C163.7 80.4428 165.109 81.8535 166.849 81.8535C168.587 81.8535 169.998 80.4446 169.998 78.7046C169.998 76.9663 168.589 75.5557 166.849 75.5557C165.109 75.5574 163.7 76.9663 163.7 78.7046Z" fill="#131515"/>
<path d="M6.29601 88.1478C8.03426 88.1478 9.44495 86.7389 9.44495 85.0007C9.44495 83.2624 8.03602 81.8535 6.29601 81.8535C4.55776 81.8535 3.14709 83.2624 3.14709 85.0007C3.14709 86.7389 4.55776 88.1478 6.29601 88.1478Z" fill="#131515"/>
<path d="M44.0728 81.8516C42.3345 81.8516 40.9238 83.2605 40.9238 84.9987C40.9238 86.737 42.3328 88.1459 44.0728 88.1459C45.811 88.1459 47.2217 86.737 47.2217 84.9987C47.2217 83.2605 45.811 81.8516 44.0728 81.8516Z" fill="#131515"/>
<path d="M50.7227 88.1478C52.4608 88.1478 53.8699 86.7388 53.8699 85.0007C53.8699 83.2625 52.4608 81.8535 50.7227 81.8535C48.9846 81.8535 47.5756 83.2625 47.5756 85.0007C47.5756 86.7388 48.9846 88.1478 50.7227 88.1478Z" fill="#131515"/>
<path d="M151.108 81.8516C149.37 81.8516 147.959 83.2605 147.959 84.9987C147.959 86.737 149.368 88.1459 151.108 88.1459C152.846 88.1459 154.257 86.737 154.257 84.9987C154.257 83.2605 152.846 81.8516 151.108 81.8516Z" fill="#131515"/>
<path d="M166.849 85.0007C166.849 83.2624 165.44 81.8535 163.7 81.8535C161.962 81.8535 160.551 83.2624 160.551 85.0007C160.551 86.7389 161.96 88.1478 163.7 88.1478C165.438 88.1478 166.849 86.7389 166.849 85.0007Z" fill="#131515"/>
<path d="M122.775 81.8516C121.037 81.8516 119.626 83.2605 119.626 84.9987C119.626 86.737 121.035 88.1459 122.775 88.1459C124.513 88.1459 125.924 86.737 125.924 84.9987C125.924 83.2605 124.513 81.8516 122.775 81.8516Z" fill="#131515"/>
<path d="M129.071 81.8516C127.332 81.8516 125.923 83.2605 125.923 84.9987C125.923 86.737 127.332 88.1459 129.071 88.1459C130.809 88.1459 132.22 86.737 132.22 84.9987C132.22 83.2605 130.809 81.8516 129.071 81.8516Z" fill="#131515"/>
<path d="M9.44323 94.4435C11.1815 94.4435 12.5922 93.0346 12.5922 91.2964C12.5922 89.5581 11.1832 88.1475 9.44323 88.1475C7.70322 88.1475 6.29431 89.5564 6.29431 91.2964C6.29607 93.0346 7.70498 94.4435 9.44323 94.4435Z" fill="#131515"/>
<path d="M28.3334 88.1475C26.5951 88.1475 25.1844 89.5564 25.1844 91.2964C25.1844 93.0346 26.5934 94.4435 28.3334 94.4435C30.0716 94.4435 31.4805 93.0346 31.4805 91.2964C31.4805 89.5564 30.0716 88.1475 28.3334 88.1475Z" fill="#131515"/>
<path d="M37.7766 91.2964C37.7766 89.5581 36.3677 88.1475 34.6294 88.1475C32.8912 88.1475 31.4805 89.5564 31.4805 91.2964C31.4805 93.0346 32.8894 94.4435 34.6294 94.4435C36.3677 94.4435 37.7766 93.0346 37.7766 91.2964Z" fill="#131515"/>
<path d="M141.663 94.4435C143.401 94.4435 144.812 93.0346 144.812 91.2964C144.812 89.5581 143.403 88.1475 141.663 88.1475C139.925 88.1475 138.514 89.5564 138.514 91.2964C138.516 93.0346 139.925 94.4435 141.663 94.4435Z" fill="#131515"/>
<path d="M47.2217 97.5933C47.2217 95.855 45.8128 94.4443 44.0728 94.4443C42.3345 94.4443 40.9238 95.8533 40.9238 97.5933C40.9238 99.3315 42.3328 100.74 44.0728 100.74C45.811 100.74 47.2217 99.3315 47.2217 97.5933Z" fill="#131515"/>
<path d="M122.775 97.5933C122.775 95.855 121.366 94.4443 119.626 94.4443C117.887 94.4443 116.477 95.8533 116.477 97.5933C116.477 99.3315 117.886 100.74 119.626 100.74C121.366 100.74 122.775 99.3315 122.775 97.5933Z" fill="#131515"/>
<path d="M144.812 100.74C146.55 100.74 147.961 99.3315 147.961 97.5933C147.961 95.855 146.552 94.4443 144.812 94.4443C143.074 94.4443 141.663 95.8533 141.663 97.5933C141.663 99.3315 143.074 100.74 144.812 100.74Z" fill="#131515"/>
<path d="M157.404 100.74C159.142 100.74 160.553 99.3315 160.553 97.5933C160.553 95.855 159.144 94.4443 157.404 94.4443C155.666 94.4443 154.257 95.8533 154.257 97.5933C154.255 99.3315 155.666 100.74 157.404 100.74Z" fill="#131515"/>
<path d="M135.367 94.4443C133.629 94.4443 132.22 95.8533 132.22 97.5933C132.22 99.3315 133.629 100.74 135.367 100.74C137.105 100.74 138.516 99.3315 138.516 97.5933C138.516 95.8533 137.107 94.4443 135.367 94.4443Z" fill="#131515"/>
<path d="M9.44323 100.74C7.70498 100.74 6.29431 102.149 6.29431 103.889C6.29431 105.627 7.70322 107.036 9.44323 107.036C11.1832 107.036 12.5922 105.627 12.5922 103.889C12.5922 102.149 11.1832 100.74 9.44323 100.74Z" fill="#131515"/>
<path d="M15.7393 100.74C14.0011 100.74 12.5922 102.149 12.5922 103.889C12.5922 105.627 14.0011 107.036 15.7393 107.036C17.4776 107.036 18.8882 105.627 18.8882 103.889C18.8882 102.149 17.4793 100.74 15.7393 100.74Z" fill="#131515"/>
<path d="M28.3334 107.036C30.0716 107.036 31.4805 105.627 31.4805 103.889C31.4805 102.151 30.0716 100.74 28.3334 100.74C26.5951 100.74 25.1844 102.149 25.1844 103.889C25.1844 105.627 26.5934 107.036 28.3334 107.036Z" fill="#131515"/>
<path d="M40.9254 107.036C42.6637 107.036 44.0743 105.627 44.0743 103.889C44.0743 102.151 42.6654 100.74 40.9254 100.74C39.1854 100.74 37.7765 102.149 37.7765 103.889C37.7765 105.627 39.1854 107.036 40.9254 107.036Z" fill="#131515"/>
<path d="M116.479 107.036C118.217 107.036 119.628 105.627 119.628 103.889C119.628 102.151 118.219 100.74 116.479 100.74C114.74 100.74 113.332 102.149 113.332 103.889C113.332 105.627 114.74 107.036 116.479 107.036Z" fill="#131515"/>
<path d="M132.22 103.889C132.22 102.151 130.811 100.74 129.071 100.74C127.332 100.74 125.923 102.149 125.923 103.889C125.923 105.627 127.332 107.036 129.071 107.036C130.809 107.036 132.22 105.627 132.22 103.889Z" fill="#131515"/>
<path d="M147.959 100.74C146.221 100.74 144.81 102.149 144.81 103.889C144.81 105.627 146.219 107.036 147.959 107.036C149.697 107.036 151.108 105.627 151.108 103.889C151.108 102.149 149.699 100.74 147.959 100.74Z" fill="#131515"/>
<path d="M154.255 107.036C155.994 107.036 157.402 105.627 157.402 103.889C157.402 102.151 155.994 100.74 154.255 100.74C152.517 100.74 151.106 102.149 151.106 103.889C151.108 105.627 152.517 107.036 154.255 107.036Z" fill="#131515"/>
<path d="M166.849 100.74C165.111 100.74 163.7 102.149 163.7 103.889C163.7 105.627 165.109 107.036 166.849 107.036C168.587 107.036 169.998 105.627 169.998 103.889C169.996 102.149 168.587 100.74 166.849 100.74Z" fill="#131515"/>
<path d="M6.29601 113.333C8.03426 113.333 9.44495 111.924 9.44495 110.186C9.44495 108.448 8.03602 107.037 6.29601 107.037C4.55776 107.037 3.14709 108.446 3.14709 110.186C3.14709 111.924 4.55776 113.333 6.29601 113.333Z" fill="#131515"/>
<path d="M37.7765 113.335C39.5156 113.335 40.9254 111.925 40.9254 110.186C40.9254 108.447 39.5156 107.037 37.7765 107.037C36.0374 107.037 34.6276 108.447 34.6276 110.186C34.6276 111.925 36.0374 113.335 37.7765 113.335Z" fill="#131515"/>
<path d="M50.3688 113.335C52.1079 113.335 53.5177 111.925 53.5177 110.186C53.5177 108.447 52.1079 107.037 50.3688 107.037C48.6297 107.037 47.2198 108.447 47.2198 110.186C47.2198 111.925 48.6297 113.335 50.3688 113.335Z" fill="#131515"/>
<path d="M119.627 113.335C121.366 113.335 122.776 111.925 122.776 110.186C122.776 108.447 121.366 107.037 119.627 107.037C117.888 107.037 116.478 108.447 116.478 110.186C116.478 111.925 117.888 113.335 119.627 113.335Z" fill="#131515"/>
<path d="M125.924 113.333C127.662 113.333 129.071 111.924 129.071 110.186C129.071 108.448 127.662 107.037 125.924 107.037C124.185 107.037 122.775 108.446 122.775 110.186C122.775 111.924 124.184 113.333 125.924 113.333Z" fill="#131515"/>
<path d="M166.849 110.186C166.849 108.448 165.44 107.037 163.7 107.037C161.962 107.037 160.551 108.446 160.551 110.186C160.551 111.924 161.96 113.333 163.7 113.333C165.438 113.333 166.849 111.924 166.849 110.186Z" fill="#131515"/>
<path d="M15.7393 113.332C14.0011 113.332 12.5922 114.741 12.5922 116.479C12.5922 118.217 14.0011 119.628 15.7393 119.628C17.4776 119.628 18.8882 118.219 18.8882 116.479C18.8882 114.743 17.4793 113.332 15.7393 113.332Z" fill="#131515"/>
<path d="M28.3334 119.628C30.0716 119.628 31.4805 118.219 31.4805 116.479C31.4805 114.741 30.0716 113.332 28.3334 113.332C26.5951 113.332 25.1844 114.741 25.1844 116.479C25.1844 118.219 26.5934 119.628 28.3334 119.628Z" fill="#131515"/>
<path d="M40.9254 113.332C39.1872 113.332 37.7765 114.741 37.7765 116.479C37.7765 118.217 39.1854 119.628 40.9254 119.628C42.6654 119.628 44.0743 118.219 44.0743 116.479C44.0726 114.743 42.6637 113.332 40.9254 113.332Z" fill="#131515"/>
<path d="M50.3688 116.481C50.3688 114.743 48.9599 113.334 47.2199 113.334C45.4816 113.334 44.0709 114.743 44.0709 116.481C44.0709 118.219 45.4799 119.63 47.2199 119.63C48.9599 119.628 50.3688 118.219 50.3688 116.481Z" fill="#131515"/>
<path d="M62.961 116.481C62.961 114.743 61.5521 113.334 59.8121 113.334C58.0739 113.334 56.6649 114.743 56.6649 116.481C56.6649 118.219 58.0739 119.63 59.8121 119.63C61.5521 119.628 62.961 118.219 62.961 116.481Z" fill="#131515"/>
<path d="M75.5531 116.481C75.5531 114.743 74.1442 113.334 72.4042 113.334C70.6659 113.334 69.2552 114.743 69.2552 116.481C69.2552 118.219 70.6642 119.63 72.4042 119.63C74.1442 119.628 75.5531 118.219 75.5531 116.481Z" fill="#131515"/>
<path d="M84.998 113.332C83.2598 113.332 81.8491 114.741 81.8491 116.479C81.8491 118.217 83.258 119.628 84.998 119.628C86.7363 119.628 88.1452 118.219 88.1452 116.479C88.1452 114.743 86.7363 113.332 84.998 113.332Z" fill="#131515"/>
<path d="M97.5903 113.332C95.8521 113.332 94.4414 114.741 94.4414 116.479C94.4414 118.217 95.8503 119.628 97.5903 119.628C99.3286 119.628 100.738 118.219 100.738 116.479C100.738 114.743 99.3286 113.332 97.5903 113.332Z" fill="#131515"/>
<path d="M103.886 113.332C102.148 113.332 100.737 114.741 100.737 116.479C100.737 118.217 102.146 119.628 103.886 119.628C105.624 119.628 107.035 118.219 107.035 116.479C107.035 114.743 105.624 113.332 103.886 113.332Z" fill="#131515"/>
<path d="M116.479 119.628C118.217 119.628 119.628 118.219 119.628 116.479C119.628 114.741 118.219 113.332 116.479 113.332C114.74 113.332 113.332 114.741 113.332 116.479C113.332 118.219 114.74 119.628 116.479 119.628Z" fill="#131515"/>
<path d="M110.182 113.332C108.444 113.332 107.035 114.741 107.035 116.479C107.035 118.217 108.444 119.628 110.182 119.628C111.921 119.628 113.331 118.219 113.331 116.479C113.331 114.743 111.921 113.332 110.182 113.332Z" fill="#131515"/>
<path d="M135.367 113.332C133.629 113.332 132.22 114.741 132.22 116.479C132.22 118.217 133.629 119.628 135.367 119.628C137.105 119.628 138.516 118.219 138.516 116.479C138.516 114.743 137.107 113.332 135.367 113.332Z" fill="#131515"/>
<path d="M147.959 113.332C146.221 113.332 144.81 114.741 144.81 116.479C144.81 118.217 146.219 119.628 147.959 119.628C149.697 119.628 151.108 118.219 151.108 116.479C151.108 114.743 149.699 113.332 147.959 113.332Z" fill="#131515"/>
<path d="M160.551 119.628C162.289 119.628 163.7 118.219 163.7 116.479C163.7 114.741 162.291 113.332 160.551 113.332C158.813 113.332 157.402 114.741 157.402 116.479C157.404 118.219 158.813 119.628 160.551 119.628Z" fill="#131515"/>
<path d="M62.9609 119.628C61.2227 119.628 59.812 121.037 59.812 122.777C59.812 124.515 61.2209 125.924 62.9609 125.924C64.6992 125.924 66.1081 124.515 66.1081 122.777C66.1098 121.039 64.6992 119.628 62.9609 119.628Z" fill="#131515"/>
<path d="M69.257 125.926C70.9961 125.926 72.4059 124.516 72.4059 122.777C72.4059 121.038 70.9961 119.628 69.257 119.628C67.5179 119.628 66.108 121.038 66.108 122.777C66.108 124.516 67.5179 125.926 69.257 125.926Z" fill="#131515"/>
<path d="M103.886 122.777C103.886 121.039 102.477 119.628 100.737 119.628C98.9992 119.628 97.5902 121.037 97.5902 122.777C97.5902 124.515 98.9992 125.924 100.737 125.924C102.477 125.924 103.886 124.515 103.886 122.777Z" fill="#131515"/>
<path d="M135.367 122.777C135.367 121.039 133.958 119.628 132.22 119.628C130.481 119.628 129.071 121.037 129.071 122.777C129.071 124.515 130.48 125.924 132.22 125.924C133.958 125.924 135.367 124.515 135.367 122.777Z" fill="#131515"/>
<path d="M144.812 125.926C146.551 125.926 147.961 124.516 147.961 122.777C147.961 121.038 146.551 119.628 144.812 119.628C143.073 119.628 141.663 121.038 141.663 122.777C141.663 124.516 143.073 125.926 144.812 125.926Z" fill="#131515"/>
<path d="M151.108 125.924C152.846 125.924 154.257 124.515 154.257 122.777C154.257 121.039 152.848 119.628 151.108 119.628C149.37 119.628 147.959 121.037 147.959 122.777C147.959 124.515 149.37 125.924 151.108 125.924Z" fill="#131515"/>
<path d="M62.9609 129.074C62.9609 130.812 64.3698 132.223 66.1081 132.223C67.8463 132.223 69.257 130.814 69.257 129.074C69.257 127.336 67.8481 125.927 66.1081 125.927C64.3716 125.925 62.9609 127.336 62.9609 129.074Z" fill="#131515"/>
<path d="M78.702 132.221C80.4403 132.221 81.851 130.812 81.851 129.072C81.851 127.334 80.442 125.925 78.702 125.925C76.962 125.925 75.5531 127.334 75.5531 129.072C75.5531 130.812 76.9638 132.221 78.702 132.221Z" fill="#131515"/>
<path d="M91.2944 125.925C89.5561 125.925 88.1454 127.334 88.1454 129.072C88.1454 130.81 89.5543 132.221 91.2944 132.221C93.0326 132.221 94.4415 130.812 94.4415 129.072C94.4415 127.335 93.0326 125.925 91.2944 125.925Z" fill="#131515"/>
<path d="M103.886 132.221C105.624 132.221 107.035 130.812 107.035 129.072C107.035 127.334 105.626 125.925 103.886 125.925C102.148 125.925 100.737 127.334 100.737 129.072C100.737 130.812 102.148 132.221 103.886 132.221Z" fill="#131515"/>
<path d="M110.182 132.221C111.921 132.221 113.331 130.812 113.331 129.072C113.331 127.334 111.922 125.925 110.182 125.925C108.444 125.925 107.035 127.334 107.035 129.072C107.035 130.812 108.444 132.221 110.182 132.221Z" fill="#131515"/>
<path d="M122.775 125.925C121.037 125.925 119.626 127.334 119.626 129.072C119.626 130.81 121.035 132.221 122.775 132.221C124.513 132.221 125.924 130.812 125.924 129.072C125.924 127.335 124.513 125.925 122.775 125.925Z" fill="#131515"/>
<path d="M132.22 129.074C132.22 127.336 130.811 125.927 129.071 125.927C127.332 125.927 125.923 127.336 125.923 129.074C125.923 130.812 127.332 132.223 129.071 132.223C130.809 132.221 132.22 130.812 132.22 129.074Z" fill="#131515"/>
<path d="M141.663 125.925C139.925 125.925 138.514 127.334 138.514 129.072C138.514 130.81 139.923 132.221 141.663 132.221C143.401 132.221 144.812 130.812 144.812 129.072C144.812 127.335 143.403 125.925 141.663 125.925Z" fill="#131515"/>
<path d="M154.255 125.925C152.517 125.925 151.106 127.334 151.106 129.072C151.106 130.81 152.515 132.221 154.255 132.221C155.994 132.221 157.402 130.812 157.402 129.072C157.404 127.335 155.995 125.925 154.255 125.925Z" fill="#131515"/>
<path d="M160.551 125.925C158.813 125.925 157.402 127.334 157.402 129.072C157.402 130.81 158.811 132.221 160.551 132.221C162.289 132.221 163.7 130.812 163.7 129.072C163.7 127.335 162.291 125.925 160.551 125.925Z" fill="#131515"/>
<path d="M166.849 125.925C165.111 125.925 163.7 127.334 163.7 129.072C163.7 130.81 165.109 132.221 166.849 132.221C168.587 132.221 169.998 130.812 169.998 129.072C169.996 127.335 168.587 125.925 166.849 125.925Z" fill="#131515"/>
<path d="M56.6648 138.518C58.403 138.518 59.812 137.109 59.812 135.369C59.812 133.631 58.403 132.222 56.6648 132.222C54.9265 132.222 53.5159 133.631 53.5159 135.369C53.5176 137.109 54.9265 138.518 56.6648 138.518Z" fill="#131515"/>
<path d="M84.9979 135.371C84.9979 137.109 86.4068 138.52 88.1451 138.52C89.8833 138.52 91.294 137.111 91.294 135.371C91.294 133.633 89.8851 132.224 88.1451 132.224C86.4068 132.222 84.9979 133.633 84.9979 135.371Z" fill="#131515"/>
<path d="M122.775 135.371C122.775 137.109 124.184 138.52 125.924 138.52C127.662 138.52 129.071 137.111 129.071 135.371C129.071 133.633 127.662 132.224 125.924 132.224C124.184 132.222 122.775 133.633 122.775 135.371Z" fill="#131515"/>
<path d="M147.959 135.371C147.959 137.109 149.368 138.52 151.108 138.52C152.846 138.52 154.257 137.111 154.257 135.371C154.257 133.633 152.848 132.224 151.108 132.224C149.37 132.222 147.959 133.633 147.959 135.371Z" fill="#131515"/>
<path d="M53.5177 138.518C51.7794 138.518 50.3688 139.926 50.3688 141.665C50.3688 143.403 51.7777 144.812 53.5177 144.812C55.2577 144.812 56.6666 143.403 56.6666 141.665C56.6648 139.928 55.2559 138.518 53.5177 138.518Z" fill="#131515"/>
<path d="M59.8138 138.518C58.0756 138.518 56.6666 139.926 56.6666 141.665C56.6666 143.403 58.0756 144.812 59.8138 144.812C61.5521 144.812 62.9627 143.403 62.9627 141.665C62.961 139.928 61.5521 138.518 59.8138 138.518Z" fill="#131515"/>
<path d="M66.1099 144.815C67.849 144.815 69.2588 143.406 69.2588 141.667C69.2588 139.927 67.849 138.518 66.1099 138.518C64.3707 138.518 62.9609 139.927 62.9609 141.667C62.9609 143.406 64.3707 144.815 66.1099 144.815Z" fill="#131515"/>
<path d="M72.4058 144.814C74.144 144.814 75.5547 143.405 75.5547 141.667C75.5547 139.928 74.1458 138.52 72.4058 138.52C70.6675 138.52 69.2568 139.928 69.2568 141.667C69.2568 143.405 70.6675 144.814 72.4058 144.814Z" fill="#131515"/>
<path d="M94.4415 141.667C94.4415 139.928 93.0326 138.52 91.2944 138.52C89.5561 138.52 88.1454 139.928 88.1454 141.667C88.1454 143.405 89.5543 144.814 91.2944 144.814C93.0326 144.814 94.4415 143.405 94.4415 141.667Z" fill="#131515"/>
<path d="M110.182 138.518C108.444 138.518 107.035 139.926 107.035 141.665C107.035 143.403 108.444 144.812 110.182 144.812C111.921 144.812 113.331 143.403 113.331 141.665C113.331 139.928 111.921 138.518 110.182 138.518Z" fill="#131515"/>
<path d="M160.551 144.814C162.289 144.814 163.7 143.405 163.7 141.667C163.7 139.928 162.291 138.52 160.551 138.52C158.813 138.52 157.402 139.928 157.402 141.667C157.404 143.405 158.813 144.814 160.551 144.814Z" fill="#131515"/>
<path d="M31.4805 144.812C29.7423 144.812 28.3334 146.221 28.3334 147.961C28.3334 149.7 29.7423 151.11 31.4805 151.11C33.2188 151.11 34.6295 149.701 34.6295 147.961C34.6295 146.223 33.2188 144.812 31.4805 144.812Z" fill="#131515"/>
<path d="M59.8136 147.961C59.8136 146.223 58.4046 144.812 56.6664 144.812C54.9281 144.812 53.5175 146.221 53.5175 147.961C53.5175 149.7 54.9264 151.11 56.6664 151.11C58.4029 151.11 59.8136 149.7 59.8136 147.961Z" fill="#131515"/>
<path d="M66.1097 147.961C66.1097 149.7 67.5186 151.11 69.2587 151.11C70.9969 151.11 72.4076 149.701 72.4076 147.961C72.4076 146.223 70.9987 144.812 69.2587 144.812C67.5186 144.812 66.1097 146.223 66.1097 147.961Z" fill="#131515"/>
<path d="M88.1451 151.11C89.8833 151.11 91.294 149.701 91.294 147.961C91.294 146.223 89.8851 144.812 88.1451 144.812C86.4068 144.812 84.9979 146.221 84.9979 147.961C84.9979 149.7 86.4068 151.11 88.1451 151.11Z" fill="#131515"/>
<path d="M107.035 144.812C105.297 144.812 103.886 146.221 103.886 147.961C103.886 149.7 105.295 151.11 107.035 151.11C108.774 151.11 110.183 149.701 110.183 147.961C110.183 146.223 108.774 144.812 107.035 144.812Z" fill="#131515"/>
<path d="M141.663 147.961C141.663 146.223 140.254 144.812 138.514 144.812C136.776 144.812 135.365 146.221 135.365 147.961C135.365 149.7 136.774 151.11 138.514 151.11C140.254 151.11 141.663 149.7 141.663 147.961Z" fill="#131515"/>
<path d="M53.5177 151.111C51.7794 151.111 50.3688 152.52 50.3688 154.258C50.3688 155.997 51.7777 157.406 53.5177 157.406C55.2577 157.406 56.6666 155.997 56.6666 154.258C56.6648 152.52 55.2559 151.111 53.5177 151.111Z" fill="#131515"/>
<path d="M59.8138 151.111C58.0756 151.111 56.6666 152.52 56.6666 154.258C56.6666 155.997 58.0756 157.406 59.8138 157.406C61.5521 157.406 62.9627 155.997 62.9627 154.258C62.961 152.52 61.5521 151.111 59.8138 151.111Z" fill="#131515"/>
<path d="M97.5903 151.111C95.8521 151.111 94.4414 152.52 94.4414 154.258C94.4414 155.997 95.8503 157.406 97.5903 157.406C99.3286 157.406 100.738 155.997 100.738 154.258C100.738 152.52 99.3286 151.111 97.5903 151.111Z" fill="#131515"/>
<path d="M103.886 151.111C102.148 151.111 100.737 152.52 100.737 154.258C100.737 155.997 102.146 157.406 103.886 157.406C105.624 157.406 107.035 155.997 107.035 154.258C107.035 152.52 105.624 151.111 103.886 151.111Z" fill="#131515"/>
<path d="M116.479 157.407C118.218 157.407 119.627 155.997 119.627 154.258C119.627 152.519 118.218 151.109 116.479 151.109C114.739 151.109 113.33 152.519 113.33 154.258C113.33 155.997 114.739 157.407 116.479 157.407Z" fill="#131515"/>
<path d="M122.775 157.407C124.513 157.407 125.924 155.998 125.924 154.259C125.924 152.521 124.515 151.112 122.775 151.112C121.037 151.112 119.626 152.521 119.626 154.259C119.628 155.996 121.037 157.407 122.775 157.407Z" fill="#131515"/>
<path d="M129.071 157.407C130.809 157.407 132.22 155.998 132.22 154.259C132.22 152.521 130.811 151.112 129.071 151.112C127.332 151.112 125.923 152.521 125.923 154.259C125.923 155.996 127.332 157.407 129.071 157.407Z" fill="#131515"/>
<path d="M141.663 151.111C139.925 151.111 138.514 152.52 138.514 154.258C138.514 155.997 139.923 157.406 141.663 157.406C143.401 157.406 144.812 155.997 144.812 154.258C144.812 152.52 143.403 151.111 141.663 151.111Z" fill="#131515"/>
<path d="M154.255 151.111C152.517 151.111 151.106 152.52 151.106 154.258C151.106 155.997 152.515 157.406 154.255 157.406C155.994 157.406 157.402 155.997 157.402 154.258C157.404 152.52 155.995 151.111 154.255 151.111Z" fill="#131515"/>
<path d="M160.551 151.111C158.813 151.111 157.402 152.52 157.402 154.258C157.402 155.997 158.811 157.406 160.551 157.406C162.289 157.406 163.7 155.997 163.7 154.258C163.7 152.52 162.291 151.111 160.551 151.111Z" fill="#131515"/>
<path d="M166.849 151.111C165.111 151.111 163.7 152.52 163.7 154.258C163.7 155.997 165.109 157.406 166.849 157.406C168.587 157.406 169.998 155.997 169.998 154.258C169.996 152.52 168.587 151.111 166.849 151.111Z" fill="#131515"/>
<path d="M59.8136 160.554C59.8136 158.816 58.4046 157.405 56.6664 157.405C54.9281 157.405 53.5175 158.814 53.5175 160.554C53.5175 162.292 54.9264 163.701 56.6664 163.701C58.4029 163.703 59.8136 162.292 59.8136 160.554Z" fill="#131515"/>
<path d="M69.257 157.407C67.5188 157.407 66.108 158.816 66.108 160.556C66.108 162.294 67.517 163.703 69.257 163.703C70.9953 163.703 72.4059 162.294 72.4059 160.556C72.4059 158.816 70.9953 157.407 69.257 157.407Z" fill="#131515"/>
<path d="M75.5532 157.407C73.815 157.407 72.4043 158.816 72.4043 160.556C72.4043 162.294 73.8132 163.703 75.5532 163.703C77.2915 163.703 78.7021 162.294 78.7021 160.556C78.7021 158.816 77.2932 157.407 75.5532 157.407Z" fill="#131515"/>
<path d="M84.9981 160.554C84.9981 158.816 83.5892 157.405 81.8492 157.405C80.111 157.405 78.7003 158.814 78.7003 160.554C78.7003 162.292 80.1092 163.701 81.8492 163.701C83.5892 163.703 84.9981 162.292 84.9981 160.554Z" fill="#131515"/>
<path d="M94.4415 157.407C92.7032 157.407 91.2943 158.816 91.2943 160.556C91.2943 162.294 92.7032 163.703 94.4415 163.703C96.1797 163.703 97.5904 162.294 97.5904 160.556C97.5904 158.816 96.1815 157.407 94.4415 157.407Z" fill="#131515"/>
<path d="M122.775 160.554C122.775 158.816 121.366 157.405 119.626 157.405C117.887 157.405 116.477 158.814 116.477 160.554C116.477 162.292 117.886 163.701 119.626 163.701C121.366 163.703 122.775 162.292 122.775 160.554Z" fill="#131515"/>
<path d="M135.367 160.554C135.367 162.292 136.776 163.701 138.516 163.701C140.254 163.701 141.665 162.292 141.665 160.554C141.665 158.816 140.256 157.405 138.516 157.405C136.778 157.407 135.367 158.816 135.367 160.554Z" fill="#131515"/>
<path d="M151.108 157.407C149.37 157.407 147.959 158.816 147.959 160.556C147.959 162.294 149.368 163.703 151.108 163.703C152.846 163.703 154.257 162.294 154.257 160.556C154.255 158.816 152.846 157.407 151.108 157.407Z" fill="#131515"/>
<path d="M59.8138 163.703C58.0756 163.703 56.6666 165.112 56.6666 166.852C56.6666 168.59 58.0756 169.999 59.8138 169.999C61.5521 169.999 62.9627 168.59 62.9627 166.852C62.961 165.112 61.5521 163.703 59.8138 163.703Z" fill="#131515"/>
<path d="M72.4058 163.703C70.6675 163.703 69.2568 165.112 69.2568 166.852C69.2568 168.59 70.6657 169.999 72.4058 169.999C74.144 169.999 75.5547 168.59 75.5547 166.852C75.5529 165.112 74.144 163.703 72.4058 163.703Z" fill="#131515"/>
<path d="M84.998 163.703C83.2598 163.703 81.8491 165.112 81.8491 166.852C81.8491 168.59 83.258 169.999 84.998 169.999C86.7363 169.999 88.1452 168.59 88.1452 166.852C88.1452 165.112 86.7363 163.703 84.998 163.703Z" fill="#131515"/>
<path d="M91.2944 163.703C89.5561 163.703 88.1454 165.112 88.1454 166.852C88.1454 168.59 89.5543 169.999 91.2944 169.999C93.0326 169.999 94.4415 168.59 94.4415 166.852C94.4415 165.112 93.0326 163.703 91.2944 163.703Z" fill="#131515"/>
<path d="M122.775 163.703C121.037 163.703 119.626 165.112 119.626 166.852C119.626 168.59 121.035 169.999 122.775 169.999C124.513 169.999 125.924 168.59 125.924 166.852C125.924 165.112 124.513 163.703 122.775 163.703Z" fill="#131515"/>
<path d="M129.071 163.703C127.332 163.703 125.923 165.112 125.923 166.852C125.923 168.59 127.332 169.999 129.071 169.999C130.809 169.999 132.22 168.59 132.22 166.852C132.22 165.112 130.809 163.703 129.071 163.703Z" fill="#131515"/>
<path d="M135.367 170C137.106 170 138.516 168.59 138.516 166.851C138.516 165.112 137.106 163.702 135.367 163.702C133.628 163.702 132.218 165.112 132.218 166.851C132.218 168.59 133.628 170 135.367 170Z" fill="#131515"/>
<path d="M141.663 163.703C139.925 163.703 138.514 165.112 138.514 166.852C138.514 168.59 139.923 169.999 141.663 169.999C143.401 169.999 144.812 168.59 144.812 166.852C144.812 165.112 143.403 163.703 141.663 163.703Z" fill="#131515"/>
<rect x="59.999" y="60" width="50" height="50" rx="10" fill="#131515"/>
<path fill-rule="evenodd" clip-rule="evenodd" d="M109.998 86.9244C109.392 87.0345 98.3796 86.9509 97.7834 86.7972C97.1872 86.6435 96.6314 86.3623 96.1544 85.973C95.6774 85.5838 95.2904 85.0957 95.0203 84.5424C94.7502 83.9891 94.6032 83.3839 94.5896 82.7683V78.3721C94.5784 77.29 94.1407 76.2559 93.3715 75.4947C92.6023 74.7334 91.5637 74.3064 90.4815 74.3064C89.3993 74.3064 88.3608 74.7334 87.5916 75.4947C86.8224 76.2559 86.3846 77.29 86.3734 78.3721V92.6246C86.0614 101.673 73.009 101.686 72.697 92.6246V88.2415C72.698 88.0602 72.6631 87.8806 72.5942 87.7129C72.5253 87.5453 72.4238 87.393 72.2956 87.2648C72.1675 87.1367 72.0152 87.0352 71.8475 86.9663C71.6799 86.8974 71.5002 86.8624 71.319 86.8634H60.0068L60.0068 84.1333H71.319C72.4078 84.1356 73.4514 84.5692 74.2213 85.3391C74.9913 86.109 75.4248 87.1526 75.4271 88.2415V92.6246C75.4383 93.7068 75.8761 94.7408 76.6453 95.5021C77.4145 96.2633 78.453 96.6904 79.5352 96.6904C80.6174 96.6904 81.6559 96.2633 82.4251 95.5021C83.1943 94.7408 83.6321 93.7068 83.6433 92.6246V78.3721C83.9553 69.3239 97.0077 69.3239 97.3197 78.3721V82.7683C97.3201 82.9486 97.3561 83.127 97.4256 83.2933C97.4951 83.4596 97.5969 83.6105 97.7249 83.7374C97.853 83.8642 98.0049 83.9645 98.1718 84.0325C98.3388 84.1004 98.5175 84.1347 98.6978 84.1333H109.998V86.9244Z" fill="white"/>
<rect x="6.13824" y="3.46612" width="41.5934" height="41.5934" rx="5.19918" stroke="#131515" stroke-width="6.93224"/>
<path d="M34.5562 13.7529H19.8912C17.9769 13.7529 16.425 15.3048 16.425 17.219V31.8841C16.425 33.7984 17.9769 35.3502 19.8912 35.3502H34.5562C36.4705 35.3502 38.0224 33.7984 38.0224 31.8841V17.219C38.0224 15.3048 36.4705 13.7529 34.5562 13.7529Z" fill="#131515"/>
<rect x="6.13824" y="124.94" width="41.5934" height="41.5934" rx="5.19918" stroke="#131515" stroke-width="6.93224"/>
<path d="M38.0224 135.227H16.425V156.824H38.0224V135.227Z" fill="#131515"/>
<rect x="121.789" y="3.46612" width="41.5934" height="41.5934" rx="5.19918" stroke="#131515" stroke-width="6.93224"/>
<path d="M153.674 13.7529H132.076V35.3502H153.674V13.7529Z" fill="#131515"/>
</svg>
