<svg width="24" height="24" viewBox="0 0 24 24" fill="none" xmlns="http://www.w3.org/2000/svg">
<g clip-path="url(#clip0_546_232)">
<path d="M14.6944 2.82833C14.6944 3.74284 14.2612 4.63547 13.513 5.16965C12.7758 5.69599 11.7978 5.80502 10.966 5.44192C10.1388 5.08078 9.54464 4.30329 9.36513 3.42429C9.17901 2.51286 9.43617 1.53525 10.0718 0.851777C10.6875 0.189828 11.6109 -0.128212 12.5018 0.048011C13.3823 0.222213 14.1156 0.859204 14.4631 1.67979C14.6166 2.04219 14.6944 2.43491 14.6944 2.82833Z" fill="white"/>
<path d="M22.5847 6.3956C21.4105 6.38894 20.2359 6.35317 19.0629 6.30173C18.7794 6.28931 18.4959 6.27698 18.2125 6.2644C17.927 6.25172 17.6404 6.25348 17.3547 6.24853C16.6984 6.23712 16.0421 6.22251 15.3859 6.20751C14.7549 6.19311 14.1237 6.17578 13.493 6.15234C13.3405 6.14668 13.1881 6.14102 13.0357 6.13536C12.9704 6.13294 12.9051 6.13051 12.8398 6.12809C12.766 6.12536 12.6955 6.11561 12.6222 6.10752C12.4742 6.09121 12.3238 6.09767 12.1752 6.09171C12.0456 6.08656 11.9101 6.0859 11.7807 6.09424C11.6522 6.09601 11.5217 6.09328 11.3939 6.10596C11.326 6.11268 11.2603 6.12435 11.192 6.12693C11.1219 6.1295 11.0519 6.13213 10.9818 6.13471C10.6765 6.14607 10.3713 6.15729 10.0659 6.16684C9.42706 6.18679 8.78815 6.20357 8.14914 6.21812C7.49037 6.23317 6.83151 6.2453 6.17269 6.25672C5.60532 6.26657 5.03881 6.29906 4.47174 6.32017C3.84688 6.34347 3.22191 6.36458 2.59675 6.37888C2.30629 6.3855 2.01563 6.39 1.72513 6.39348C1.51162 6.39601 1.29574 6.38075 1.08991 6.44886C0.654299 6.59305 0.35576 7.01592 0.365208 7.47452C0.374605 7.93134 0.68916 8.34103 1.12835 8.46764C1.33762 8.52797 1.56143 8.50846 1.77666 8.51165C2.06782 8.51594 2.35909 8.51968 2.6502 8.5268C3.27693 8.54206 3.90346 8.56308 4.52995 8.58642C4.80843 8.59678 5.08681 8.60931 5.36519 8.62148C5.531 8.62876 5.69778 8.6421 5.8638 8.64341C5.85101 8.64331 5.83626 8.64523 5.82373 8.64296C5.89482 8.65584 5.97358 8.65387 6.04522 8.65932C6.20816 8.67175 6.37104 8.68413 6.53398 8.69656C6.86313 8.72162 7.19224 8.74774 7.52139 8.77351C7.84717 8.79897 8.17283 8.8262 8.49855 8.85283C8.66184 8.86617 8.82508 8.88031 8.98832 8.89431C9.02126 8.89714 9.03354 8.84697 9.04839 8.81933C9.06501 8.78841 9.08189 8.75759 9.09902 8.72692C9.1359 8.66074 9.17374 8.59506 9.21264 8.53004C9.28651 8.40651 9.3635 8.28435 9.44848 8.16814C9.49319 8.10701 9.5469 8.01981 9.61718 7.98434C9.51148 8.29632 9.40438 8.60789 9.30262 8.92118C9.31596 8.9224 9.29681 8.96832 9.29318 8.98131C9.28646 9.0053 9.27984 9.0293 9.27327 9.05335C9.25892 9.10615 9.24503 9.15904 9.23159 9.21209C9.20506 9.31683 9.18026 9.42202 9.15712 9.52756C9.10821 9.75062 9.06673 9.97529 9.03187 10.201C8.95341 10.7089 8.90839 11.2217 8.88819 11.7351C8.86434 12.3406 8.87485 12.9472 8.9094 13.552C8.91845 13.7105 8.92941 13.8689 8.94502 14.027C8.94725 14.0497 8.97549 14.2005 8.95912 14.2064C8.92987 14.217 8.90061 14.2275 8.87136 14.2381C8.47622 14.3807 8.08103 14.5233 7.6859 14.6659C7.07275 14.8872 6.45961 15.1084 5.84647 15.3297C5.3181 15.5204 4.78973 15.7111 4.26137 15.9018C4.12359 15.9515 3.98582 16.0012 3.84804 16.0509C3.68147 16.111 3.51277 16.1648 3.36166 16.2597C2.97632 16.5016 2.73033 16.926 2.71224 17.3806C2.70891 17.4646 2.70557 17.5487 2.70219 17.6328C2.68238 18.1302 2.66263 18.6277 2.64282 19.1252C2.61665 19.7836 2.59043 20.4421 2.56426 21.1006C2.54496 21.5864 2.52561 22.0722 2.50631 22.558C2.50298 22.6412 2.49802 22.7246 2.49666 22.808C2.48903 23.2734 2.77191 23.7108 3.19948 23.8947C3.63079 24.0802 4.1434 23.9835 4.47771 23.6542C4.66873 23.466 4.76846 23.2293 4.81712 22.9703C4.90169 22.5202 4.98622 22.0701 5.07079 21.62C5.19008 20.985 5.30936 20.3501 5.42864 19.7152C5.47118 19.4888 5.51367 19.2625 5.55621 19.0362C5.56793 18.9739 5.57961 18.9116 5.59133 18.8493C5.59239 18.8436 5.59673 18.796 5.60264 18.7944C5.864 18.7221 6.1254 18.6499 6.38676 18.5776C6.95953 18.4192 7.53236 18.2608 8.10513 18.1024C8.73253 17.9289 9.35986 17.7555 9.98726 17.582C10.4124 17.4644 10.8375 17.3469 11.2626 17.2293C11.3072 17.217 11.3518 17.2047 11.3963 17.1924C11.4601 17.1747 11.5204 17.1901 11.5875 17.1944C11.891 17.2137 12.1982 17.2127 12.5013 17.188C12.5766 17.1818 12.6518 17.1739 12.7267 17.1637C12.7638 17.1587 12.8008 17.1532 12.8377 17.147C12.856 17.1439 12.8744 17.1407 12.8927 17.1374C12.9111 17.1534 12.9296 17.1693 12.9481 17.1852C13.0686 17.289 13.1894 17.3924 13.3104 17.4956C14.0559 18.1323 14.8083 18.7606 15.5621 19.3874C15.5602 19.3854 15.558 19.3834 15.5561 19.3813C15.5592 19.3847 15.5699 19.3914 15.5706 19.3957C15.5669 19.3741 15.508 19.3321 15.4939 19.3178C16.2224 20.0317 16.9514 20.7451 17.6875 21.4511C18.4436 22.1764 19.203 22.8985 19.976 23.6058C20.0393 23.6636 20.1014 23.7236 20.1707 23.7744C20.3693 23.9201 20.6131 23.9994 20.8593 23.9998C21.3517 24.0005 21.803 23.6783 21.9621 23.2124C22.0914 22.8338 22.0128 22.4207 21.7694 22.1065C21.5775 21.8588 21.3834 21.6129 21.1886 21.3676C20.4085 20.385 19.612 19.4157 18.8131 18.4485C18.4989 18.0682 18.1811 17.6909 17.8648 17.3124C17.6281 17.0292 17.3647 16.7657 17.1144 16.4945C16.6775 16.021 16.2365 15.5511 15.7933 15.0834C15.5786 14.8567 15.363 14.6308 15.1468 14.4054C15.1198 14.3773 15.0928 14.3491 15.0657 14.3211C15.0525 14.3072 15.0392 14.2934 15.0259 14.2796C15.0281 14.2622 15.0303 14.2448 15.0324 14.2273C15.0418 14.1496 15.0502 14.0718 15.0577 13.9939C15.0729 13.8337 15.0834 13.6732 15.0923 13.5126C15.154 12.3996 15.1363 11.2758 14.9632 10.1728C14.904 9.79583 14.8262 9.42161 14.7261 9.05325C14.6148 8.69454 14.4899 8.33992 14.3694 7.98424C14.4298 8.01471 14.4764 8.08589 14.5159 8.13803C14.59 8.23599 14.657 8.33931 14.7216 8.44374C14.7978 8.56697 14.8702 8.69267 14.9388 8.82029C14.9535 8.84762 14.9661 8.89809 14.9986 8.89532C15.037 8.89203 15.0754 8.88875 15.1139 8.88546C15.1985 8.87824 15.2831 8.87096 15.3677 8.86374C16.0206 8.80786 16.6741 8.75815 17.3274 8.70707C17.5113 8.69307 17.6952 8.67908 17.8791 8.66503C17.976 8.65766 18.0803 8.65998 18.1764 8.64285C18.1638 8.64508 18.1491 8.64321 18.1363 8.64331C18.3481 8.64164 18.5607 8.62462 18.7721 8.61537C19.0944 8.60122 19.4168 8.58829 19.7391 8.57632C20.3561 8.55333 20.9737 8.52999 21.5911 8.52195C21.8714 8.51832 22.1516 8.51094 22.4319 8.50963C22.647 8.50862 22.8497 8.497 23.0466 8.39944C23.4598 8.19467 23.6965 7.73223 23.6207 7.27723C23.5375 6.7767 23.0918 6.39853 22.5847 6.3956Z" fill="white"/>
</g>
<defs>
<clipPath id="clip0_546_232">
<rect width="24" height="24" fill="white"/>
</clipPath>
</defs>
</svg>
