<svg width="32" height="32" viewBox="0 0 32 32" fill="none" xmlns="http://www.w3.org/2000/svg">
<path d="M15.739 7.98386C17.3898 7.98386 18.728 6.64564 18.728 4.99486C18.728 3.34408 17.3898 2.00586 15.739 2.00586C14.0882 2.00586 12.75 3.34408 12.75 4.99486C12.75 6.64564 14.0882 7.98386 15.739 7.98386Z" fill="white"/>
<path d="M14.7866 9H15.2994C16.8302 9 18.0711 10.2409 18.0711 11.7717V16.7118C18.0711 17.34 18.3206 17.9425 18.7649 18.3867L20.678 20.2999C21.3618 20.9837 21.8382 21.8469 22.0522 22.79L23.3356 28.4456C23.4601 29.2634 22.8271 30 22 30C21.392 30 20.8588 29.5938 20.6974 29.0076L18.7283 23.61L13.7841 19.5616C12.9928 18.9136 12.551 17.9322 12.5906 16.9103L12.7377 13.1155L10.9739 14.5433L10.385 17.5173C10.2466 18.2162 9.56602 18.669 8.86798 18.5266C8.19434 18.3892 7.74827 17.7458 7.85583 17.0668L8.39599 13.6568C8.51867 12.8824 8.94032 12.187 9.5703 11.7203L12.0004 9.91973C12.8065 9.32243 13.7832 9 14.7866 9Z" fill="white"/>
<path d="M23.2717 16.7328C23.0587 17.4254 22.2968 17.7855 21.6264 17.5105L18.8157 16.5706C18.3653 16.3858 18.0712 15.9472 18.0712 15.4604L16.5381 12.7018L16.7189 9.3916L19.7564 13.6701L22.7469 15.3258C23.2205 15.6217 23.4359 16.1991 23.2717 16.7328Z" fill="white"/>
<path d="M8.59174 29.6576C9.08829 30.1159 9.85434 30.1137 10.3481 29.6523L13.9822 25.4822C14.4472 24.9486 14.8007 24.3272 15.0217 23.6548L16.3102 19.7365L12.5907 16.9102L12.095 22.7847L8.48261 27.8748C8.03546 28.4023 8.08359 29.1885 8.59174 29.6576Z" fill="white"/>
</svg>
