<svg width="88" height="88" viewBox="0 0 88 88" fill="none" xmlns="http://www.w3.org/2000/svg">
<path d="M83.6671 43.6047C85.6234 43.6047 87.2243 45.1932 87.0655 47.1431C86.421 55.0605 83.6229 62.6761 78.943 69.15C73.5693 76.5838 65.9882 82.1336 57.2782 85.0099C48.5683 87.8863 39.173 87.9427 30.4292 85.1711C21.6853 82.3996 14.0381 76.9412 8.57556 69.5725C3.113 62.2038 0.113273 53.3001 0.00314299 44.1282C-0.106987 34.9562 2.67808 25.9831 7.96214 18.4854C13.2462 10.9877 20.7601 5.34724 29.4349 2.36651C36.9897 -0.22937 45.0899 -0.69286 52.8527 0.99194C54.7645 1.40687 55.8191 3.40041 55.2504 5.27226C54.6817 7.14411 52.7049 8.18241 50.7868 7.79766C44.4575 6.5281 37.8819 6.95512 31.7371 9.06652C24.4717 11.563 18.1786 16.287 13.753 22.5666C9.32748 28.8461 6.9949 36.3613 7.08714 44.0431C7.17937 51.7249 9.69173 59.182 14.2668 65.3535C18.8418 71.5249 25.2466 76.0965 32.5698 78.4178C39.8931 80.7391 47.7618 80.6918 55.0567 78.2828C62.3515 75.8737 68.7009 71.2256 73.2015 64.9996C77.008 59.7339 79.3281 53.5664 79.9532 47.1414C80.1426 45.1943 81.7107 43.6047 83.6671 43.6047Z" fill="url(#paint0_linear_136_953)"/>
<defs>
<linearGradient id="paint0_linear_136_953" x1="43.6047" y1="0" x2="43.6047" y2="87.2093" gradientUnits="userSpaceOnUse">
<stop stop-color="#E8E1DD"/>
<stop offset="1" stop-color="#FF4C00"/>
</linearGradient>
</defs>
</svg>
