<svg width="14" height="14" viewBox="0 0 14 14" fill="none" xmlns="http://www.w3.org/2000/svg">
<path fill-rule="evenodd" clip-rule="evenodd" d="M9.77981 11.3166C9.74726 11.3322 9.7134 11.3472 9.67888 11.3602C9.32205 11.4937 8.7946 11.6916 8.3147 11.8713C7.46688 12.1898 6.53312 12.1898 5.6853 11.8713C5.2054 11.6916 4.67795 11.4937 4.32112 11.3602C4.2866 11.3472 4.25274 11.3322 4.22019 11.3166L2.73163 12.5466C3.91349 13.4582 5.39423 14 7 14C8.60577 14 10.0865 13.4582 11.2684 12.5466L9.77981 11.3166ZM13.9655 6.30391L10.4069 8.10177C10.4147 8.15516 10.4186 8.20986 10.4186 8.26521V10.2929C10.4186 10.3815 10.4082 10.4687 10.3887 10.5527L12.0068 11.8902C13.2401 10.6276 14 8.90205 14 7C14 6.76493 13.9883 6.53312 13.9655 6.30391ZM0.0345116 6.30391C0.0117209 6.53312 0 6.76493 0 7C0 8.90205 0.759907 10.6276 1.99321 11.8902L3.61135 10.5527C3.59181 10.4687 3.5814 10.3815 3.5814 10.2929C3.5814 9.74205 3.5814 8.81609 3.5814 8.26521C3.5814 8.20986 3.5853 8.15516 3.59312 8.10177L0.0345116 6.30391ZM0.209023 5.29786L4.1414 7.28391C4.19805 7.2507 4.25795 7.22205 4.32112 7.19795C4.67795 7.06447 5.2054 6.86651 5.6853 6.68679C6.53312 6.36837 7.46688 6.36837 8.3147 6.68679C8.7946 6.86651 9.32205 7.06447 9.67888 7.19795C9.74205 7.22205 9.80195 7.2507 9.8586 7.28391L13.791 5.29786C13.0304 2.25628 10.2767 0 7 0C3.72335 0 0.969581 2.25628 0.209023 5.29786ZM4.9814 4.50865C4.84791 4.68707 4.63498 4.80233 4.39535 4.80233C4.15572 4.80233 3.94279 4.68707 3.8093 4.50865C3.64716 4.29312 3.34047 4.25014 3.12493 4.41163C2.9094 4.57377 2.86642 4.88047 3.02791 5.09535C3.34047 5.51079 3.83665 5.77907 4.39535 5.77907C4.95405 5.77907 5.45023 5.51079 5.76279 5.09535C5.92428 4.88047 5.8813 4.57377 5.66577 4.41163C5.45023 4.25014 5.14353 4.29312 4.9814 4.50865ZM10.1907 4.50865C10.0572 4.68707 9.84428 4.80233 9.60465 4.80233C9.36502 4.80233 9.15209 4.68707 9.01861 4.50865C8.85647 4.29312 8.54977 4.25014 8.33423 4.41163C8.1187 4.57377 8.07572 4.88047 8.23721 5.09535C8.54977 5.51079 9.04595 5.77907 9.60465 5.77907C10.1633 5.77907 10.6595 5.51079 10.9721 5.09535C11.1336 4.88047 11.0906 4.57377 10.8751 4.41163C10.6595 4.25014 10.3528 4.29312 10.1907 4.50865Z" fill="white"/>
</svg>
