<svg width="24" height="24" viewBox="0 0 24 24" fill="none" xmlns="http://www.w3.org/2000/svg">
<path d="M1.58188 20.4931C5.04738 19.8201 8.67638 20.6356 11.4999 22.7521V4.02605C8.66038 2.13805 5.17688 1.37955 1.79438 1.94455C1.43788 1.99205 1.00688 2.03905 0.999878 2.50005V20.0001C0.992878 20.2996 1.28738 20.5496 1.58188 20.4931Z" fill="white"/>
<path d="M22.7009 1.63937C21.9864 0.696365 20.7344 0.851865 20.0689 1.76787L14.1334 8.15937C14.0759 8.22137 14.0354 8.29637 14.0149 8.37837L13.5149 10.3784C13.4159 10.7294 13.7704 11.0854 14.1214 10.9844L16.1214 10.4844C16.2154 10.4609 16.3004 10.4109 16.3664 10.3399L22.5874 3.64087C23.0794 3.14587 23.1344 2.20687 22.7009 1.63937Z" fill="white"/>
<path d="M16.3638 11.4552L14.3678 11.9542C13.8618 12.0847 13.3078 11.9337 12.9398 11.5617C12.5693 11.1917 12.4178 10.6462 12.5443 10.1367L13.0443 8.13669C13.1053 7.89269 13.2278 7.66569 13.4003 7.47969L18.6313 1.84619C16.4428 2.06769 14.3343 2.81719 12.4998 4.03769V22.7527C15.2218 20.7187 18.6833 19.8722 22.0413 20.4312L22.4178 20.4937C22.7103 20.5472 23.0083 20.3012 22.9998 20.0002V4.66669L17.0983 11.0217C16.8998 11.2352 16.6458 11.3847 16.3638 11.4552Z" fill="white"/>
</svg>
