<svg width="88" height="88" viewBox="0 0 88 88" fill="none" xmlns="http://www.w3.org/2000/svg">
<path d="M83.6671 43.6047C85.6234 43.6047 87.2243 45.1934 87.0656 47.1433C86.3193 56.311 82.6881 65.0423 76.6466 72.058C69.8321 79.9716 60.4036 85.1766 50.0759 86.7264C39.7483 88.2763 29.2073 86.0681 20.3701 80.5034C11.5328 74.9387 4.98621 66.3871 1.9208 56.4039C-1.14461 46.4206 -0.52522 35.6686 3.66634 26.1034C7.85789 16.5382 15.3432 8.79492 24.761 4.28186C34.1788 -0.231201 44.9036 -1.21433 54.985 1.51125C63.9225 3.92759 71.8281 9.11653 77.5906 16.2857C78.8163 17.8105 78.3828 20.0239 76.7636 21.1218C75.1444 22.2196 72.9543 21.7838 71.7048 20.2785C66.9121 14.5047 60.435 10.3236 53.136 8.35022C44.6926 6.06746 35.7103 6.89087 27.8226 10.6707C19.9349 14.4505 13.6657 20.9357 10.1552 28.9468C6.64462 36.958 6.12586 45.9631 8.69323 54.3243C11.2606 62.6856 16.7436 69.8478 24.145 74.5084C31.5465 79.169 40.3748 81.0184 49.0245 79.7204C57.6743 78.4223 65.5709 74.063 71.2783 67.4352C76.2121 61.7057 79.2266 54.6101 79.9532 47.1416C80.1427 45.1944 81.7108 43.6047 83.6671 43.6047Z" fill="url(#paint0_linear_136_925)"/>
<defs>
<linearGradient id="paint0_linear_136_925" x1="43.6047" y1="0" x2="43.6047" y2="87.2093" gradientUnits="userSpaceOnUse">
<stop stop-color="#E8E1DD"/>
<stop offset="1" stop-color="#FF9803"/>
</linearGradient>
</defs>
</svg>
