<svg width="24" height="24" viewBox="0 0 24 24" fill="white" xmlns="http://www.w3.org/2000/svg">
<path d="M22.305 11.31C22.1544 11.3101 22.0044 11.2905 21.8588 11.2519C21.811 11.2397 21.7662 11.2181 21.7268 11.1885C21.6874 11.159 21.6542 11.1219 21.6291 11.0795C21.604 11.037 21.5876 10.9901 21.5807 10.9413C21.5738 10.8925 21.5766 10.8428 21.5889 10.7951C21.6013 10.7474 21.6229 10.7026 21.6525 10.6633C21.6822 10.6239 21.7193 10.5908 21.7618 10.5658C21.8043 10.5409 21.8513 10.5245 21.9001 10.5177C21.9489 10.5109 21.9986 10.5138 22.0463 10.5263C22.2378 10.5682 22.437 10.5604 22.6247 10.5036C22.8124 10.4468 22.9825 10.3429 23.1188 10.2019C23.3386 9.86096 23.4551 9.46376 23.4544 9.05813C23.4534 8.55409 23.2739 8.06669 22.9479 7.68231C22.6218 7.29792 22.1702 7.04137 21.6731 6.95813C21.4816 6.96621 21.2948 7.02037 21.1287 7.11601C20.9626 7.21165 20.8219 7.34594 20.7188 7.50751C20.6858 7.56427 20.6385 7.61133 20.5815 7.64393C20.5246 7.67652 20.46 7.6935 20.3944 7.69313C20.3284 7.69389 20.2635 7.67637 20.2069 7.6425C20.1643 7.6179 20.1269 7.58514 20.097 7.5461C20.067 7.50705 20.045 7.46248 20.0323 7.41494C20.0196 7.3674 20.0164 7.31782 20.0229 7.26904C20.0293 7.22025 20.0453 7.17322 20.07 7.13063C20.0925 7.09125 20.6156 6.21001 21.6544 6.20813C21.562 5.71931 21.3018 5.27811 20.9187 4.96075C20.5356 4.64339 20.0537 4.46981 19.5563 4.47001C19.4565 4.47034 19.3569 4.47723 19.2581 4.49063C19.0957 4.59757 18.9618 4.74234 18.8677 4.9125C18.7736 5.08266 18.7223 5.27312 18.7181 5.46751C18.7189 5.51675 18.7099 5.56567 18.6917 5.61145C18.6736 5.65723 18.6466 5.69899 18.6123 5.73433C18.578 5.76968 18.5371 5.79792 18.4918 5.81745C18.4466 5.83697 18.398 5.8474 18.3488 5.84813H18.3431C18.2446 5.84816 18.1501 5.80943 18.0799 5.74031C18.0097 5.6712 17.9696 5.57724 17.9681 5.47875C17.9663 5.43375 17.9625 4.33876 18.9338 3.81188C18.9556 3.79921 18.9789 3.78914 19.0031 3.78188C18.7256 3.30347 18.2737 2.951 17.7421 2.79827C17.2105 2.64554 16.6404 2.70439 16.1512 2.96251C16.0617 3.11183 16.0048 3.27838 15.9841 3.45125C15.9634 3.62412 15.9795 3.7994 16.0312 3.96563C16.0511 4.02214 16.0571 4.08257 16.0488 4.14188C16.0406 4.20119 16.0183 4.25768 15.9838 4.30664C15.9493 4.3556 15.9037 4.39563 15.8506 4.42339C15.7976 4.45115 15.7386 4.46585 15.6788 4.46626C15.6015 4.46602 15.5262 4.44219 15.4628 4.39795C15.3995 4.35372 15.3512 4.2912 15.3244 4.21876C15.3094 4.17376 14.9513 3.14251 15.6994 2.32501L15.7106 2.31376C15.318 1.91077 14.7826 1.67854 14.2201 1.66731C13.6576 1.65608 13.1133 1.86676 12.705 2.25376C12.5974 2.43173 12.5422 2.63644 12.5456 2.84438C12.5445 2.97525 12.5634 3.10552 12.6019 3.23063C12.6349 3.32425 12.6296 3.42715 12.587 3.51682C12.5443 3.6065 12.4679 3.67563 12.3745 3.70911C12.281 3.74258 12.1781 3.73766 12.0882 3.69542C11.9983 3.65319 11.9289 3.57708 11.895 3.48376C11.7983 3.18724 11.7729 2.87211 11.8208 2.56393C11.8687 2.25575 11.9885 1.9632 12.1706 1.71001C11.9321 1.53938 11.6609 1.41986 11.374 1.35895C11.0871 1.29803 10.7908 1.29702 10.5035 1.35599C10.2162 1.41496 9.9442 1.53264 9.70452 1.70164C9.46484 1.87065 9.26265 2.08734 9.11063 2.33813C8.99681 2.63033 8.99548 2.95437 9.10688 3.24751C9.14465 3.33911 9.145 3.44187 9.10784 3.53372C9.07068 3.62558 8.99897 3.69919 8.90813 3.73876C8.86104 3.75785 8.81081 3.76803 8.76 3.76876C8.68732 3.76885 8.61622 3.74757 8.55555 3.70756C8.49487 3.66756 8.4473 3.61059 8.41875 3.54376C8.22492 3.05258 8.22962 2.50528 8.43188 2.01751C8.15468 1.93149 7.86282 1.90306 7.57424 1.93397C7.28565 1.96488 7.00643 2.05447 6.75374 2.19723C6.50104 2.34 6.28021 2.53293 6.1048 2.76416C5.9294 2.9954 5.80313 3.26006 5.73375 3.54188H5.73188C5.75625 4.05937 6.0225 4.21501 6.03375 4.22063C6.07829 4.24106 6.11833 4.27013 6.15155 4.30615C6.18476 4.34218 6.21049 4.38445 6.22724 4.4305C6.24398 4.47655 6.25141 4.52547 6.2491 4.57442C6.24678 4.62336 6.23477 4.67136 6.21375 4.71563C6.18327 4.7807 6.13471 4.83563 6.07387 4.87386C6.01303 4.9121 5.94248 4.93202 5.87063 4.93125C5.81565 4.932 5.7612 4.92047 5.71125 4.89751C5.43938 4.77188 4.97813 4.33126 4.97813 3.46876C4.97844 3.45369 4.97969 3.43866 4.98188 3.42376C4.44573 3.43485 3.93335 3.6471 3.54642 4.0184C3.1595 4.3897 2.9263 4.8929 2.89313 5.42813V5.43563C2.90254 5.6006 2.94508 5.76199 3.01821 5.91017C3.09133 6.05836 3.19354 6.1903 3.31875 6.29813C3.38122 6.34561 3.42721 6.41149 3.45024 6.48649C3.47327 6.5615 3.47218 6.64184 3.44712 6.71619C3.42206 6.79055 3.3743 6.85516 3.31056 6.90092C3.24683 6.94668 3.17034 6.97128 3.09188 6.97125C3.01297 6.97184 2.936 6.94684 2.8725 6.9C2.47638 6.57842 2.21978 6.11626 2.15625 5.61001C1.77576 5.7753 1.45176 6.04801 1.22395 6.39471C0.996151 6.74141 0.874444 7.14704 0.873751 7.56188C0.871999 8.02817 1.02499 8.48187 1.30875 8.85188C1.30688 8.85188 1.30688 8.85376 1.305 8.85376C1.47497 9.00802 1.6898 9.10394 1.91813 9.12751C2.01706 9.13298 2.10988 9.17714 2.17653 9.25046C2.24319 9.32378 2.27833 9.42037 2.27438 9.51938C2.27111 9.61559 2.23054 9.70676 2.16125 9.7736C2.09196 9.84044 1.99939 9.8777 1.90313 9.87751H1.89188C1.46599 9.8459 1.06463 9.66611 0.757501 9.36938C0.724803 9.33942 0.698633 9.30304 0.680626 9.26251C0.274504 9.63692 0.0311828 10.1555 0.00279433 10.7072C-0.0255942 11.2588 0.163209 11.7996 0.528751 12.2138C0.703232 12.3282 0.906962 12.39 1.11563 12.3919C1.21421 12.3879 1.31046 12.4225 1.38397 12.4883C1.45748 12.5541 1.50246 12.646 1.50938 12.7444C1.51572 12.8425 1.48302 12.9392 1.41839 13.0133C1.35376 13.0874 1.26245 13.1329 1.16438 13.14C1.14319 13.142 1.12189 13.1426 1.10063 13.1419C0.843986 13.1387 0.590932 13.0812 0.358126 12.9731C0.354376 13.02 0.352501 13.065 0.352501 13.1119C0.353816 13.6264 0.541098 14.1231 0.87982 14.5104C1.21854 14.8977 1.68586 15.1495 2.19563 15.2194C2.02886 14.8267 1.99335 14.3907 2.09438 13.9763C2.12054 13.8806 2.18354 13.7993 2.26956 13.75C2.35559 13.7007 2.45764 13.6875 2.55337 13.7133C2.6491 13.7391 2.73071 13.8018 2.78033 13.8876C2.82995 13.9734 2.84354 14.0754 2.81813 14.1713C2.68125 14.6756 3.01313 15.1875 3.01688 15.1931C3.02074 15.199 3.02388 15.2053 3.02625 15.2119C3.22376 15.4914 3.48527 15.7196 3.78893 15.8775C4.0926 16.0353 4.42963 16.1183 4.77188 16.1194C4.98345 16.1186 5.19378 16.087 5.39625 16.0256C5.24777 15.7397 5.17356 15.4211 5.18044 15.099C5.18732 14.777 5.27507 14.4618 5.43563 14.1825C5.45866 14.1389 5.49009 14.1002 5.52811 14.0687C5.56613 14.0372 5.60999 14.0136 5.65717 13.9991C5.70435 13.9846 5.75393 13.9796 5.80306 13.9843C5.85219 13.989 5.89991 14.0034 5.94347 14.0266C5.98703 14.0498 6.02559 14.0814 6.05692 14.1195C6.08825 14.1576 6.11175 14.2016 6.12606 14.2488C6.14037 14.296 6.14521 14.3456 6.14031 14.3948C6.13541 14.4439 6.12086 14.4915 6.0975 14.535C5.99404 14.7077 5.93661 14.9041 5.9307 15.1053C5.92479 15.3065 5.9706 15.5059 6.06375 15.6844H6.06563C6.49418 16.3447 7.13815 16.8363 7.88813 17.0756C8.52645 17.2937 9.2145 17.3211 9.86813 17.1544C9.86025 17.1275 9.85523 17.0998 9.85313 17.0719C9.75188 15.5438 10.6106 14.5106 12.15 14.3063C12.2487 14.2931 12.3486 14.3197 12.4277 14.3801C12.5068 14.4406 12.5587 14.53 12.5719 14.6288C12.5851 14.7275 12.5585 14.8274 12.498 14.9065C12.4375 14.9856 12.3481 15.0375 12.2494 15.0506C10.8656 15.2325 10.5769 16.1325 10.5956 16.9013C10.8431 17.79 11.6306 19.3744 14.1394 19.7344C15.1983 20.1917 16.0883 20.9677 16.6856 21.9544C16.8118 22.176 16.9942 22.3605 17.2145 22.4892C17.4347 22.6179 17.6849 22.6863 17.94 22.6875C18.1655 22.688 18.388 22.6353 18.5894 22.5337C18.7907 22.432 18.9652 22.2843 19.0988 22.1025C19.2373 21.9153 19.3296 21.6979 19.3681 21.4681C19.4065 21.2384 19.3901 21.0028 19.32 20.7806L18.5081 18.4819H15.9806C15.8812 18.4819 15.7858 18.4424 15.7155 18.372C15.6451 18.3017 15.6056 18.2063 15.6056 18.1069C15.6056 18.0074 15.6451 17.912 15.7155 17.8417C15.7858 17.7714 15.8812 17.7319 15.9806 17.7319L19.8506 17.7337C20.5286 17.734 21.1808 17.4744 21.6732 17.0085C22.1657 16.5426 22.4609 15.9056 22.4981 15.2287C22.514 14.8196 22.4337 14.4125 22.2637 14.04H20.2275C20.128 14.04 20.0327 14.0005 19.9623 13.9302C19.892 13.8598 19.8525 13.7645 19.8525 13.665C19.8525 13.5655 19.892 13.4702 19.9623 13.3998C20.0327 13.3295 20.128 13.29 20.2275 13.29H23.52C23.81 12.9352 23.9776 12.4962 23.9979 12.0384C24.0182 11.5805 23.89 11.1284 23.6325 10.7494C23.2758 11.0959 22.8021 11.296 22.305 11.31ZM10.875 11.0625C10.4256 11.043 9.98481 11.1907 9.63785 11.477C9.29089 11.7634 9.06232 12.1681 8.99625 12.6131C8.98394 12.7029 8.93957 12.7852 8.87134 12.8448C8.80311 12.9044 8.71561 12.9373 8.625 12.9375C8.60807 12.9372 8.59117 12.9359 8.57438 12.9338C8.52559 12.9272 8.47859 12.911 8.43605 12.8863C8.39352 12.8615 8.35629 12.8285 8.32651 12.7894C8.29672 12.7502 8.27497 12.7055 8.26248 12.6579C8.25 12.6103 8.24703 12.5606 8.25375 12.5119C8.34302 11.8868 8.6599 11.3166 9.14363 10.9107C9.62736 10.5049 10.2439 10.2918 10.875 10.3125C10.9745 10.3125 11.0698 10.352 11.1402 10.4223C11.2105 10.4927 11.25 10.588 11.25 10.6875C11.25 10.787 11.2105 10.8823 11.1402 10.9527C11.0698 11.023 10.9745 11.0625 10.875 11.0625ZM12.5269 6.53438C12.3171 6.99362 11.9643 7.37259 11.5212 7.61459C11.0781 7.85659 10.5685 7.94861 10.0688 7.87688C10.0386 7.87099 10.0091 7.8622 9.98063 7.85063C9.49125 7.63313 9.0525 7.60688 8.67563 7.77C7.96125 8.0775 7.6425 8.96625 7.63875 8.97563C7.60915 9.05886 7.55125 9.12905 7.47518 9.17394C7.3991 9.21883 7.30967 9.23558 7.2225 9.22126C6.47438 9.09376 5.91188 9.19313 5.55375 9.5175C5.02313 9.99563 5.0625 10.8431 5.06438 10.8506C5.07023 10.9499 5.03671 11.0476 4.97108 11.1223C4.90544 11.1971 4.81298 11.243 4.71375 11.25H4.68938C4.59403 11.2501 4.5022 11.214 4.43255 11.1488C4.3629 11.0837 4.32065 10.9945 4.31438 10.8994C4.3125 10.8506 4.24688 9.68626 5.05125 8.96063C5.535 8.52376 6.20813 8.35126 7.05375 8.44126C7.24313 8.05876 7.6575 7.395 8.37188 7.08375C8.66873 6.96281 8.98765 6.90549 9.30804 6.91551C9.62843 6.92552 9.94315 7.00264 10.2319 7.14188C10.5646 7.17778 10.9001 7.10751 11.1904 6.94114C11.4807 6.77476 11.7109 6.52081 11.8481 6.21563C11.8904 6.12564 11.9667 6.05613 12.0602 6.02238C12.1537 5.98864 12.2568 5.99343 12.3468 6.03569C12.4368 6.07795 12.5064 6.15423 12.5401 6.24775C12.5739 6.34127 12.5691 6.44437 12.5269 6.53438ZM13.4006 9.06751C13.3838 9.15327 13.3379 9.23058 13.2705 9.2863C13.2032 9.34201 13.1186 9.37269 13.0312 9.37313C13.0085 9.37342 12.9859 9.3709 12.9637 9.36563C12.8668 9.34868 12.7805 9.29394 12.7239 9.21342C12.6673 9.13291 12.645 9.03322 12.6619 8.93626C12.7462 8.43938 13.2863 7.50001 14.7188 7.50001C14.8182 7.50001 14.9136 7.53951 14.9839 7.60984C15.0542 7.68017 15.0938 7.77555 15.0938 7.87501C15.0938 7.97446 15.0542 8.06984 14.9839 8.14017C14.9136 8.2105 14.8182 8.25001 14.7188 8.25001C13.5956 8.25001 13.4175 8.98501 13.4006 9.06751ZM17.7956 13.6088C17.6025 14.25 16.8131 15.375 15.1819 15.375C15.0453 15.3747 14.9089 15.3672 14.7731 15.3525C14.6745 15.3416 14.5842 15.2922 14.522 15.2149C14.4597 15.1376 14.4306 15.0389 14.4411 14.9402C14.4515 14.8415 14.5005 14.751 14.5775 14.6884C14.6545 14.6258 14.7532 14.5963 14.8519 14.6063C16.6312 14.7975 17.0606 13.4494 17.0794 13.3913C17.0937 13.3442 17.1171 13.3005 17.1483 13.2625C17.1794 13.2245 17.2178 13.193 17.2612 13.1699C17.3045 13.1467 17.352 13.1323 17.4009 13.1275C17.4498 13.1227 17.4992 13.1276 17.5463 13.1419C17.5933 13.1562 17.637 13.1796 17.675 13.2108C17.713 13.2419 17.7445 13.2803 17.7676 13.3237C17.7908 13.367 17.8052 13.4145 17.81 13.4634C17.8148 13.5123 17.8099 13.5617 17.7956 13.6088ZM19.4719 10.5431C19.422 10.5667 19.3676 10.5788 19.3125 10.5788C19.2413 10.5786 19.1717 10.5582 19.1116 10.5201C19.0515 10.4819 19.0035 10.4275 18.9731 10.3631C18.8612 10.0854 18.6555 9.85559 18.3917 9.71377C18.1279 9.57195 17.8228 9.52705 17.5294 9.58688C17.4704 9.76299 17.3809 9.92737 17.265 10.0725C16.935 10.47 16.4531 10.6463 15.9844 10.7756C15.5081 10.9088 15.2231 11.025 14.985 11.2988C14.4506 11.9081 14.6306 12.7444 14.7844 13.1888C14.8174 13.2825 14.8119 13.3855 14.769 13.4752C14.7261 13.5649 14.6494 13.6338 14.5556 13.6669C14.5157 13.6801 14.4739 13.6871 14.4319 13.6875C14.3541 13.6874 14.2782 13.6632 14.2148 13.6182C14.1513 13.5732 14.1034 13.5096 14.0775 13.4363C13.7156 12.4031 13.8375 11.4675 14.4206 10.8038C14.8181 10.35 15.3113 10.185 15.7838 10.0538C16.1119 9.96188 16.4794 9.84375 16.6875 9.59438C16.9256 9.30563 16.9031 8.86688 16.8019 8.55188C16.7715 8.45715 16.7801 8.35425 16.8256 8.26581C16.8712 8.17738 16.95 8.11065 17.0447 8.08032C17.1394 8.04998 17.2423 8.05852 17.3308 8.10406C17.4192 8.1496 17.4859 8.2284 17.5162 8.32313C17.5677 8.48592 17.6017 8.65375 17.6175 8.82376C18.0422 8.78529 18.4681 8.8828 18.8338 9.1022C19.1995 9.3216 19.486 9.65154 19.6519 10.0444C19.6728 10.0889 19.6848 10.1372 19.6871 10.1864C19.6894 10.2356 19.6819 10.2847 19.6652 10.3311C19.6485 10.3774 19.6228 10.4199 19.5897 10.4563C19.5565 10.4927 19.5165 10.5222 19.4719 10.5431Z" fill="white"/>
</svg>
