<svg width="61" height="48" viewBox="0 0 61 48" fill="none" xmlns="http://www.w3.org/2000/svg">
<path d="M51.2244 22.7996C51.2244 26.092 50.0031 29.0989 47.9893 31.3912L39.3752 28.9573L30.4534 22.7996L27.7257 15.1146C30.0916 11.8825 33.9116 9.78369 38.2214 9.78369C45.4027 9.78381 51.2244 15.6112 51.2244 22.7996Z" fill="#FDCB50"/>
<path d="M47.9893 31.3913C47.4165 30.9084 46.8008 30.4827 46.151 30.1187C45.8607 22.9087 39.9101 17.1325 32.6373 17.1325C31.8166 17.1325 31.009 17.2044 30.2175 17.3471C29.4584 16.528 28.6237 15.7799 27.7257 15.1147C26.1492 17.2683 25.2184 19.9252 25.2184 22.7996C25.2184 29.988 31.0401 35.8153 38.2214 35.8153C42.1135 35.8155 45.6062 34.1037 47.9893 31.3913Z" fill="#FD8F01"/>
<path d="M40.1572 33.0088C40.3536 32.2924 40.4586 31.538 40.4586 30.7592C40.4586 26.0762 36.6661 22.2801 31.9878 22.2801C30.6459 22.2801 29.377 22.5925 28.2494 23.1484C26.0484 19.5554 22.0886 17.1584 17.5694 17.1584C10.6553 17.1584 5.05049 22.7689 5.05049 29.6898C5.05049 30.2746 5.09064 30.8502 5.16808 31.4137C2.78539 32.8471 1.19141 35.4595 1.19141 38.4446C1.19141 42.9717 4.85772 46.6416 9.38042 46.6416H39.1988C42.9781 46.6416 46.0418 43.5749 46.0418 39.7918C46.0417 36.3345 43.4826 33.4753 40.1572 33.0088Z" fill="#3BD5DD"/>
<path d="M12.7529 19.7004C12.7529 19.1641 12.7673 18.631 12.7957 18.1018C8.24965 19.9803 5.05037 24.4611 5.05037 29.6899C5.05037 30.2748 5.09052 30.8503 5.16796 31.4139C2.78539 32.8471 1.19141 35.4595 1.19141 38.4446C1.19141 42.9717 4.85772 46.6416 9.38042 46.6416H30.4535C20.0409 42.1434 12.7529 31.7739 12.7529 19.7004Z" fill="#27A2CC"/>
<path d="M38.2214 0C37.5635 0 37.03 0.533393 37.03 1.19141V4.115C37.03 4.77301 37.5635 5.3064 38.2214 5.3064C38.8793 5.3064 39.4128 4.77301 39.4128 4.115V1.19141C39.4128 0.533393 38.8793 0 38.2214 0Z" fill="#FD6050"/>
<path d="M59.8086 21.6084H56.8878C56.2299 21.6084 55.6964 22.1418 55.6964 22.7998C55.6964 23.4578 56.2299 23.9912 56.8878 23.9912H59.8086C60.4664 23.9912 61 23.4578 61 22.7998C61 22.1418 60.4664 21.6084 59.8086 21.6084Z" fill="#FD6050"/>
<path d="M51.547 7.77524L50.5776 8.74552C50.1126 9.211 50.113 9.9654 50.5785 10.4304C50.811 10.6627 51.1158 10.7789 51.4204 10.7789C51.7256 10.7789 52.0307 10.6624 52.2632 10.4295L53.2326 9.45917C53.6976 8.99369 53.6972 8.23929 53.2317 7.77428C52.7663 7.30928 52.0119 7.30963 51.547 7.77524Z" fill="#FD6050"/>
<path d="M52.2634 35.17C51.7986 34.7045 51.0441 34.704 50.5785 35.1691C50.1129 35.6342 50.1127 36.3885 50.5777 36.854L51.547 37.8243C51.7796 38.0572 52.0847 38.1737 52.3898 38.1737C52.6946 38.1737 52.9992 38.0576 53.2318 37.8252C53.6973 37.3602 53.6976 36.6058 53.2326 36.1404L52.2634 35.17Z" fill="#FD6050"/>
<path d="M24.8956 7.77518C24.4308 7.30969 23.6763 7.30922 23.2107 7.77434C22.7451 8.23947 22.7449 8.99375 23.2099 9.45923L24.1792 10.4295C24.4118 10.6624 24.7169 10.7789 25.022 10.7789C25.3268 10.7789 25.6314 10.6628 25.864 10.4305C26.3295 9.96546 26.3298 9.21106 25.8648 8.74558L24.8956 7.77518Z" fill="#FD6050"/>
<path d="M39.1987 47.833H9.3803C4.20793 47.833 0 43.6214 0 38.4446C0 35.4282 1.47877 32.5741 3.90507 30.8213C3.87433 30.4451 3.85885 30.0667 3.85885 29.6898C3.85885 22.123 10.0094 15.967 17.5693 15.967C22.0306 15.967 26.1172 18.0786 28.6932 21.6647C29.7439 21.282 30.848 21.0887 31.9876 21.0887C37.3154 21.0887 41.6499 25.4268 41.6499 30.7592C41.6499 31.2104 41.6187 31.6598 41.557 32.1038C44.8666 33.124 47.2331 36.2335 47.2331 39.7918C47.2331 44.2258 43.6288 47.833 39.1987 47.833ZM17.5694 18.35C11.3234 18.35 6.24178 23.437 6.24178 29.6899C6.24178 30.2121 6.27764 30.7375 6.34841 31.2516C6.41322 31.7237 6.19067 32.1891 5.78225 32.4348C3.65357 33.7153 2.38281 35.9619 2.38281 38.4446C2.38281 42.3075 5.52193 45.4502 9.3803 45.4502H39.1986C42.3148 45.4502 44.8503 42.9119 44.8503 39.7918C44.8503 36.9861 42.7615 34.5772 39.9916 34.1885C39.6524 34.141 39.35 33.9497 39.1618 33.6635C38.9735 33.3773 38.9175 33.0239 39.0082 32.6936C39.18 32.067 39.2672 31.4161 39.2672 30.7592C39.2672 26.7407 36.0017 23.4715 31.9877 23.4715C30.8598 23.4715 29.7794 23.7223 28.7763 24.2169C28.2233 24.4895 27.5551 24.2957 27.2334 23.7708C25.154 20.3764 21.5413 18.35 17.5694 18.35Z" fill="#95DEF8"/>
</svg>
