<svg width="32" height="32" viewBox="0 0 32 32" fill="none" xmlns="http://www.w3.org/2000/svg">
<path d="M25.2374 9.26979C25.4259 10.3105 25.7678 12.8296 25.2724 15.4507C25.0323 16.7234 24.623 17.8663 24.0562 18.8479C22.4145 21.6913 19.3491 23.3904 17.4709 24.2122C17.7922 23.7781 18.1536 23.253 18.5164 22.6524C19.1051 21.6778 19.7603 20.3894 20.1982 18.9262C20.2131 18.8915 20.2234 18.8553 20.2296 18.8185C20.5151 17.8348 20.7006 16.7748 20.7006 15.6794C20.7006 14.43 20.4594 13.2267 20.1036 12.1303C22.0656 10.5201 24.2798 9.61397 25.2374 9.26979ZM15.9994 6.79541C16.982 7.95935 19.7659 11.6163 19.7659 15.6794C19.7659 19.7431 16.9812 23.4005 15.9991 24.5638C15.0166 23.4019 12.233 19.7502 12.233 15.6794C12.2331 11.6161 15.0172 7.95897 15.9994 6.79541ZM6.76181 9.26991C7.71988 9.61429 9.93363 10.5203 11.8953 12.1303C11.5394 13.2267 11.2982 14.43 11.2982 15.6793C11.2982 18.4538 12.486 21.0027 13.4824 22.6523C13.8451 23.2528 14.2063 23.7777 14.5276 24.2117C12.6489 23.3895 9.58369 21.6902 7.9425 18.8478C7.37575 17.8663 6.96656 16.7233 6.72631 15.4505C6.23206 12.8353 6.57375 10.312 6.76181 9.26991ZM5.81038 23.7365C2.29144 21.7047 0.516375 17.4643 0 16.0322C1.00181 15.8515 3.36981 15.5296 5.87213 15.9427C6.13838 17.1925 6.56162 18.326 7.13294 19.3154C8.22412 21.2053 10.0689 22.9074 12.4679 24.2377C13.0949 24.5854 13.6863 24.867 14.1952 25.0878C12.1536 25.3133 8.64456 25.3728 5.81038 23.7365ZM26.1884 23.7365C23.3543 25.3728 19.8457 25.3132 17.8044 25.0877C18.313 24.867 18.9043 24.5854 19.5313 24.2377C21.93 22.9073 23.7746 21.2052 24.8658 19.3153C25.4372 18.3258 25.8604 17.1924 26.1266 15.9425C28.6294 15.5294 30.9984 15.8515 31.9999 16.0322C31.4851 17.4638 29.7139 21.701 26.1884 23.7365Z" fill="white"/>
</svg>
