<svg width="69" height="69" viewBox="0 0 69 69" fill="none" xmlns="http://www.w3.org/2000/svg">
<g clip-path="url(#clip0_718_656)">
<path d="M56.2384 43.5545C55.9836 44.2495 55.6923 44.9308 55.3643 45.5964C58.2962 48.8743 61.2172 52.8154 64.0515 57.339C64.1941 57.5662 64.4164 57.7247 64.6769 57.7824C64.9336 57.8406 65.1986 57.7944 65.4226 57.6502C65.8972 57.3518 66.032 56.7458 65.7354 56.2698C62.5991 51.268 59.4095 47.0025 56.2384 43.5545Z" fill="#E94702"/>
<path d="M17.3816 26.5645L14.592 20.1924C14.4639 19.9073 14.4767 19.5777 14.6253 19.3034C14.7749 19.0289 15.0445 18.8394 15.354 18.7925L23.5505 17.5512C34.6618 15.8685 39.9649 17.7537 43.6874 19.8206C48.7509 22.6352 52.4511 27.8277 53.3441 33.3705C53.6146 35.0833 53.6204 36.8382 53.3615 38.5877C53.1512 40.1376 52.7225 41.6681 52.0897 43.1263C51.131 45.3641 49.7229 47.3665 48.0158 48.9166C43.6297 52.8931 37.2584 54.2251 32.1603 52.231C27.6357 50.4575 26.2632 46.4903 26.4627 43.6332C26.6884 40.3949 28.0947 38.0003 30.64 36.5155C34.137 34.4556 39.6583 34.4559 44.0665 36.5232C46.2612 37.5511 48.5071 39.0578 50.7571 41.012C50.9907 40.304 51.156 39.5791 51.283 38.8478C49.161 37.0978 47.0227 35.7003 44.9202 34.72C41.7032 33.2056 37.878 32.638 34.4224 33.1613C32.6012 33.4371 30.9869 33.984 29.6246 34.786C26.5212 36.6133 24.7397 39.622 24.4712 43.4857C24.2 47.3054 26.2477 52.0644 31.4313 54.0891C37.2278 56.3608 44.4313 54.8805 49.3599 50.4061C50.9696 48.9466 52.2891 47.2277 53.2823 45.2982C53.2847 45.2938 53.2895 45.292 53.2919 45.2876L53.2875 45.2853C53.9514 44.0459 54.4765 42.7314 54.8473 41.3797C55.5927 38.6887 55.7558 35.8119 55.3196 33.0582C54.3181 26.8259 50.3347 21.2262 44.6657 18.0795C40.6371 15.8476 34.9409 13.8045 23.2512 15.5747L15.0547 16.816C14.7462 16.8627 14.4327 16.7626 14.2074 16.5438C13.9842 16.3258 13.8744 16.0147 13.9124 15.7045L14.7611 8.81984L3.64164 19.5184L17.3804 26.5637L17.3816 26.5645Z" fill="#E94702"/>
</g>
<defs>
<clipPath id="clip0_718_656">
<rect width="60" height="60" fill="white" transform="translate(68.3076 59.3236) rotate(171.389)"/>
</clipPath>
</defs>
</svg>
