<svg width="23" height="24" viewBox="0 0 23 24" fill="none" xmlns="http://www.w3.org/2000/svg">
<g clip-path="url(#clip0_736_110)">
<path d="M12.5006 13.6698L15.431 16.478L16.108 17.155L4.47739 23.6164C3.64628 24.0781 2.73646 24.1002 1.95532 23.8046C1.22054 23.4968 0.645217 23.0843 0.221934 22.1283C0.0796358 21.7801 0 21.3947 0 20.9819V3.01809C0 2.60536 0.0796358 2.2199 0.221934 1.8717L0.955836 2.6056L0.974159 2.62354L10.7583 12L12.5006 13.6698Z" fill="#131515"/>
<path d="M18.3 15.9372L20.6448 14.6345C22.7117 13.4863 22.7117 10.5137 20.6448 9.36551L18.2999 8.06278L16.108 6.84502L4.4774 0.383595C3.6463 -0.078127 2.73648 -0.100176 1.95534 0.195415L2.65161 0.891681L12.5006 10.3303L14.2428 12L17.1085 14.7462L17.1268 14.7641L18.3 15.9372Z" fill="#131515"/>
</g>
<defs>
<clipPath id="clip0_736_110">
<rect width="23" height="24" fill="white"/>
</clipPath>
</defs>
</svg>
